<svg width="26" height="19" viewBox="0 0 26 19" fill="none" xmlns="http://www.w3.org/2000/svg">
<path d="M1 9.5C1 5.74143 1 3.86213 2.26336 2.60746C2.46543 2.40678 2.68814 2.22118 2.92895 2.0528C4.43456 1 6.6897 1 11.2 1H14.8C19.3103 1 21.5655 1 23.071 2.0528C23.3118 2.22118 23.5346 2.40678 23.7366 2.60746C25 3.86213 25 5.74143 25 9.5C25 13.2586 25 15.1378 23.7366 16.3925C23.5346 16.5933 23.3118 16.7788 23.071 16.9472C21.5655 18 19.3103 18 14.8 18H11.2C6.6897 18 4.43456 18 2.92895 16.9472C2.68814 16.7788 2.46543 16.5933 2.26336 16.3925C1 15.1378 1 13.2586 1 9.5Z" fill="#333333" fill-opacity="0.2" stroke="#333333" stroke-width="2" stroke-linecap="round" stroke-linejoin="round"/>
<path d="M20.8003 9.5H20.7891H20.8003Z" fill="#333333" fill-opacity="0.2"/>
<path d="M20.8003 9.5H20.7891" stroke="#333333" stroke-width="3" stroke-linecap="round" stroke-linejoin="round"/>
<path d="M5.20068 9.5H5.18945H5.20068Z" fill="#333333" fill-opacity="0.2"/>
<path d="M5.20068 9.5H5.18945" stroke="#333333" stroke-width="3" stroke-linecap="round" stroke-linejoin="round"/>
<path d="M16.0596 9.5C16.0596 11.1396 14.7164 12.4688 13.0596 12.4688C11.4027 12.4688 10.0596 11.1396 10.0596 9.5C10.0596 7.86041 11.4027 6.53125 13.0596 6.53125C14.7164 6.53125 16.0596 7.86041 16.0596 9.5Z" fill="#333333" stroke="#333333" stroke-width="1.8"/>
</svg>
