<svg width="26" height="22" viewBox="0 0 26 22" fill="none" xmlns="http://www.w3.org/2000/svg">
<path d="M1.33594 11C1.33594 6.87295 1.33594 4.8094 2.5642 3.43172C2.76066 3.21137 2.97718 3.00758 3.21131 2.82269C4.67509 1.66667 6.86759 1.66667 11.2526 1.66667H14.7526C19.1376 1.66667 21.3302 1.66667 22.7939 2.82269C23.028 3.00758 23.2445 3.21137 23.441 3.43172C24.6693 4.8094 24.6693 6.87295 24.6693 11C24.6693 15.1271 24.6693 17.1906 23.441 18.5683C23.2445 18.7887 23.028 18.9924 22.7939 19.1773C21.3302 20.3333 19.1376 20.3333 14.7526 20.3333H11.2526C6.86759 20.3333 4.67509 20.3333 3.21131 19.1773C2.97718 18.9924 2.76066 18.7887 2.5642 18.5683C1.33594 17.1906 1.33594 15.1271 1.33594 11Z" fill="#333333" fill-opacity="0.2" stroke="#333333" stroke-width="1.8" stroke-linecap="round" stroke-linejoin="round"/>
<path d="M10.667 15.6667H12.417" stroke="#333333" stroke-width="1.8" stroke-miterlimit="10" stroke-linecap="round" stroke-linejoin="round"/>
<path d="M15.917 15.6667H20.0003" stroke="#333333" stroke-width="1.8" stroke-miterlimit="10" stroke-linecap="round" stroke-linejoin="round"/>
<path d="M1.33594 7.5H24.6693" stroke="#333333" stroke-width="1.8" stroke-linejoin="round"/>
</svg>
