<svg width="42" height="32" viewBox="0 0 42 32" fill="none" xmlns="http://www.w3.org/2000/svg">
<mask id="mask0_1333_4485" style="mask-type:luminance" maskUnits="userSpaceOnUse" x="0" y="0" width="42" height="32">
<path d="M41.2863 0H0.714844V31.4286H41.2863V0Z" fill="white"/>
</mask>
<g mask="url(#mask0_1333_4485)">
<path d="M8.06856 31.3597V29.2739C8.06856 28.4761 7.58136 27.9536 6.7449 27.9536C6.32667 27.9536 5.87193 28.0913 5.55925 28.5449C5.31565 28.1642 4.96645 27.9536 4.44267 27.9536C4.09347 27.9536 3.74428 28.0589 3.46816 28.4397V28.0225H2.7373V31.3597H3.46816V29.517C3.46816 28.9257 3.78079 28.6462 4.26805 28.6462C4.7553 28.6462 4.9989 28.9581 4.9989 29.517V31.3597H5.72982V29.517C5.72982 28.9257 6.07902 28.6462 6.5297 28.6462C7.01696 28.6462 7.26056 28.9581 7.26056 29.517V31.3597H8.06856ZM18.9098 28.0225H17.7242V27.014H16.9933V28.0225H16.3315V28.6826H16.9933V30.2135C16.9933 30.979 17.306 31.4286 18.1424 31.4286C18.4551 31.4286 18.8043 31.3233 19.0479 31.1856L18.8367 30.5578C18.6256 30.6955 18.382 30.732 18.2074 30.732C17.8582 30.732 17.7201 30.5214 17.7201 30.1771V28.6826H18.9058V28.0225H18.9098ZM25.1141 27.9496C24.6959 27.9496 24.4157 28.1602 24.2411 28.4356V28.0184H23.5103V31.3557H24.2411V29.4765C24.2411 28.9216 24.4847 28.6057 24.9395 28.6057C25.0775 28.6057 25.2522 28.6421 25.3943 28.6745L25.6054 27.9779C25.4592 27.9495 25.2522 27.9496 25.1141 27.9496ZM15.7387 28.2979C15.3895 28.0549 14.9022 27.9496 14.3784 27.9496C13.542 27.9496 12.9857 28.3667 12.9857 29.0269C12.9857 29.5818 13.4039 29.8977 14.1348 29.9989L14.484 30.0354C14.8657 30.1042 15.0768 30.2095 15.0768 30.3837C15.0768 30.6267 14.7967 30.8008 14.3094 30.8008C13.8222 30.8008 13.4364 30.6267 13.1928 30.4525L12.8436 31.0074C13.2253 31.2869 13.7491 31.4245 14.2728 31.4245C15.2474 31.4245 15.8077 30.9709 15.8077 30.3472C15.8077 29.7559 15.3529 29.4441 14.6586 29.3387L14.3094 29.3023C13.9967 29.2658 13.7531 29.197 13.7531 28.9905C13.7531 28.7474 13.9967 28.6097 14.3825 28.6097C14.8007 28.6097 15.2189 28.7839 15.43 28.8892L15.7387 28.2979ZM35.1839 27.9496C34.7656 27.9496 34.4855 28.1602 34.3109 28.4356V28.0184H33.58V31.3557H34.3109V29.4765C34.3109 28.9216 34.5545 28.6057 35.0093 28.6057C35.1473 28.6057 35.3219 28.6421 35.464 28.6745L35.6752 27.986C35.5331 27.9496 35.326 27.9496 35.1839 27.9496ZM25.845 29.6911C25.845 30.6995 26.5434 31.4286 27.6234 31.4286C28.1107 31.4286 28.4599 31.3233 28.8091 31.0479L28.4599 30.4566C28.1797 30.6671 27.9036 30.7684 27.5869 30.7684C26.994 30.7684 26.5758 30.3513 26.5758 29.6911C26.5758 29.0633 26.994 28.6462 27.5869 28.6138C27.8995 28.6138 28.1797 28.7191 28.4599 28.9257L28.8091 28.3343C28.4599 28.0549 28.1107 27.9536 27.6234 27.9536C26.5434 27.9496 25.845 28.6826 25.845 29.6911ZM32.6055 29.6911V28.0225H31.8747V28.4397C31.631 28.1278 31.2818 27.9536 30.8271 27.9536C29.8851 27.9536 29.1542 28.6826 29.1542 29.6911C29.1542 30.6995 29.8851 31.4286 30.8271 31.4286C31.3143 31.4286 31.6635 31.2545 31.8747 30.9426V31.3597H32.6055V29.6911ZM29.9216 29.6911C29.9216 29.0998 30.3033 28.6138 30.9326 28.6138C31.5255 28.6138 31.9437 29.0674 31.9437 29.6911C31.9437 30.2824 31.5255 30.7684 30.9326 30.7684C30.3074 30.732 29.9216 30.2783 29.9216 29.6911ZM21.1755 27.9496C20.201 27.9496 19.5026 28.6462 19.5026 29.687C19.5026 30.732 20.201 31.4245 21.212 31.4245C21.6993 31.4245 22.1866 31.2869 22.5723 30.9709L22.2231 30.4485C21.943 30.6591 21.5938 30.7968 21.2486 30.7968C20.7939 30.7968 20.3431 30.5862 20.2376 29.9989H22.7103C22.7103 29.8936 22.7103 29.8247 22.7103 29.7194C22.7428 28.6462 22.1135 27.9496 21.1755 27.9496ZM21.1755 28.5773C21.6303 28.5773 21.943 28.8568 22.012 29.3752H20.27C20.3391 28.9257 20.6518 28.5773 21.1755 28.5773ZM39.3336 29.6911V26.7022H38.6027V28.4397C38.3591 28.1278 38.0099 27.9536 37.5551 27.9536C36.6131 27.9536 35.8823 28.6826 35.8823 29.6911C35.8823 30.6995 36.6131 31.4286 37.5551 31.4286C38.0424 31.4286 38.3916 31.2545 38.6027 30.9426V31.3597H39.3336V29.6911ZM36.6497 29.6911C36.6497 29.0998 37.0314 28.6138 37.6607 28.6138C38.2535 28.6138 38.6718 29.0674 38.6718 29.6911C38.6718 30.2824 38.2535 30.7684 37.6607 30.7684C37.0314 30.732 36.6497 30.2783 36.6497 29.6911ZM12.1818 29.6911V28.0225H11.4509V28.4397C11.2072 28.1278 10.858 27.9536 10.4033 27.9536C9.4613 27.9536 8.73045 28.6826 8.73045 29.6911C8.73045 30.6995 9.4613 31.4286 10.4033 31.4286C10.8906 31.4286 11.2398 31.2545 11.4509 30.9426V31.3597H12.1818V29.6911ZM9.46536 29.6911C9.46536 29.0998 9.84702 28.6138 10.4764 28.6138C11.0692 28.6138 11.4874 29.0674 11.4874 29.6911C11.4874 30.2824 11.0692 30.7684 10.4764 30.7684C9.84702 30.732 9.46536 30.2783 9.46536 29.6911Z" fill="black"/>
<path d="M26.4744 2.67709H15.4951V22.3524H26.4744V2.67709Z" fill="#FF5A00"/>
<path d="M16.2255 12.5147C16.2255 8.51731 18.1096 4.96943 21.0006 2.67709C18.8729 1.00847 16.189 0 13.2615 0C6.32633 0 0.714844 5.5972 0.714844 12.5147C0.714844 19.4322 6.32633 25.0294 13.2615 25.0294C16.189 25.0294 18.8729 24.021 21.0006 22.3523C18.1055 20.0924 16.2255 16.5122 16.2255 12.5147Z" fill="#EB001B"/>
<path d="M41.2867 12.5147C41.2867 19.4322 35.6752 25.0294 28.7401 25.0294C25.8125 25.0294 23.1286 24.021 21.001 22.3523C23.9285 20.0559 25.776 16.5122 25.776 12.5147C25.776 8.51731 23.8919 4.96943 21.001 2.67709C23.1246 1.00847 25.8085 0 28.736 0C35.6752 0 41.2867 5.63366 41.2867 12.5147Z" fill="#F79E1B"/>
</g>
</svg>
