<svg width="59" height="16" viewBox="0 0 59 16" fill="none" xmlns="http://www.w3.org/2000/svg">
<path d="M0.664062 0.390453H6.08549C6.57835 0.390453 8.05692 0.228567 8.71406 2.49525C9.20692 3.9524 9.86406 6.21903 10.8498 9.61903H11.1783C12.1641 6.05714 12.9855 3.62857 13.3141 2.49525C13.9712 0.228567 15.6141 0.390453 16.2712 0.390453H21.3641V15.9333H16.1069V6.70474H15.7783L12.9855 15.9333H9.04263L6.24978 6.70474H5.75692V15.9333H0.664062M23.4998 0.390453H28.7569V9.61903H29.2498L32.6998 2.00954C33.3569 0.552396 34.8355 0.390453 34.8355 0.390453H39.7641V15.9333H34.5069V6.70474H34.1783L30.7283 14.3143C30.0712 15.7714 28.4283 15.9333 28.4283 15.9333H23.4998M46.8284 11.2381V15.9333H41.8998V7.83811H57.9997C57.3426 9.78097 55.0426 11.2381 52.414 11.2381" fill="#0F754E"/>
<path d="M58.3284 6.86669C58.9856 3.9524 57.0141 0.390457 52.7427 0.390457H41.5713C41.8999 3.79046 44.857 6.86669 47.9784 6.86669" fill="url(#paint0_linear_3002_3077)"/>
<defs>
<linearGradient id="paint0_linear_3002_3077" x1="56.357" y1="-1.71429" x2="43.2141" y2="-1.71429" gradientUnits="userSpaceOnUse">
<stop stop-color="#1F5CD7"/>
<stop offset="1" stop-color="#02AEFF"/>
</linearGradient>
</defs>
</svg>
