<svg width="58" height="30" viewBox="0 0 58 30" fill="none" xmlns="http://www.w3.org/2000/svg">
<mask id="mask0_1333_4500" style="mask-type:luminance" maskUnits="userSpaceOnUse" x="0" y="0" width="58" height="30">
<path d="M58.0003 0.714279H0.857422V29.2857H58.0003V0.714279Z" fill="white"/>
</mask>
<g mask="url(#mask0_1333_4500)">
<path d="M0.857422 6.93359L4.31742 13.1181V16.8905L0.861479 23.0629L0.857422 6.93359Z" fill="#5B57A2"/>
<path d="M14.1426 10.8672L17.3847 8.88006L24.0199 8.87389L14.1426 14.9249V10.8672Z" fill="#D90751"/>
<path d="M14.1246 6.89691L14.1429 15.085L10.6748 12.9541V0.714279L14.1246 6.89691Z" fill="#FAB718"/>
<path d="M24.0202 8.87405L17.3848 8.88022L14.1246 6.89691L10.6748 0.714279L24.0202 8.87405Z" fill="#ED6F26"/>
<path d="M14.1429 23.0971V19.1245L10.6748 17.0341L10.6767 29.2859L14.1429 23.0971Z" fill="#63B22F"/>
<path d="M17.3764 21.1281L4.31719 13.1181L0.857422 6.93359L24.0057 21.12L17.3764 21.1281Z" fill="#1487C9"/>
<path d="M10.6768 29.2859L14.1425 23.0971L17.3765 21.1281L24.0058 21.12L10.6768 29.2859Z" fill="#017F36"/>
<path d="M0.861328 23.0624L10.7025 17.0339L7.39396 15.0039L4.31727 16.8901L0.861328 23.0624Z" fill="#984995"/>
<path fill-rule="evenodd" clip-rule="evenodd" d="M38.6872 15.9709C40.92 15.9709 42.5781 14.6019 42.5781 12.5265C42.5781 10.5175 41.3548 9.21337 39.3103 9.21337C38.3667 9.21337 37.588 9.54537 37.0016 10.1185C37.1416 8.93411 38.1433 8.06914 39.2461 8.06914C39.5007 8.06914 41.4169 8.0652 41.4169 8.0652L42.5005 5.99165C42.5005 5.99165 40.0948 6.04651 38.9764 6.04651C36.4212 6.09091 34.6953 8.41348 34.6953 11.2343C34.6953 14.521 36.3786 15.9709 38.6872 15.9709ZM38.7008 11.05C39.5298 11.05 40.1045 11.5947 40.1045 12.5262C40.1045 13.3645 39.5938 14.0553 38.7008 14.0571C37.8464 14.0571 37.2716 13.417 37.2716 12.5404C37.2716 11.6087 37.8464 11.05 38.7008 11.05ZM51.1997 8.736V15.7212H48.7056V10.8212H46.304V15.7212H43.8097V8.73554L51.1997 8.736ZM31.1961 13.7865C32.076 13.7223 32.6649 13.3826 32.6649 13.3826L33.588 15.0904C32.9968 15.4701 32.0269 15.717 31.3238 15.7431C28.8084 15.7893 27.0586 14.2587 27.0586 12.0286C27.0586 9.82674 28.9202 8.2596 31.3238 8.2596C32.2762 8.2596 33.095 8.51508 33.7097 8.98108C33.5804 9.21034 33.4044 9.52794 33.2372 9.83183L32.9696 10.3197L32.726 10.7651C32.726 10.7651 31.8403 10.301 31.1707 10.301C30.0788 10.301 29.2836 10.9356 29.2836 12.0426C29.2836 13.1777 30.1847 13.8165 31.1961 13.7865ZM29.2843 20.4222C29.2081 20.5194 29.108 20.5929 28.9877 20.6424C28.8643 20.6926 28.7323 20.7182 28.5991 20.7175C28.4667 20.7193 28.3349 20.6973 28.2103 20.6524C28.0983 20.6117 27.9961 20.5482 27.9098 20.4661C27.8247 20.3838 27.7579 20.2845 27.7137 20.1746C27.6658 20.0543 27.6419 19.9258 27.6434 19.7962C27.6434 19.6677 27.6655 19.5486 27.7114 19.4359C27.7555 19.3229 27.8196 19.2259 27.8998 19.1445C27.9362 19.1069 27.9759 19.0731 28.0184 19.0429L28.0444 19.0253C28.0717 19.0073 28.1003 18.9906 28.1297 18.9753L28.1615 18.9594L28.1844 18.9485C28.2946 18.9009 28.4148 18.875 28.5469 18.875C28.6892 18.875 28.8215 18.8929 28.9416 18.9285C29.0176 18.9509 29.0862 18.9827 29.1476 19.0241C29.1836 19.0485 29.2171 19.0762 29.2481 19.1071L29.102 19.3547C29.0312 19.2905 28.948 19.2419 28.8574 19.2117C28.7714 19.1841 28.6814 19.1701 28.5911 19.1703C28.511 19.1703 28.4348 19.1861 28.3608 19.2159C28.2879 19.2452 28.2212 19.2882 28.1644 19.3429C28.1063 19.3986 28.0606 19.4663 28.03 19.541C27.9961 19.6179 27.98 19.7033 27.98 19.7983C27.98 19.8953 27.9979 19.9825 28.032 20.0578C28.0663 20.135 28.1122 20.2006 28.1703 20.2559C28.2284 20.3115 28.2965 20.3529 28.3746 20.3808C28.4065 20.3929 28.439 20.4024 28.4723 20.4094C28.5207 20.4196 28.5709 20.4245 28.6231 20.4245C28.7312 20.4245 28.8296 20.4024 28.9136 20.3608C28.9577 20.3394 28.9995 20.3138 29.0383 20.2843C29.0727 20.2581 29.1048 20.2287 29.134 20.1966L29.2843 20.4222ZM29.697 20.6759V18.9127H30.0136V20.2264L31.0434 18.9127H31.3601V20.6761H31.0434V19.3626L30.0136 20.6761L29.697 20.6759ZM33.4577 20.4222C33.3798 20.5203 33.2776 20.5961 33.1612 20.6424C33.0905 20.671 33.017 20.6917 32.942 20.704C32.8861 20.7131 32.8293 20.7177 32.7724 20.7175C32.7193 20.7182 32.6663 20.7151 32.6138 20.7082C32.5355 20.6979 32.4584 20.6794 32.3838 20.6524C32.3582 20.6431 32.3331 20.6326 32.3086 20.621C32.2789 20.6068 32.2501 20.591 32.2222 20.5738C32.1725 20.5429 32.1258 20.5068 32.0832 20.4661C31.9979 20.3838 31.9312 20.2845 31.8869 20.1746C31.8392 20.0543 31.8152 19.9258 31.8168 19.7962C31.8168 19.6677 31.8388 19.5486 31.8848 19.4359C31.9291 19.3229 31.9931 19.2259 32.0732 19.1445C32.1535 19.0613 32.2496 18.9981 32.3577 18.9485C32.4719 18.8983 32.5956 18.8732 32.7203 18.875C32.8031 18.875 32.8822 18.8811 32.9576 18.8931L33.0019 18.9009C33.0187 18.9041 33.0353 18.9078 33.0517 18.9118L33.0809 18.919L33.1151 18.9285C33.2353 18.9641 33.3373 19.0236 33.4216 19.1071L33.2753 19.3547C33.2047 19.2905 33.1215 19.2419 33.0311 19.2117C33.0093 19.2047 32.9873 19.1985 32.9651 19.1931C32.9499 19.1896 32.9345 19.1866 32.9191 19.1838C32.9045 19.1813 32.8898 19.1789 32.8752 19.1771L32.8429 19.1736C32.8169 19.1713 32.7908 19.1701 32.7646 19.1703C32.6055 19.1708 32.4525 19.2326 32.3377 19.3429C32.3228 19.3575 32.3088 19.3726 32.2955 19.3887C32.2798 19.4075 32.2653 19.4275 32.252 19.4482C32.2332 19.4777 32.2168 19.5086 32.2033 19.541C32.1959 19.5577 32.1894 19.5749 32.1838 19.5926C32.1772 19.6128 32.1717 19.6335 32.1673 19.6546C32.158 19.7 32.1534 19.7477 32.1534 19.7983C32.1534 19.8442 32.1574 19.8877 32.1652 19.9288C32.1698 19.9532 32.1757 19.9765 32.1829 19.999C32.1894 20.0195 32.197 20.039 32.2055 20.0578C32.2269 20.1067 32.2533 20.1509 32.2843 20.1906C32.3025 20.2138 32.3222 20.2355 32.3436 20.2559C32.4017 20.3115 32.4701 20.3529 32.5481 20.3808C32.6263 20.4085 32.7084 20.4245 32.7964 20.4245C32.8333 20.4245 32.8689 20.4219 32.9032 20.4169C32.9693 20.4073 33.0303 20.3882 33.0869 20.3608C33.1701 20.3206 33.245 20.2648 33.3073 20.1966L33.4577 20.4222ZM33.622 18.9127H35.2448V19.2259H34.5917V20.6759H34.2751V19.2259H33.622V18.9127ZM37.034 20.4838C36.9459 20.5629 36.8439 20.6205 36.7235 20.6582C36.6076 20.6956 36.4866 20.7149 36.3649 20.7156C36.3161 20.7163 36.2674 20.7138 36.219 20.7082C36.1343 20.6982 36.0508 20.6789 35.9702 20.6503C35.8519 20.6068 35.752 20.5452 35.6697 20.4641C35.5858 20.3817 35.5203 20.2825 35.4773 20.1729C35.4333 20.0599 35.4092 19.9332 35.4092 19.7944C35.408 19.6714 35.4291 19.5493 35.4714 19.434C35.5099 19.3254 35.5706 19.2263 35.6495 19.1426C35.6872 19.1038 35.7283 19.0685 35.7724 19.0373C35.8234 19.0013 35.8783 18.9708 35.9362 18.9464C36.0023 18.919 36.0737 18.8987 36.1511 18.8867C36.2072 18.8778 36.2664 18.8732 36.3288 18.8732C36.3656 18.8729 36.4022 18.875 36.4383 18.8794C36.4711 18.8834 36.5036 18.8892 36.5357 18.8966C36.5749 18.9059 36.6136 18.9181 36.6514 18.9327C36.7497 18.9692 36.8396 19.025 36.9159 19.0971C36.9355 19.1159 36.9538 19.1354 36.9711 19.1561C36.9854 19.1731 36.999 19.1906 37.0117 19.2087C37.0314 19.2363 37.0494 19.2657 37.0652 19.2957C37.0749 19.3142 37.0839 19.3333 37.0921 19.3526C37.1103 19.3935 37.1247 19.4361 37.1354 19.4805C37.1507 19.5435 37.1583 19.6105 37.1583 19.6816C37.1583 19.7628 37.1524 19.8321 37.1383 19.8934H35.7678C35.7819 20.0602 35.844 20.1906 35.9581 20.2838C36.0724 20.3771 36.2166 20.4224 36.3909 20.4224C36.4503 20.4224 36.5072 20.4178 36.561 20.4085C36.6125 20.3997 36.6614 20.3866 36.7076 20.3691C36.8016 20.3334 36.8797 20.2899 36.9379 20.2383L37.034 20.4838ZM36.3148 19.1685C36.1505 19.1685 36.0202 19.2119 35.9221 19.301C35.825 19.3887 35.7632 19.5084 35.7478 19.6379H36.8297C36.8216 19.4914 36.7739 19.3766 36.6835 19.2933C36.6685 19.2794 36.6526 19.2668 36.6358 19.2554C36.62 19.2445 36.6034 19.2347 36.586 19.2259C36.5728 19.2191 36.5591 19.2131 36.5449 19.2075C36.4781 19.1815 36.4011 19.1685 36.3148 19.1685ZM37.5891 18.9127H37.8776L38.5628 19.7865L39.2119 18.9127H39.4924V20.6761H39.176V19.3903L38.5588 20.2085H38.5466L37.9057 19.3901V20.6759H37.5891V18.9127ZM40.2154 18.9659C40.2603 18.9469 40.3065 18.9311 40.3537 18.9187C40.4559 18.8911 40.5621 18.8753 40.6745 18.8753C40.7839 18.8753 40.8793 18.8871 40.9606 18.9109C41.0149 18.9266 41.0629 18.9478 41.1044 18.9741C41.144 18.999 41.1778 19.0287 41.2055 19.0634C41.2501 19.118 41.2847 19.1829 41.3096 19.2578C41.3416 19.3542 41.3574 19.4673 41.3574 19.5965V20.6782H41.0611V20.4503C41.0089 20.5178 40.9369 20.577 40.8466 20.6287C40.7566 20.6801 40.6383 20.7058 40.49 20.7058C40.3826 20.7058 40.289 20.6856 40.2091 20.6451C40.1917 20.6363 40.1749 20.6266 40.1587 20.6159C40.1478 20.6085 40.1371 20.6005 40.1268 20.5924C40.1153 20.5833 40.1041 20.5735 40.0933 20.5633C39.9932 20.4682 39.943 20.3334 39.943 20.1611C39.9421 20.0781 39.9599 19.9962 39.9952 19.9211C40.0283 19.8527 40.0761 19.7925 40.1354 19.7451C40.1936 19.6974 40.2656 19.6617 40.3497 19.6379C40.3663 19.6333 40.3831 19.6289 40.4001 19.6249L40.4257 19.6193L40.4544 19.6142C40.5065 19.6051 40.5604 19.6002 40.6164 19.6002C40.6931 19.6012 40.7694 19.6091 40.8446 19.6242C40.9224 19.6377 40.9962 19.6681 41.0611 19.7135C41.0611 19.6783 41.0604 19.6444 41.0588 19.6117L41.0556 19.5635C41.0535 19.5375 41.0507 19.5121 41.0471 19.4875C41.0371 19.4182 41.019 19.3589 40.9909 19.3113C40.9777 19.2889 40.9619 19.2682 40.9432 19.2501C40.9345 19.2415 40.9253 19.2333 40.9153 19.2259C40.9085 19.221 40.9015 19.2161 40.894 19.2117C40.886 19.2069 40.8776 19.2024 40.8687 19.1982C40.8146 19.1706 40.7445 19.1564 40.6564 19.1564C40.5461 19.1564 40.454 19.1685 40.3819 19.1943L40.3435 19.2085L40.311 19.2208L40.2731 19.2363C40.2372 19.2515 40.2013 19.2678 40.1654 19.2854L40.0813 19.0355C40.1242 19.009 40.1691 18.9857 40.2154 18.9659ZM40.6005 20.4224C40.7166 20.4224 40.8108 20.3989 40.883 20.3473C40.948 20.3041 41.0073 20.2527 41.0592 20.1946V19.9706C41.0242 19.9455 40.9869 19.9246 40.9472 19.9077C40.9251 19.8981 40.9021 19.8899 40.8785 19.8832C40.8621 19.8786 40.8453 19.8744 40.8282 19.8707C40.8087 19.8665 40.7888 19.8632 40.7683 19.8607C40.7331 19.8562 40.6965 19.8539 40.6586 19.8539C40.6104 19.8539 40.5645 19.8597 40.5183 19.8716C40.4953 19.8771 40.4731 19.8849 40.4516 19.8946C40.4325 19.9032 40.4139 19.9134 40.3962 19.9253C40.3621 19.949 40.3321 19.9788 40.3099 20.0165L40.3053 20.0246C40.302 20.0309 40.2989 20.0371 40.2962 20.0437C40.2932 20.0509 40.2908 20.0583 40.2885 20.066C40.2864 20.073 40.2847 20.0802 40.2832 20.0876C40.2796 20.1055 40.2779 20.1246 40.2779 20.145C40.2779 20.2283 40.3059 20.2957 40.3621 20.3471C40.3944 20.3757 40.4347 20.3964 40.4828 20.4087C40.5178 20.4178 40.5572 20.4224 40.6005 20.4224ZM44.3329 18.1403C44.2768 18.2135 44.2168 18.263 44.1528 18.2926C44.0885 18.3223 44.0185 18.3423 43.9423 18.3582C43.8851 18.37 43.8254 18.3809 43.7627 18.3923L43.7 18.4039C43.605 18.4214 43.5127 18.4514 43.4254 18.493C43.3923 18.5072 43.3605 18.5244 43.3307 18.5442C43.3092 18.5583 43.2888 18.5737 43.2694 18.5905L43.246 18.6116L43.2317 18.6258L43.2171 18.6414C43.2063 18.6542 43.1957 18.6671 43.1857 18.6804C43.1657 18.7067 43.1474 18.7339 43.1307 18.7623C43.1138 18.7909 43.0986 18.8206 43.085 18.8515C43.0507 18.9285 43.0248 19.0101 43.0066 19.0952C42.9887 19.1806 42.9787 19.2635 42.9725 19.3447H42.9806C43.0086 19.2815 43.0486 19.2259 43.0968 19.1761C43.146 19.1259 43.2019 19.0827 43.2631 19.0475C43.2764 19.0399 43.2899 19.0325 43.3036 19.0253C43.319 19.0173 43.3348 19.0099 43.3508 19.0029C43.3873 18.9869 43.4249 18.9734 43.4634 18.9625C43.5357 18.9427 43.6097 18.9327 43.6858 18.9327C43.7602 18.9318 43.8343 18.9399 43.9064 18.9569C43.9485 18.9669 43.9898 18.9799 44.0303 18.9959C44.13 19.0355 44.2196 19.0966 44.2929 19.1745C44.3662 19.2541 44.4222 19.3477 44.4572 19.4498C44.4953 19.557 44.5153 19.6777 44.5153 19.8102C44.5153 19.9332 44.4933 20.0499 44.4473 20.159C44.4284 20.2059 44.4055 20.2508 44.3792 20.2931C44.3447 20.3489 44.3044 20.4001 44.2589 20.4463C44.1766 20.5301 44.0785 20.5966 43.9704 20.6424C43.8583 20.6901 43.734 20.7158 43.5998 20.7158C43.4535 20.7158 43.3233 20.6901 43.2071 20.6386C43.0909 20.5873 42.9925 20.5157 42.9105 20.4206C42.8283 20.3273 42.7664 20.2127 42.7221 20.0757C42.678 19.939 42.6561 19.7867 42.6561 19.6182C42.6561 19.4875 42.664 19.351 42.6802 19.2082C42.6959 19.0682 42.7275 18.9309 42.7743 18.7981C42.8204 18.6671 42.8885 18.5483 42.9747 18.4435C43.0609 18.3384 43.175 18.2554 43.3174 18.1938L43.3484 18.1803C43.3636 18.174 43.379 18.1679 43.3945 18.1624C43.4226 18.1522 43.4509 18.1429 43.4796 18.1345C43.4968 18.1296 43.5142 18.1249 43.5316 18.1207C43.5535 18.1154 43.5756 18.1107 43.5978 18.1068L43.7075 18.0879L43.7661 18.0777L43.8261 18.067C43.8613 18.061 43.8962 18.0529 43.9305 18.0426C43.9574 18.0347 43.9841 18.0257 44.0104 18.0154C44.0249 18.0098 44.0391 18.0026 44.0528 17.9945L44.0707 17.9829C44.103 17.9603 44.133 17.9301 44.1607 17.8927L44.3329 18.1403ZM42.9948 19.6777C42.9929 19.7823 43.0077 19.8867 43.0386 19.9867C43.0652 20.0713 43.1065 20.1504 43.1608 20.2206C43.2127 20.2834 43.2777 20.3341 43.3513 20.3691C43.4254 20.4047 43.5057 20.4226 43.5937 20.4226C43.6603 20.4226 43.7215 20.4136 43.7785 20.3952L43.7992 20.3882C43.8103 20.3843 43.8213 20.3799 43.8323 20.375C43.9016 20.3457 43.9643 20.3025 44.0165 20.2485C44.0689 20.1943 44.1097 20.1302 44.1368 20.0599C44.1646 19.9888 44.1809 19.9114 44.1809 19.8262C44.1809 19.6539 44.1328 19.5112 44.0344 19.3966C44.0015 19.3585 43.9639 19.3268 43.9212 19.3015C43.8863 19.2805 43.8479 19.2641 43.8061 19.2517C43.7474 19.2345 43.6821 19.2259 43.6098 19.2259C43.4603 19.2247 43.3146 19.2743 43.197 19.3666C43.1449 19.4084 43.1009 19.4558 43.0668 19.5093C43.055 19.527 43.0443 19.5454 43.0349 19.5645C43.0273 19.5798 43.0205 19.5954 43.0145 19.6112C43.0064 19.6328 42.9998 19.6551 42.9948 19.6777ZM46.6271 18.9129H46.9437V20.6763H46.6271V18.9129ZM45.2887 18.9129H44.972H44.9702V20.6782H45.5452C45.574 20.6782 45.6017 20.6773 45.6285 20.6756C45.6453 20.6747 45.6617 20.6733 45.6777 20.6717C45.6922 20.6703 45.7064 20.6686 45.7202 20.6666C45.7859 20.6573 45.8448 20.6424 45.8979 20.6229C45.9201 20.6145 45.9415 20.6057 45.9617 20.5961L45.9875 20.5831L46.008 20.5722C46.0225 20.5638 46.0362 20.555 46.0494 20.5457C46.0578 20.5398 46.066 20.5338 46.0739 20.5278C46.0836 20.5201 46.0929 20.5122 46.1019 20.5041C46.1104 20.4963 46.1184 20.4882 46.1261 20.4801C46.1822 20.4206 46.2245 20.3552 46.2486 20.2801C46.2639 20.2355 46.2745 20.1909 46.2804 20.1455C46.2846 20.1141 46.2865 20.0822 46.2865 20.0499C46.2865 20.033 46.286 20.0162 46.2849 19.9995C46.2839 19.9848 46.2825 19.9704 46.2807 19.956C46.2752 19.9104 46.2656 19.866 46.2525 19.8221C46.2304 19.749 46.1923 19.6837 46.1383 19.6282C46.0842 19.5726 46.0121 19.5273 45.9219 19.4933C45.8316 19.4598 45.7194 19.4419 45.5813 19.4419H45.2887V18.9129ZM45.5191 20.3829H45.2887V19.737V19.7328H45.5232C45.5527 19.7328 45.5806 19.7337 45.607 19.7358C45.6474 19.739 45.6841 19.7449 45.7171 19.753C45.7418 19.759 45.7644 19.7667 45.7848 19.7755C45.8108 19.787 45.8331 19.8005 45.8519 19.8162C45.8732 19.8349 45.891 19.856 45.9054 19.8802C45.9214 19.9067 45.9332 19.9367 45.9405 19.9699C45.9467 19.9976 45.9499 20.0276 45.9499 20.0599C45.9499 20.165 45.918 20.2441 45.8537 20.2997C45.8257 20.3238 45.7887 20.3429 45.7425 20.3566C45.683 20.3741 45.6083 20.3829 45.5191 20.3829ZM49.0376 20.4222C48.9614 20.5194 48.8612 20.5929 48.741 20.6424C48.6176 20.6923 48.4856 20.7179 48.3524 20.7175C48.22 20.7193 48.0882 20.6973 47.9636 20.6524C47.8516 20.6117 47.7493 20.5482 47.6631 20.4661C47.6304 20.4345 47.6004 20.4003 47.5733 20.3641L47.5513 20.3331C47.5434 20.3215 47.5358 20.3097 47.5285 20.2975L47.5184 20.2806C47.5118 20.2692 47.5056 20.2575 47.4995 20.2457C47.4914 20.2301 47.4836 20.2143 47.4764 20.1981L47.4667 20.1746C47.419 20.0543 47.3952 19.9258 47.3968 19.7962C47.3968 19.6677 47.4185 19.5486 47.4647 19.4359C47.5088 19.3229 47.5729 19.2259 47.6531 19.1445C47.7333 19.0613 47.8293 18.9981 47.9377 18.9485C48.0519 18.8983 48.1756 18.8732 48.3003 18.875C48.4424 18.875 48.5747 18.8929 48.6949 18.9285C48.8153 18.9641 48.9173 19.0236 49.0014 19.1071L48.8553 19.3547C48.8257 19.3277 48.7937 19.3035 48.76 19.2824C48.7434 19.2719 48.7263 19.2622 48.7088 19.2531C48.695 19.2461 48.6811 19.2396 48.6668 19.2333L48.6401 19.2224L48.6106 19.2117C48.5246 19.1841 48.4347 19.1701 48.3444 19.1703C48.3121 19.1703 48.2805 19.1729 48.2493 19.1778C48.2032 19.1852 48.1582 19.1982 48.1138 19.2159C48.0409 19.2452 47.9742 19.2885 47.9176 19.3429C47.899 19.361 47.8817 19.3803 47.8659 19.4005L47.8519 19.4189C47.8244 19.4568 47.8014 19.4977 47.7833 19.541C47.7493 19.6179 47.7332 19.7033 47.7332 19.7983C47.7332 19.8953 47.7512 19.9825 47.7853 20.0578C47.8193 20.135 47.8654 20.2006 47.9236 20.2559C47.9816 20.3115 48.0497 20.3529 48.1278 20.3808C48.2062 20.4085 48.2883 20.4245 48.3764 20.4245C48.4416 20.4245 48.5022 20.4166 48.559 20.401C48.5733 20.3971 48.5875 20.3926 48.6013 20.3878C48.6239 20.3801 48.6457 20.371 48.6669 20.3608C48.7502 20.3206 48.825 20.2648 48.8873 20.1966L49.0376 20.4222ZM49.2018 18.9127H50.8248V19.2259H50.1717V20.6759H49.8551V19.2259H49.2018V18.9127ZM51.1694 18.9131H51.486V19.121C51.546 19.0494 51.6323 18.9925 51.7425 18.9448C51.8528 18.8971 51.9688 18.8734 52.0928 18.8734C52.1128 18.8729 52.1328 18.8734 52.1528 18.8746C52.1934 18.8769 52.2334 18.882 52.2728 18.8899C52.3282 18.9011 52.3831 18.9181 52.4357 18.9406C52.5345 18.982 52.6231 19.045 52.694 19.125C52.7665 19.2071 52.8225 19.3026 52.8585 19.4061C52.8768 19.4591 52.8911 19.5147 52.9008 19.573C52.9111 19.6349 52.9162 19.6995 52.9162 19.767C52.9162 19.8995 52.8945 20.0246 52.85 20.1411C52.806 20.2581 52.7437 20.3571 52.662 20.4426C52.5785 20.5278 52.4791 20.5957 52.3694 20.6426C52.2551 20.6901 52.1288 20.7156 51.9888 20.7156C51.8945 20.7156 51.8025 20.7058 51.7145 20.6861C51.626 20.6663 51.55 20.6366 51.486 20.595V21.4606H51.1694V18.9131ZM52.0008 19.1685C51.8945 19.1685 51.7968 19.1924 51.7065 19.2401C51.6162 19.2875 51.542 19.345 51.486 19.4121V20.2859C51.558 20.3341 51.6368 20.3703 51.7203 20.3931C51.7968 20.4129 51.8768 20.4226 51.9631 20.4226C52.0517 20.4243 52.1397 20.4073 52.2214 20.3731C52.2945 20.3431 52.3608 20.2978 52.4157 20.2403C52.47 20.1822 52.5117 20.1134 52.538 20.0383C52.566 19.959 52.582 19.8739 52.582 19.7788C52.582 19.7588 52.5814 19.739 52.5802 19.7198L52.5774 19.6883L52.5751 19.6661L52.5717 19.643L52.5677 19.6209L52.562 19.5951C52.5568 19.5739 52.5511 19.5533 52.5443 19.533C52.5197 19.4579 52.482 19.3945 52.4317 19.3389C52.3814 19.2835 52.3214 19.2419 52.2494 19.2122C52.1751 19.1824 52.0928 19.1685 52.0008 19.1685ZM55.0283 18.9129H55.3448V20.6761H55.0283V18.9129ZM53.6877 18.9129H53.3711H53.3694V20.6779H53.9443C54.0842 20.6779 54.2008 20.6582 54.2968 20.6229C54.3928 20.587 54.4694 20.5396 54.5254 20.4801C54.5814 20.4206 54.6237 20.3552 54.6477 20.2799C54.6734 20.2048 54.6854 20.1292 54.6854 20.0499C54.6854 19.9706 54.6734 19.8955 54.6517 19.8221C54.6294 19.749 54.5917 19.6835 54.5374 19.6282C54.4831 19.5726 54.4111 19.527 54.3208 19.4933C54.2305 19.4598 54.1185 19.4419 53.9802 19.4419H53.6877V18.9129ZM53.9202 20.3829H53.69V19.737V19.7328H53.9242C54.0768 19.7328 54.1871 19.7607 54.2528 19.8162C54.3174 19.8718 54.3511 19.9527 54.3511 20.0599C54.3511 20.165 54.3191 20.2441 54.2551 20.2994C54.1911 20.3552 54.0785 20.3829 53.9202 20.3829ZM56.8637 19.7628L57.5408 20.6761H57.1522L56.6288 19.9627L56.098 20.6761H55.7294L56.4025 19.7783L55.7694 18.9127H56.1585L56.6414 19.5784L57.1317 18.9127H57.5008L56.8637 19.7628ZM29.0501 22.8552H28.0784V24.3254H27.7617V22.5622H29.3665V24.3254H29.0501V22.8552ZM31.1636 22.875H30.5386L30.5184 23.1721C30.5045 23.3305 30.4876 23.469 30.4664 23.5886C30.4539 23.659 30.4399 23.723 30.4243 23.7804C30.3821 23.935 30.33 24.0538 30.27 24.1371C30.21 24.2203 30.1397 24.2777 30.0595 24.3057C29.9767 24.3357 29.8892 24.3503 29.8012 24.3491L29.7771 24.0438C29.8112 24.0457 29.8512 24.038 29.8952 24.0182C29.9396 23.9985 29.9836 23.9548 30.0254 23.8897C30.0677 23.822 30.1057 23.7269 30.1397 23.6042C30.1737 23.4793 30.196 23.317 30.2078 23.1126L30.2401 22.5639H31.4802V24.3273H31.1636V22.875ZM32.061 22.6829C32.1392 22.6334 32.2314 22.5939 32.3337 22.5662C32.4381 22.5374 32.5459 22.5227 32.6543 22.5227C32.9067 22.5227 33.085 22.5857 33.1852 22.7108C33.2873 22.8357 33.3376 23.014 33.3376 23.2438V24.3254H33.0409V24.0975C32.9887 24.165 32.9166 24.2245 32.8266 24.2759C32.7364 24.3275 32.6184 24.3533 32.47 24.3533C32.3057 24.3533 32.1732 24.3057 32.0733 24.2106C32.0183 24.1587 31.9785 24.0947 31.9536 24.0192C31.9332 23.9566 31.9229 23.8864 31.9229 23.8085C31.9228 23.796 31.923 23.7834 31.9237 23.7709C31.9253 23.7432 31.9289 23.716 31.9347 23.6893C31.9433 23.6476 31.9568 23.6071 31.9749 23.5686C32.0079 23.5002 32.0558 23.44 32.1151 23.3926C32.1468 23.3665 32.1825 23.3442 32.222 23.3254C32.2553 23.3095 32.2912 23.2963 32.3297 23.2854C32.4137 23.2614 32.5021 23.2477 32.5961 23.2477C32.6729 23.2486 32.7492 23.2565 32.8245 23.2714C32.8533 23.2765 32.8816 23.284 32.909 23.2935C32.9557 23.3098 33.0001 23.3323 33.0409 23.3605C33.0409 23.2793 33.0369 23.2042 33.0269 23.1347C33.0215 23.0979 33.014 23.064 33.0039 23.0331C32.9986 23.0173 32.9928 23.0022 32.9863 22.988C32.9815 22.9778 32.9764 22.9678 32.9709 22.9585C32.9428 22.9108 32.9028 22.8713 32.8485 22.8454C32.8133 22.8275 32.7715 22.8152 32.722 22.809L32.6978 22.8064C32.6783 22.8047 32.6577 22.8038 32.6361 22.8038C32.5261 22.8038 32.4337 22.8159 32.3616 22.8415C32.3407 22.8489 32.3197 22.8569 32.2988 22.865C32.2478 22.885 32.1966 22.9073 32.1454 22.9326L32.061 22.6829ZM32.5823 24.0699C32.6549 24.0699 32.7189 24.0606 32.7743 24.041C32.8076 24.0292 32.8377 24.0138 32.8647 23.9943C32.9297 23.9513 32.9891 23.8999 33.0412 23.8418V23.6179C32.9309 23.5388 32.7965 23.5014 32.6404 23.5014C32.6222 23.5014 32.6039 23.5021 32.5858 23.5037C32.5569 23.5065 32.5284 23.5116 32.5002 23.5188C32.454 23.5309 32.412 23.5486 32.378 23.5725C32.3439 23.5962 32.3137 23.626 32.2919 23.6637C32.2696 23.7013 32.2596 23.743 32.2596 23.7925C32.2596 23.8755 32.2878 23.9429 32.344 23.9943C32.4 24.0441 32.478 24.0699 32.5823 24.0699ZM33.65 22.5622H35.2729V22.8752H34.6196V24.3254H34.3032V22.8754H33.65V22.5622ZM36.8947 24.2489C36.85 24.2722 36.8024 24.2917 36.7516 24.3075C36.6314 24.3452 36.5112 24.3651 36.3928 24.3651C36.2584 24.3668 36.1249 24.3447 35.9983 24.2996C35.8801 24.2561 35.7797 24.1945 35.6976 24.1134C35.6154 24.0322 35.5495 23.935 35.5052 23.8222C35.4612 23.709 35.4371 23.5825 35.4371 23.4437C35.4361 23.3207 35.4571 23.1986 35.4993 23.0831C35.5173 23.0326 35.5401 22.9843 35.5673 22.9385C35.5985 22.8859 35.6355 22.8366 35.6777 22.792C35.7589 22.7078 35.8564 22.6411 35.9643 22.5957C36.0783 22.5481 36.2085 22.5225 36.3569 22.5225C36.4672 22.5218 36.5766 22.542 36.6796 22.582C36.7778 22.6185 36.8676 22.6746 36.9437 22.7464C37.0192 22.819 37.0792 22.9059 37.1202 23.0019C37.1643 23.101 37.1864 23.2101 37.1864 23.3307C37.1864 23.4121 37.1802 23.4816 37.1664 23.5427H35.796C35.8101 23.7093 35.8719 23.8402 35.9861 23.9331C36.1004 24.0262 36.2447 24.0717 36.419 24.0717C36.5352 24.0717 36.6414 24.0541 36.7354 24.0185C36.8297 23.9827 36.9079 23.9392 36.966 23.8874L37.0621 24.1331C37.0112 24.1787 36.9557 24.2173 36.8947 24.2489ZM36.3409 22.8157C36.1766 22.8157 36.0464 22.8594 35.9482 22.9485C35.8513 23.0359 35.7893 23.1556 35.774 23.2854H36.8558C36.8478 23.1386 36.7997 23.0238 36.7097 22.9406C36.6195 22.8594 36.4973 22.8157 36.3409 22.8157ZM37.7414 22.5622H37.3407L37.9956 23.4121L37.3107 24.3254H37.6992L38.3524 23.4123L37.7414 22.5622ZM38.7471 22.5622H38.4304V24.3254H38.7471V22.5622ZM39.1819 23.4121L39.8791 24.3254H39.4864L38.8252 23.4121L39.4401 22.562H39.8332L39.1819 23.4121ZM41.6362 24.1331C41.5481 24.2122 41.446 24.2698 41.3257 24.3075C41.2097 24.3447 41.0888 24.3642 40.9671 24.3651C40.8327 24.3668 40.699 24.3447 40.5724 24.2996C40.454 24.2561 40.3541 24.1945 40.2719 24.1134C40.1897 24.0322 40.1236 23.935 40.0795 23.8222C40.0355 23.709 40.0114 23.5825 40.0114 23.4437C40.0101 23.3207 40.0313 23.1986 40.0736 23.0831C40.1121 22.9747 40.1728 22.8754 40.2519 22.792C40.333 22.7078 40.4306 22.6411 40.5384 22.5957C40.6527 22.5481 40.7828 22.5225 40.9309 22.5225C41.0412 22.5218 41.1506 22.542 41.2535 22.582C41.3519 22.6185 41.4417 22.6746 41.518 22.7464C41.5933 22.819 41.6533 22.9059 41.6943 23.0019C41.7386 23.101 41.7604 23.2101 41.7604 23.3307C41.7604 23.4121 41.7545 23.4816 41.7405 23.5427H40.37C40.3841 23.7093 40.4462 23.8402 40.5603 23.9331C40.6745 24.0262 40.8187 24.0717 40.993 24.0717C41.1093 24.0717 41.2155 24.0541 41.3097 24.0185C41.4038 23.9827 41.4819 23.9392 41.54 23.8874L41.6362 24.1331ZM40.9153 22.8157C40.751 22.8157 40.6207 22.8594 40.5224 22.9485C40.4254 23.0359 40.3634 23.1556 40.3481 23.2854H41.43C41.4221 23.1386 41.374 23.0238 41.2838 22.9406C41.1936 22.8594 41.0696 22.8157 40.9153 22.8157ZM42.8254 21.8889C42.8763 21.9429 42.9497 21.9698 43.045 21.9698C43.2212 21.9698 43.3194 21.8668 43.3335 21.6608H43.63C43.63 21.7398 43.6158 21.8112 43.5878 21.8786C43.56 21.9461 43.5198 22.0035 43.4698 22.051C43.4473 22.0714 43.4234 22.0905 43.3977 22.1077C43.3638 22.1305 43.3265 22.15 43.2854 22.1658C43.2446 22.1826 43.2013 22.1942 43.1549 22.2014C43.1193 22.2067 43.0821 22.2093 43.0429 22.2093C43.0051 22.2093 42.969 22.2072 42.9348 22.203C42.8802 22.1963 42.8301 22.1842 42.7845 22.1658C42.7105 22.1363 42.6462 22.0986 42.5962 22.051C42.566 22.0223 42.54 21.9898 42.5185 21.9538C42.5045 21.9303 42.4923 21.9051 42.482 21.8786C42.4675 21.8412 42.4567 21.8024 42.4501 21.7617C42.4448 21.7294 42.442 21.6959 42.442 21.6608H42.7405C42.7483 21.7615 42.7766 21.8375 42.8254 21.8889ZM42.5059 24.3254H42.1893V22.562H42.5059V23.8755L43.5357 22.562H43.8524V24.3254H43.5357V23.0117L42.5059 24.3254Z" fill="black"/>
</g>
</svg>
