<svg id="sprite" xmlns="http://www.w3.org/2000/svg"><symbol id="sprite:attention" viewBox="0 0 26 26">
<circle cx="13" cy="13" r="12" stroke-width="1.875"></circle>
<path d="M12.9902 16.6H13.001" stroke-width="2.5" stroke-linecap="round" stroke-linejoin="round"></path>
<path d="M13 13L13 8.2" stroke-width="1.875" stroke-linecap="round" stroke-linejoin="round"></path>
</symbol><symbol id="sprite:badge-check" viewBox="0 0 24 24">
<g clip-path="url(#clip0_711_2935)">
<path d="M12.0003 24C10.3833 24 8.86427 23.292 7.82427 22.08C6.23727 22.204 4.65827 21.629 3.51427 20.485C2.37027 19.34 1.79727 17.766 1.91927 16.175C0.707268 15.136 -0.000732422 13.617 -0.000732422 12C-0.000732422 10.383 0.707268 8.864 1.91927 7.825C1.79727 6.234 2.37027 4.659 3.51427 3.515C4.65827 2.372 6.23727 1.803 7.82427 1.92C8.86427 0.708 10.3833 0 12.0003 0C13.6173 0 15.1363 0.708 16.1763 1.92C17.7633 1.801 19.3433 2.372 20.4863 3.515C21.6303 4.66 22.2033 6.234 22.0813 7.825C23.2933 8.864 24.0013 10.383 24.0013 12C24.0013 13.617 23.2933 15.136 22.0813 16.175C22.2033 17.766 21.6303 19.341 20.4863 20.485C19.3433 21.629 17.7643 22.204 16.1763 22.08C15.1363 23.292 13.6173 24 12.0003 24ZM8.72627 19.905L9.09627 20.454C9.74927 21.422 10.8353 22 12.0003 22C13.1653 22 14.2513 21.422 14.9043 20.454L15.2743 19.905L15.9233 20.031C17.0713 20.254 18.2463 19.895 19.0703 19.071C19.8943 18.246 20.2533 17.07 20.0303 15.925L19.9033 15.275L20.4533 14.905C21.4213 14.252 21.9993 13.166 21.9993 12.001C21.9993 10.836 21.4213 9.75 20.4533 9.097L19.9033 8.727L20.0303 8.077C20.2533 6.932 19.8943 5.755 19.0703 4.931C18.2463 4.107 17.0703 3.749 15.9233 3.971L15.2743 4.097L14.9043 3.548C14.2513 2.58 13.1653 2.002 12.0003 2.002C10.8353 2.002 9.74927 2.58 9.09627 3.548L8.72627 4.097L8.07727 3.971C6.93027 3.751 5.75427 4.107 4.93027 4.931C4.10627 5.756 3.74727 6.932 3.97027 8.077L4.09727 8.727L3.54727 9.097C2.57927 9.75 2.00127 10.836 2.00127 12.001C2.00127 13.166 2.57927 14.252 3.54727 14.905L4.09727 15.275L3.97027 15.925C3.74727 17.07 4.10627 18.247 4.93027 19.071C5.75427 19.894 6.92827 20.253 8.07727 20.031L8.72627 19.905ZM11.9103 15.42L17.7033 9.713L16.2993 8.288L10.4903 13.989L7.69727 11.282L6.30427 12.719L9.08627 15.415C9.47727 15.806 9.98927 16 10.5023 16C11.0153 16 11.5243 15.807 11.9103 15.42Z"></path>
</g>
<defs>
<clipPath id="clip0_711_2935">
<rect width="24" height="24"></rect>
</clipPath>
</defs>
</symbol><symbol id="sprite:calculator" viewBox="0 0 23 30">
<path d="M0 27.645C0 28.83 0.959999 29.79 2.145 29.79H20.685C21.87 29.79 22.83 28.83 22.83 27.645V8.35201H0V27.645ZM16.23 11.127C16.23 10.872 16.437 10.665 16.692 10.665H19.494C19.749 10.665 19.956 10.872 19.956 11.127V13.929C19.956 14.184 19.749 14.391 19.494 14.391H16.692C16.437 14.391 16.23 14.184 16.23 13.929V11.127ZM16.23 17.229C16.23 16.974 16.437 16.767 16.692 16.767H19.494C19.749 16.767 19.956 16.974 19.956 17.229V20.031C19.956 20.286 19.749 20.493 19.494 20.493H16.692C16.437 20.493 16.23 20.286 16.23 20.031V17.229ZM9.552 11.127C9.552 10.872 9.759 10.665 10.014 10.665H12.816C13.071 10.665 13.278 10.872 13.278 11.127V13.929C13.278 14.184 13.071 14.391 12.816 14.391H10.014C9.759 14.391 9.552 14.184 9.552 13.929V11.127ZM9.552 17.229C9.552 16.974 9.759 16.767 10.014 16.767H12.816C13.071 16.767 13.278 16.974 13.278 17.229V20.031C13.278 20.286 13.071 20.493 12.816 20.493H10.014C9.759 20.493 9.552 20.286 9.552 20.031V17.229ZM9.552 23.268C9.552 23.013 9.759 22.806 10.014 22.806H19.494C19.749 22.806 19.956 23.013 19.956 23.268V26.07C19.956 26.325 19.749 26.532 19.494 26.532H10.014C9.759 26.532 9.552 26.325 9.552 26.07V23.268ZM2.874 11.124C2.874 10.869 3.081 10.662 3.336 10.662H6.138C6.393 10.662 6.6 10.869 6.6 11.124V13.926C6.6 14.181 6.393 14.388 6.138 14.388H3.336C3.081 14.388 2.874 14.181 2.874 13.926V11.124ZM2.874 17.226C2.874 16.971 3.081 16.764 3.336 16.764H6.138C6.393 16.764 6.6 16.971 6.6 17.226V20.028C6.6 20.283 6.393 20.49 6.138 20.49H3.336C3.081 20.49 2.874 20.283 2.874 20.028V17.226ZM2.874 23.265C2.874 23.01 3.081 22.803 3.336 22.803H6.138C6.393 22.803 6.6 23.01 6.6 23.265V26.067C6.6 26.322 6.393 26.529 6.138 26.529H3.336C3.081 26.529 2.874 26.322 2.874 26.067V23.265Z"></path>
<path d="M20.685 0H2.145C0.959999 0 0 0.96 0 2.145V8.355H22.83V2.145C22.83 0.96 21.87 0 20.685 0ZM19.956 5.577C19.956 5.832 19.749 6.039 19.494 6.039H3.336C3.081 6.039 2.874 5.832 2.874 5.577V2.775C2.874 2.52 3.081 2.313 3.336 2.313H19.494C19.749 2.313 19.956 2.52 19.956 2.775V5.577Z" fill-opacity="0.7"></path>
</symbol><symbol id="sprite:calendar" viewBox="0 0 24 24">
<g clip-path="url(#clip0_709_2785)">
<path d="M19 2H18V1C18 0.734784 17.8946 0.48043 17.7071 0.292893C17.5196 0.105357 17.2652 0 17 0C16.7348 0 16.4804 0.105357 16.2929 0.292893C16.1054 0.48043 16 0.734784 16 1V2H8V1C8 0.734784 7.89464 0.48043 7.70711 0.292893C7.51957 0.105357 7.26522 0 7 0C6.73478 0 6.48043 0.105357 6.29289 0.292893C6.10536 0.48043 6 0.734784 6 1V2H5C3.67441 2.00159 2.40356 2.52888 1.46622 3.46622C0.528882 4.40356 0.00158786 5.67441 0 7L0 19C0.00158786 20.3256 0.528882 21.5964 1.46622 22.5338C2.40356 23.4711 3.67441 23.9984 5 24H19C20.3256 23.9984 21.5964 23.4711 22.5338 22.5338C23.4711 21.5964 23.9984 20.3256 24 19V7C23.9984 5.67441 23.4711 4.40356 22.5338 3.46622C21.5964 2.52888 20.3256 2.00159 19 2ZM2 7C2 6.20435 2.31607 5.44129 2.87868 4.87868C3.44129 4.31607 4.20435 4 5 4H19C19.7956 4 20.5587 4.31607 21.1213 4.87868C21.6839 5.44129 22 6.20435 22 7V8H2V7ZM19 22H5C4.20435 22 3.44129 21.6839 2.87868 21.1213C2.31607 20.5587 2 19.7956 2 19V10H22V19C22 19.7956 21.6839 20.5587 21.1213 21.1213C20.5587 21.6839 19.7956 22 19 22Z"></path>
<path d="M12 16.5C12.8284 16.5 13.5 15.8284 13.5 15C13.5 14.1716 12.8284 13.5 12 13.5C11.1716 13.5 10.5 14.1716 10.5 15C10.5 15.8284 11.1716 16.5 12 16.5Z"></path>
<path d="M7 16.5C7.82843 16.5 8.5 15.8284 8.5 15C8.5 14.1716 7.82843 13.5 7 13.5C6.17157 13.5 5.5 14.1716 5.5 15C5.5 15.8284 6.17157 16.5 7 16.5Z"></path>
<path d="M17 16.5C17.8284 16.5 18.5 15.8284 18.5 15C18.5 14.1716 17.8284 13.5 17 13.5C16.1716 13.5 15.5 14.1716 15.5 15C15.5 15.8284 16.1716 16.5 17 16.5Z"></path>
</g>
<defs>
<clipPath id="clip0_709_2785">
<rect width="24" height="24"></rect>
</clipPath>
</defs>
</symbol><symbol id="sprite:case" viewBox="0 0 24 24">
<g clip-path="url(#clip0_416_999)">
<path d="M19 4H17.899C17.434 1.721 15.414 0 13 0H11C8.586 0 6.565 1.721 6.101 4H5C2.243 4 0 6.243 0 9V19C0 21.757 2.243 24 5 24H19C21.757 24 24 21.757 24 19V9C24 6.243 21.757 4 19 4ZM11 2H13C14.304 2 15.415 2.836 15.828 4H8.172C8.585 2.836 9.696 2 11 2ZM5 6H19C20.654 6 22 7.346 22 9V10H19V9C19 8.448 18.553 8 18 8C17.447 8 17 8.448 17 9V10H7V9C7 8.448 6.553 8 6 8C5.447 8 5 8.448 5 9V10H2V9C2 7.346 3.346 6 5 6ZM19 22H5C3.346 22 2 20.654 2 19V12H5V13C5 13.552 5.447 14 6 14C6.553 14 7 13.552 7 13V12H17V13C17 13.552 17.447 14 18 14C18.553 14 19 13.552 19 13V12H22V19C22 20.654 20.654 22 19 22Z"></path>
</g>
<defs>
<clipPath id="clip0_416_999">
<rect width="24" height="24"></rect>
</clipPath>
</defs>
</symbol><symbol id="sprite:check" viewBox="0 0 24 24">
<path d="M7.79996 21.425C7.46562 21.4251 7.13452 21.3593 6.82565 21.2313C6.51678 21.1033 6.23619 20.9156 5.99996 20.679L0.438965 15.121L2.56097 13L7.79996 18.239L21.439 4.60001L23.561 6.72101L9.59997 20.679C9.36374 20.9156 9.08315 21.1033 8.77428 21.2313C8.46541 21.3593 8.13431 21.4251 7.79996 21.425Z"></path>
</symbol><symbol id="sprite:circle" viewBox="0 0 16 16">
<circle cx="8" cy="8" r="5"></circle>
</symbol><symbol id="sprite:fence-1" viewBox="0 0 48 48">
<path d="M38.6171 17.348H9.38278C9.08414 17.348 8.84204 17.5901 8.84204 17.8887V20.9413C8.84204 21.24 9.08414 21.4821 9.38278 21.4821H38.6171C38.9157 21.4821 39.1578 21.24 39.1578 20.9413V17.8887C39.1578 17.5901 38.9157 17.348 38.6171 17.348Z" fill-opacity="0.4"></path>
<path d="M38.6171 25.6184H9.38278C9.08414 25.6184 8.84204 25.8605 8.84204 26.1592V29.2118C8.84204 29.5104 9.08414 29.7525 9.38278 29.7525H38.6171C38.9157 29.7525 39.1578 29.5104 39.1578 29.2118V26.1592C39.1578 25.8605 38.9157 25.6184 38.6171 25.6184Z" fill-opacity="0.4"></path>
<path d="M15.2569 34.4689H13.2049C12.373 34.4689 11.6982 33.7942 11.6982 32.9623V16.0424C11.6982 15.7212 11.8022 15.4069 11.994 15.1458L13.6255 12.9366C13.9259 12.5299 14.5359 12.5299 14.8387 12.9366L16.4701 15.1458C16.6619 15.4046 16.7659 15.7189 16.7659 16.0424V32.9623C16.7659 33.7942 16.0911 34.4689 15.2592 34.4689H15.2569Z"></path>
<path d="M25.0272 34.4689H22.9752C22.1433 34.4689 21.4685 33.7942 21.4685 32.9623V16.0424C21.4685 15.7212 21.5725 15.4069 21.7643 15.1458L23.3957 12.9366C23.6961 12.5299 24.3062 12.5299 24.6089 12.9366L26.2404 15.1458C26.4322 15.4046 26.5362 15.7189 26.5362 16.0424V32.9623C26.5362 33.7942 25.8614 34.4689 25.0295 34.4689H25.0272Z"></path>
<path d="M34.7972 34.4689H32.7452C31.9133 34.4689 31.2385 33.7942 31.2385 32.9623V16.0424C31.2385 15.7212 31.3425 15.4069 31.5343 15.1458L33.1658 12.9366C33.4662 12.5299 34.0762 12.5299 34.3789 12.9366L36.0104 15.1458C36.2022 15.4046 36.3062 15.7189 36.3062 16.0424V32.9623C36.3062 33.7942 35.6314 34.4689 34.7995 34.4689H34.7972Z"></path>
</symbol><symbol id="sprite:fence-2" viewBox="0 0 48 48">
<g clip-path="url(#clip0_416_881)">
<path d="M7.82353 19.3133C9.04345 19.3133 10.0367 20.304 10.0367 21.5265V33.9014C10.0367 34.1535 9.83041 34.3598 9.57828 34.3598H6.06878C5.81664 34.3598 5.61035 34.1535 5.61035 33.9014V21.5265C5.61035 20.3065 6.60106 19.3133 7.82353 19.3133Z"></path>
<path d="M39.7452 19.3133C40.9651 19.3133 41.9583 20.304 41.9583 21.5265V33.9014C41.9583 34.1535 41.752 34.3598 41.4999 34.3598H37.9904C37.7383 34.3598 37.532 34.1535 37.532 33.9014V21.5265C37.532 20.3065 38.5227 19.3133 39.7452 19.3133Z"></path>
<path d="M23.7843 12.3809C17.7152 12.3809 12.7974 17.3013 12.7974 23.3678V33.9141C12.7974 34.1586 12.996 34.3573 13.2405 34.3573H34.3306C34.5751 34.3573 34.7738 34.1586 34.7738 33.9141V23.3678C34.7738 17.2987 29.8533 12.3809 23.7868 12.3809H23.7843ZM22.6408 31.6449H15.935V23.7906C15.935 19.8506 18.8511 16.5805 22.6408 16.0228V31.6449ZM31.6386 31.6449H24.994V16.033C28.7531 16.6162 31.6386 19.8736 31.6386 23.7906V31.6449Z"></path>
<path d="M15.9324 23.7905V31.6449H22.6381V16.0228C18.8485 16.578 15.9324 19.8506 15.9324 23.7905Z" fill-opacity="0.4"></path>
<path d="M24.9915 16.033V31.6449H31.6361V23.7906C31.6361 19.8736 28.748 16.6137 24.9915 16.033Z" fill-opacity="0.4"></path>
</g>
<defs>
<clipPath id="clip0_416_881">
<rect width="48" height="48"></rect>
</clipPath>
</defs>
</symbol><symbol id="sprite:fence-3" viewBox="0 0 48 48">
<path d="M21.4536 21.5645H17.6965V24.8679H21.4536V21.5645Z" fill-opacity="0.4"></path>
<path d="M13.6923 21.5645H11.8005C11.5629 21.5645 11.3684 21.7566 11.3684 21.9966V24.4357C11.3684 24.6734 11.5605 24.8679 11.8005 24.8679H13.6491V22.46C13.6491 22.1575 13.6659 21.8598 13.6923 21.5669V21.5645Z" fill-opacity="0.4"></path>
<path d="M33.3035 24.8654H35.152C35.3897 24.8654 35.5841 24.6734 35.5841 24.4333V21.9942C35.5841 21.7566 35.3921 21.5621 35.152 21.5621H33.2603C33.2867 21.8574 33.3035 22.1551 33.3035 22.4552V24.863V24.8654Z" fill-opacity="0.4"></path>
<path d="M29.2583 21.5645H25.5012V24.8679H29.2583V21.5645Z" fill-opacity="0.4"></path>
<path d="M11.8005 28.1689C11.5629 28.1689 11.3684 28.3609 11.3684 28.601V31.0401C11.3684 31.2778 11.5605 31.4722 11.8005 31.4722H13.6491V28.1689H11.8005Z" fill-opacity="0.4"></path>
<path d="M21.4536 28.1689H17.6965V31.4722H21.4536V28.1689Z" fill-opacity="0.4"></path>
<path d="M29.2583 28.1689H25.5012V31.4722H29.2583V28.1689Z" fill-opacity="0.4"></path>
<path d="M35.1544 31.4698C35.3921 31.4698 35.5866 31.2778 35.5866 31.0377V28.5986C35.5866 28.3609 35.3945 28.1665 35.1544 28.1665H33.3059V31.4698H35.1544Z" fill-opacity="0.4"></path>
<path d="M17.6967 24.8655V16.5783C17.6967 16.5087 17.6751 16.439 17.6319 16.3814L17.0197 15.5556C16.8997 15.3923 16.6596 15.3755 16.5156 15.5196C14.9407 17.0992 13.9036 19.2118 13.6924 21.5621C13.666 21.8574 13.6492 22.1551 13.6492 22.4552V33.9184C13.6492 34.1321 13.822 34.305 14.0357 34.305H17.3054C17.5191 34.305 17.6919 34.1321 17.6919 33.9184V24.8631L17.6967 24.8655Z"></path>
<path d="M25.5013 24.8655V13.1453C25.5013 12.9677 25.3764 12.814 25.2036 12.7828C24.6442 12.682 24.068 12.6316 23.4799 12.6316C22.8917 12.6316 22.3155 12.6844 21.7562 12.7828C21.5833 12.814 21.4585 12.9677 21.4585 13.1453V33.9209C21.4585 34.1345 21.6313 34.3074 21.845 34.3074H25.1147C25.3284 34.3074 25.5013 34.1345 25.5013 33.9209V24.8655Z"></path>
<path d="M33.3035 22.4575C33.3035 22.1551 33.2867 21.8574 33.2602 21.5645C33.0466 19.207 32.0047 17.092 30.425 15.51H30.4226C30.2858 15.3707 30.0577 15.3899 29.9425 15.546L29.3207 16.3862C29.2799 16.4414 29.2583 16.5086 29.2583 16.5759V33.9208C29.2583 34.1345 29.4312 34.3073 29.6448 34.3073H32.9145C33.1282 34.3073 33.3011 34.1345 33.3011 33.9208V22.4575H33.3035Z"></path>
</symbol><symbol id="sprite:fence-4" viewBox="0 0 48 48">
<g clip-path="url(#clip0_416_892)">
<path d="M17.6621 16.7167C16.2296 17.0899 15.0801 17.5273 14.2502 17.8962V32.0131H17.6621V16.7167Z"></path>
<path d="M31.2451 32.0132H34.6569V18.0035C33.8592 17.6368 32.7055 17.1779 31.2451 16.7812V32.0132Z"></path>
<path d="M24.3315 15.8762C27.07 15.8762 29.4032 16.2793 31.2452 16.7811C32.7078 17.1778 33.8593 17.6367 34.6571 18.0035C34.9337 18.13 35.1696 18.2479 35.3604 18.3466C35.7057 18.5267 36.1303 18.413 36.3426 18.0871L37.2926 16.6353C37.5349 16.2643 37.4105 15.7625 37.0203 15.5523C35.354 14.656 30.8657 12.6316 24.3315 12.6316C17.7974 12.6316 13.3069 14.6581 11.6428 15.5523C11.2525 15.7625 11.126 16.2622 11.3683 16.6353L12.3161 18.0892C12.5284 18.4152 12.9552 18.5288 13.3004 18.3509C13.5449 18.2243 13.8644 18.0678 14.2504 17.8962C15.0803 17.5295 16.2319 17.0921 17.6623 16.7168C19.4657 16.2471 21.7131 15.8762 24.3315 15.8762Z"></path>
<path d="M39.4391 32.0131H9.22375C9.0136 32.0131 8.84204 32.1847 8.84204 32.3948V33.4456C8.84204 33.6558 9.0136 33.8273 9.22375 33.8273H39.4391C39.6493 33.8273 39.8208 33.6558 39.8208 33.4456V32.3948C39.8208 32.1847 39.6493 32.0131 39.4391 32.0131Z" fill-opacity="0.4"></path>
</g>
<defs>
<clipPath id="clip0_416_892">
<rect width="48" height="48"></rect>
</clipPath>
</defs>
</symbol><symbol id="sprite:fence-5" viewBox="0 0 48 48">
<path d="M22.439 32.6025L17.215 34.1118C17.0615 34.1548 17.0615 34.2817 17.215 34.3248L22.5496 36.1391C22.4779 36.0163 22.439 35.879 22.439 35.7377V32.6025Z" fill-opacity="0.4"></path>
<path d="M31.3203 32.5227L26.1045 30.7739V34.2388L31.3203 32.7337C31.4739 32.6907 31.4739 32.5637 31.3203 32.5207V32.5227Z" fill-opacity="0.4"></path>
<path d="M26.6902 10.1053H21.8553C21.3822 10.1053 20.9993 10.3203 20.9993 10.5844V11.8316C20.9993 12.0589 21.329 12.2432 21.7365 12.2432H22.0478C22.2648 12.2432 22.4409 12.4193 22.4409 12.6364V35.7439C22.4409 35.8852 22.486 36.0183 22.5536 36.1412C22.5618 36.1535 22.5679 36.1678 22.5761 36.1801L24.0608 39.3727C24.1611 39.5242 24.3823 39.5242 24.4847 39.3727L25.9693 36.1801C26.0574 36.047 26.1045 35.8934 26.1045 35.7337V12.6384C26.1045 12.4213 26.2806 12.2452 26.4977 12.2452H26.8089C27.2164 12.2452 27.5461 12.0609 27.5461 11.8336V10.5865C27.5461 10.3223 27.1632 10.1073 26.6902 10.1073V10.1053Z"></path>
<path d="M18.8439 21.8352H7.99047C7.76314 21.8352 7.57886 22.0195 7.57886 22.2468V25.0892C7.57886 25.3165 7.76314 25.5008 7.99047 25.5008H18.8439C19.0712 25.5008 19.2555 25.3165 19.2555 25.0892V22.2468C19.2555 22.0195 19.0712 21.8352 18.8439 21.8352Z" fill-opacity="0.4"></path>
<path d="M40.5453 21.8352H29.6919C29.4646 21.8352 29.2803 22.0195 29.2803 22.2468V25.0892C29.2803 25.3165 29.4646 25.5008 29.6919 25.5008H40.5453C40.7726 25.5008 40.9569 25.3165 40.9569 25.0892V22.2468C40.9569 22.0195 40.7726 21.8352 40.5453 21.8352Z" fill-opacity="0.4"></path>
</symbol><symbol id="sprite:inst" viewBox="0 0 24 24">
<g clip-path="url(#clip0_416_992)">
<path d="M12 2.162C15.204 2.162 15.584 2.174 16.849 2.232C18.157 2.292 19.504 2.59 20.457 3.543C21.419 4.505 21.708 5.839 21.768 7.151C21.826 8.416 21.838 8.796 21.838 12C21.838 15.204 21.826 15.584 21.768 16.849C21.709 18.15 21.404 19.51 20.457 20.457C19.495 21.419 18.162 21.708 16.849 21.768C15.584 21.826 15.204 21.838 12 21.838C8.796 21.838 8.416 21.826 7.151 21.768C5.86 21.709 4.482 21.397 3.543 20.457C2.586 19.5 2.292 18.153 2.232 16.849C2.174 15.584 2.162 15.204 2.162 12C2.162 8.796 2.174 8.416 2.232 7.151C2.291 5.855 2.599 4.487 3.543 3.543C4.503 2.583 5.842 2.292 7.151 2.232C8.416 2.174 8.796 2.162 12 2.162ZM12 0C8.741 0 8.332 0.014 7.052 0.072C5.197 0.157 3.355 0.673 2.014 2.014C0.668 3.36 0.157 5.198 0.072 7.052C0.014 8.332 0 8.741 0 12C0 15.259 0.014 15.668 0.072 16.948C0.157 18.801 0.675 20.648 2.014 21.986C3.359 23.331 5.2 23.843 7.052 23.928C8.332 23.986 8.741 24 12 24C15.259 24 15.668 23.986 16.948 23.928C18.802 23.843 20.646 23.326 21.986 21.986C23.333 20.639 23.843 18.802 23.928 16.948C23.986 15.668 24 15.259 24 12C24 8.741 23.986 8.332 23.928 7.052C23.843 5.197 23.326 3.354 21.986 2.014C20.643 0.671 18.797 0.156 16.948 0.072C15.668 0.014 15.259 0 12 0Z"></path>
<path d="M11.9999 5.83801C8.59689 5.83801 5.83789 8.59701 5.83789 12C5.83789 15.403 8.59689 18.162 11.9999 18.162C15.4029 18.162 18.1619 15.403 18.1619 12C18.1619 8.59701 15.4029 5.83801 11.9999 5.83801ZM11.9999 16C9.79089 16 7.99989 14.209 7.99989 12C7.99989 9.79101 9.79089 8.00001 11.9999 8.00001C14.2089 8.00001 15.9999 9.79101 15.9999 12C15.9999 14.209 14.2089 16 11.9999 16Z"></path>
<path d="M18.4058 7.03399C19.2011 7.03399 19.8458 6.38928 19.8458 5.59399C19.8458 4.7987 19.2011 4.15399 18.4058 4.15399C17.6105 4.15399 16.9658 4.7987 16.9658 5.59399C16.9658 6.38928 17.6105 7.03399 18.4058 7.03399Z"></path>
</g>
<defs>
<clipPath id="clip0_416_992">
<rect width="24" height="24"></rect>
</clipPath>
</defs>
</symbol><symbol id="sprite:loading" viewBox="0 0 25 24">
<circle opacity="0.4" cx="12.9412" cy="12" r="9" stroke-width="2"></circle>
<path d="M12.9412 21C7.9706 21 3.94116 16.9706 3.94116 12" stroke-width="2"></path>
</symbol><symbol id="sprite:logotype" viewBox="0 0 185 31">
<path d="M50.64 7.256V23H45.816V17.648C44.152 17.856 42.688 17.96 41.424 17.96C38.992 17.96 37.16 17.44 35.928 16.4C34.696 15.36 34.08 13.824 34.08 11.792V7.256H38.904V11.312C38.904 12.112 39.176 12.704 39.72 13.088C40.264 13.456 41.104 13.64 42.24 13.64C43.328 13.64 44.52 13.592 45.816 13.496V7.256H50.64ZM70.6039 22.28V23H65.8999L64.8679 20.408H57.9559L56.9239 23H52.2199V22.28L58.7479 7.256H64.0759L70.6039 22.28ZM63.2599 16.424L61.4119 11.84L59.5639 16.424H63.2599ZM80.3351 23.312C78.3671 23.312 76.6391 22.984 75.1511 22.328C73.6631 21.656 72.5111 20.712 71.6951 19.496C70.8791 18.264 70.4711 16.832 70.4711 15.2V15.08C70.4711 13.448 70.8791 12.024 71.6951 10.808C72.5111 9.576 73.6631 8.624 75.1511 7.952C76.6391 7.28 78.3671 6.944 80.3351 6.944C82.1911 6.944 83.8471 7.24 85.3031 7.832C86.7751 8.424 87.9191 9.256 88.7351 10.328C89.5671 11.384 89.9831 12.584 89.9831 13.928V14.096H85.0631V13.928C85.0631 13.16 84.6311 12.552 83.7671 12.104C82.9191 11.656 81.7671 11.432 80.3111 11.432C78.6471 11.432 77.4071 11.728 76.5911 12.32C75.7911 12.912 75.3911 13.816 75.3911 15.032V15.272C75.3911 16.488 75.7911 17.384 76.5911 17.96C77.3911 18.536 78.6391 18.824 80.3351 18.824C81.8391 18.824 82.9991 18.616 83.8151 18.2C84.6471 17.768 85.0631 17.16 85.0631 16.376V16.208H89.9831V16.376C89.9831 17.704 89.5671 18.896 88.7351 19.952C87.9191 21.008 86.7751 21.832 85.3031 22.424C83.8471 23.016 82.1911 23.312 80.3351 23.312ZM90.3366 11.576V7.256H106.201V11.576H100.681V23H95.8566V11.576H90.3366ZM116.379 23.312C114.443 23.312 112.739 22.984 111.267 22.328C109.795 21.656 108.651 20.704 107.835 19.472C107.035 18.24 106.635 16.816 106.635 15.2V15.08C106.635 13.464 107.035 12.04 107.835 10.808C108.651 9.576 109.795 8.624 111.267 7.952C112.739 7.28 114.443 6.944 116.379 6.944C118.347 6.944 120.067 7.28 121.539 7.952C123.011 8.624 124.147 9.576 124.947 10.808C125.747 12.024 126.147 13.448 126.147 15.08V15.2C126.147 16.832 125.747 18.264 124.947 19.496C124.147 20.712 123.011 21.656 121.539 22.328C120.067 22.984 118.347 23.312 116.379 23.312ZM116.379 18.824C118.043 18.824 119.267 18.536 120.051 17.96C120.835 17.368 121.227 16.472 121.227 15.272V15.032C121.227 12.632 119.611 11.432 116.379 11.432C114.795 11.432 113.595 11.736 112.779 12.344C111.963 12.952 111.555 13.848 111.555 15.032V15.272C111.555 16.472 111.955 17.368 112.755 17.96C113.555 18.536 114.763 18.824 116.379 18.824ZM145.466 7.976L139.37 14.816L145.01 22.28V23H139.562L135.338 17.288H133.274V23H128.45V7.256H133.274V12.968H135.074L139.802 7.256H145.466V7.976ZM155.379 23.312C153.443 23.312 151.739 22.984 150.267 22.328C148.795 21.656 147.651 20.704 146.835 19.472C146.035 18.24 145.635 16.816 145.635 15.2V15.08C145.635 13.464 146.035 12.04 146.835 10.808C147.651 9.576 148.795 8.624 150.267 7.952C151.739 7.28 153.443 6.944 155.379 6.944C157.347 6.944 159.067 7.28 160.539 7.952C162.011 8.624 163.147 9.576 163.947 10.808C164.747 12.024 165.147 13.448 165.147 15.08V15.2C165.147 16.832 164.747 18.264 163.947 19.496C163.147 20.712 162.011 21.656 160.539 22.328C159.067 22.984 157.347 23.312 155.379 23.312ZM155.379 18.824C157.043 18.824 158.267 18.536 159.051 17.96C159.835 17.368 160.227 16.472 160.227 15.272V15.032C160.227 12.632 158.611 11.432 155.379 11.432C153.795 11.432 152.595 11.736 151.779 12.344C150.963 12.952 150.555 13.848 150.555 15.032V15.272C150.555 16.472 150.955 17.368 151.755 17.96C152.555 18.536 153.763 18.824 155.379 18.824ZM183.106 23H178.282V11.576H173.002L172.882 16.208C172.818 18.432 172.298 20.12 171.322 21.272C170.346 22.424 168.93 23 167.074 23H165.586V18.68H166.162C166.978 18.68 167.562 18.464 167.914 18.032C168.282 17.584 168.474 16.848 168.49 15.824L168.682 7.256H183.106V23Z"></path>
<path d="M6.29268 1L10.4878 4.14634V2.57317H12.5854V5.19512L18.3537 9.91463V23H12.5854V13.061L6.29268 8.34146V18.3049H10.4878V23H0V13.061L6.29268 8.34146V1Z"></path>
</symbol><symbol id="sprite:loupe" viewBox="0 0 13 13">
<g clip-path="url(#clip0_454_2490)">
<path d="M12.8413 12.0754L9.60809 8.84217C10.4892 7.76458 10.9224 6.38955 10.8181 5.00152C10.7138 3.61348 10.08 2.31862 9.04778 1.38479C8.01556 0.450947 6.66391 -0.0504294 5.27239 -0.0156372C3.88088 0.0191551 2.55597 0.587454 1.57171 1.57171C0.587454 2.55597 0.0191551 3.88088 -0.0156372 5.27239C-0.0504294 6.66391 0.450947 8.01556 1.38479 9.04778C2.31862 10.08 3.61348 10.7138 5.00152 10.8181C6.38955 10.9224 7.76458 10.4892 8.84217 9.60809L12.0754 12.8413C12.1775 12.94 12.3144 12.9946 12.4564 12.9933C12.5984 12.9921 12.7343 12.9351 12.8347 12.8347C12.9351 12.7343 12.9921 12.5984 12.9933 12.4564C12.9946 12.3144 12.94 12.1775 12.8413 12.0754ZM5.41667 9.75C4.55962 9.75 3.72181 9.49586 3.0092 9.0197C2.29659 8.54355 1.74117 7.86678 1.41319 7.07496C1.08521 6.28315 0.999398 5.41186 1.1666 4.57128C1.3338 3.73069 1.74651 2.95857 2.35254 2.35254C2.95857 1.74651 3.73069 1.3338 4.57128 1.1666C5.41186 0.999398 6.28315 1.08521 7.07496 1.41319C7.86678 1.74117 8.54355 2.29659 9.0197 3.0092C9.49586 3.72181 9.75 4.55962 9.75 5.41667C9.74871 6.56555 9.29175 7.667 8.47937 8.47937C7.667 9.29175 6.56555 9.74871 5.41667 9.75Z"></path>
</g>
<defs>
<clipPath id="clip0_454_2490">
<rect width="13" height="13"></rect>
</clipPath>
</defs>
</symbol><symbol id="sprite:marker" viewBox="0 0 24 24">
<g clip-path="url(#clip0_416_827)">
<path d="M11.958 24.008L11.2609 23.4105C10.2999 22.6058 1.90894 15.3591 1.90894 10.0583C1.90894 4.50839 6.40804 0.00927734 11.958 0.00927734C17.5079 0.00927734 22.007 4.50839 22.007 10.0583C22.007 15.3592 13.616 22.6059 12.659 23.4145L11.958 24.008ZM11.958 2.18217C7.61015 2.18709 4.0868 5.71045 4.08187 10.0582C4.08187 13.3883 9.24431 18.7081 11.958 21.1429C14.6716 18.7071 19.834 13.3843 19.834 10.0582C19.8291 5.71045 16.3058 2.18714 11.958 2.18217Z"></path>
<path d="M11.958 14.0416C9.75802 14.0416 7.97461 12.2582 7.97461 10.0583C7.97461 7.85836 9.75802 6.07495 11.958 6.07495C14.1579 6.07495 15.9413 7.85836 15.9413 10.0583C15.9413 12.2582 14.1579 14.0416 11.958 14.0416ZM11.958 8.06658C10.858 8.06658 9.96628 8.95828 9.96628 10.0582C9.96628 11.1582 10.858 12.0499 11.958 12.0499C13.0579 12.0499 13.9496 11.1582 13.9496 10.0582C13.9496 8.95828 13.058 8.06658 11.958 8.06658Z"></path>
</g>
<defs>
<clipPath id="clip0_416_827">
<rect width="24" height="24"></rect>
</clipPath>
</defs>
</symbol><symbol id="sprite:plus-small" viewBox="0 0 25 24">
<path d="M17.9412 11H13.9412V7C13.9412 6.73478 13.8358 6.48043 13.6483 6.29289C13.4607 6.10536 13.2064 6 12.9412 6C12.6759 6 12.4216 6.10536 12.2341 6.29289C12.0465 6.48043 11.9412 6.73478 11.9412 7V11H7.94116C7.67595 11 7.42159 11.1054 7.23406 11.2929C7.04652 11.4804 6.94116 11.7348 6.94116 12C6.94116 12.2652 7.04652 12.5196 7.23406 12.7071C7.42159 12.8946 7.67595 13 7.94116 13H11.9412V17C11.9412 17.2652 12.0465 17.5196 12.2341 17.7071C12.4216 17.8946 12.6759 18 12.9412 18C13.2064 18 13.4607 17.8946 13.6483 17.7071C13.8358 17.5196 13.9412 17.2652 13.9412 17V13H17.9412C18.2064 13 18.4607 12.8946 18.6483 12.7071C18.8358 12.5196 18.9412 12.2652 18.9412 12C18.9412 11.7348 18.8358 11.4804 18.6483 11.2929C18.4607 11.1054 18.2064 11 17.9412 11Z"></path>
</symbol><symbol id="sprite:plus" viewBox="0 0 24 24">
<g clip-path="url(#clip0_176_287)">
<path d="M23 11H13V1C13 0.734784 12.8946 0.48043 12.7071 0.292893C12.5196 0.105357 12.2652 0 12 0C11.7348 0 11.4804 0.105357 11.2929 0.292893C11.1054 0.48043 11 0.734784 11 1V11H1C0.734784 11 0.48043 11.1054 0.292893 11.2929C0.105357 11.4804 0 11.7348 0 12C0 12.2652 0.105357 12.5196 0.292893 12.7071C0.48043 12.8946 0.734784 13 1 13H11V23C11 23.2652 11.1054 23.5196 11.2929 23.7071C11.4804 23.8946 11.7348 24 12 24C12.2652 24 12.5196 23.8946 12.7071 23.7071C12.8946 23.5196 13 23.2652 13 23V13H23C23.2652 13 23.5196 12.8946 23.7071 12.7071C23.8946 12.5196 24 12.2652 24 12C24 11.7348 23.8946 11.4804 23.7071 11.2929C23.5196 11.1054 23.2652 11 23 11Z"></path>
</g>
<defs>
<clipPath id="clip0_176_287">
<rect width="24" height="24"></rect>
</clipPath>
</defs>
</symbol><symbol id="sprite:tail-arrow" viewBox="0 0 24 24">
<path fill-rule="evenodd" clip-rule="evenodd" d="M11.2929 4.29289C11.6834 3.90237 12.3166 3.90237 12.7071 4.29289L19.7071 11.2929C20.0976 11.6834 20.0976 12.3166 19.7071 12.7071L12.7071 19.7071C12.3166 20.0976 11.6834 20.0976 11.2929 19.7071C10.9024 19.3166 10.9024 18.6834 11.2929 18.2929L16.5858 13L5 13C4.44772 13 4 12.5523 4 12C4 11.4477 4.44772 11 5 11L16.5858 11L11.2929 5.70711C10.9024 5.31658 10.9024 4.68342 11.2929 4.29289Z"></path>
</symbol><symbol id="sprite:tailless-arrow" viewBox="0 0 25 24">
<path d="M14.2958 9.88079L9.7058 5.29079C9.51844 5.10454 9.26498 5 9.0008 5C8.73661 5 8.48316 5.10454 8.2958 5.29079C8.20207 5.38376 8.12768 5.49436 8.07691 5.61622C8.02614 5.73807 8 5.86878 8 6.00079C8 6.1328 8.02614 6.26351 8.07691 6.38537C8.12768 6.50723 8.20207 6.61783 8.2958 6.71079L12.8958 11.2908C12.9895 11.3838 13.0639 11.4944 13.1147 11.6162C13.1655 11.7381 13.1916 11.8688 13.1916 12.0008C13.1916 12.1328 13.1655 12.2635 13.1147 12.3854C13.0639 12.5072 12.9895 12.6178 12.8958 12.7108L8.2958 17.2908C8.10749 17.4778 8.00118 17.7319 8.00024 17.9973C7.9993 18.2626 8.10382 18.5175 8.2908 18.7058C8.47778 18.8941 8.7319 19.0004 8.99726 19.0013C9.26263 19.0023 9.5175 18.8978 9.7058 18.7108L14.2958 14.1208C14.8576 13.5583 15.1732 12.7958 15.1732 12.0008C15.1732 11.2058 14.8576 10.4433 14.2958 9.88079Z"></path>
</symbol><symbol id="sprite:tg" viewBox="0 0 24 24">
<g clip-path="url(#clip0_416_1005)">
<path fill-rule="evenodd" clip-rule="evenodd" d="M12 0C5.373 0 0 5.373 0 12C0 18.627 5.373 24 12 24C18.627 24 24 18.627 24 12C24 5.373 18.627 0 12 0ZM17.562 8.161C17.382 10.058 16.6 14.663 16.203 16.788C16.035 17.688 15.703 17.989 15.383 18.018C14.686 18.082 14.157 17.557 13.482 17.115C12.426 16.423 11.829 15.992 10.804 15.316C9.619 14.535 10.387 14.106 11.062 13.405C11.239 13.221 14.309 10.428 14.369 10.175C14.376 10.143 14.384 10.025 14.313 9.963C14.242 9.901 14.139 9.922 14.065 9.939C13.959 9.963 12.272 11.078 9.003 13.284C8.524 13.613 8.09 13.773 7.701 13.765C7.273 13.756 6.449 13.523 5.836 13.323C5.085 13.079 4.487 12.949 4.539 12.535C4.566 12.319 4.863 12.098 5.431 11.872C8.929 10.348 11.262 9.343 12.429 8.857C15.762 7.471 16.454 7.23 16.906 7.222C17.472 7.214 17.608 7.681 17.562 8.161Z"></path>
</g>
<defs>
<clipPath id="clip0_416_1005">
<rect width="24" height="24"></rect>
</clipPath>
</defs>
</symbol><symbol id="sprite:triangle" viewBox="0 0 25 24">
<g clip-path="url(#clip0_176_343)">
<path d="M17.3787 18H22.4874C23.3466 18 23.8057 16.9881 23.24 16.3415L14.0687 5.86009C13.6703 5.40476 12.962 5.40476 12.5636 5.86009L3.39235 16.3415C2.82659 16.9881 3.28577 18 4.14493 18H9.25366" stroke-width="2" stroke-linecap="round"></path>
</g>
<defs>
<clipPath id="clip0_176_343">
<rect width="24" height="24" transform="translate(0.941162)"></rect>
</clipPath>
</defs>
</symbol><symbol id="sprite:un" viewBox="0 0 24 24">
<path d="M24 16H23V12.552C23 8.091 20.172 4.125 16 2.531V1H8V2.531C3.828 4.125 1 8.091 1 12.552V16H0V18H1.477C2.472 19.341 5.755 23 12 23C18.245 23 21.528 19.341 22.523 18H24V16ZM21 12.552V16H16V4.707C19.009 6.164 21 9.186 21 12.552ZM14 3V16H10V3H14ZM3 12.552C3 9.186 4.99 6.165 8 4.707V16H3V12.552ZM12 21C8.061 21 5.522 19.313 4.142 18H19.842C18.453 19.312 15.911 21 12 21Z"></path>
</symbol><symbol id="sprite:vk" viewBox="0 0 24 24">
<g clip-path="url(#clip0_416_986)">
<path d="M22.316 1.684C20.632 0 17.921 0 12.5 0H11.5C6.079 0 3.368 0 1.684 1.684C0 3.368 0 6.079 0 11.5V12.5C0 17.921 0 20.631 1.684 22.316C3.368 24.001 6.079 24 11.5 24H12.5C17.921 24 20.631 24 22.316 22.316C24 20.632 24 17.921 24 12.5V11.5C24 6.079 24 3.368 22.316 1.684ZM19.503 17H17.753C17.086 17 16.89 16.468 15.703 15.281C14.664 14.28 14.219 14.15 13.96 14.15C13.607 14.15 13.502 14.25 13.502 14.75V16.319C13.502 16.749 13.365 17 12.252 17C10.398 17 8.36 15.874 6.913 13.798C4.743 10.757 4.15 8.458 4.15 7.995C4.15 7.735 4.25 7.5 4.75 7.5H6.501C6.948 7.5 7.116 7.696 7.284 8.18C8.14 10.673 9.584 12.852 10.177 12.852C10.399 12.852 10.501 12.749 10.501 12.185V9.608C10.436 8.422 9.805 8.324 9.805 7.902C9.805 7.707 9.972 7.5 10.25 7.5H13.001C13.372 7.5 13.501 7.698 13.501 8.143V11.61C13.501 11.98 13.662 12.11 13.773 12.11C13.996 12.11 14.181 11.98 14.589 11.572C15.85 10.163 16.74 7.994 16.74 7.994C16.852 7.734 17.056 7.499 17.502 7.499H19.252C19.781 7.499 19.893 7.771 19.781 8.142C19.558 9.162 17.426 12.165 17.426 12.165C17.24 12.462 17.166 12.61 17.426 12.944C17.612 13.204 18.223 13.723 18.631 14.205C19.383 15.051 19.95 15.764 20.108 16.256C20.254 16.75 20.003 17 19.503 17Z"></path>
</g>
<defs>
<clipPath id="clip0_416_986">
<rect width="24" height="24"></rect>
</clipPath>
</defs>
</symbol><symbol id="sprite:wa" viewBox="0 0 24 24">
<path fill-rule="evenodd" clip-rule="evenodd" d="M18.9852 16.9453C18.696 17.764 17.5464 18.4412 16.6296 18.6393C16.002 18.7725 15.1836 18.8779 12.426 17.7352C9.3288 16.452 5.028 11.8812 5.028 8.83945C5.028 7.29099 5.9208 5.48789 7.482 5.48789C8.2332 5.48789 8.3988 5.50254 8.646 6.09551C8.9352 6.79412 9.64081 8.51535 9.72481 8.6918C10.0716 9.41561 9.37199 9.83934 8.86439 10.4695C8.70239 10.6592 8.51881 10.8643 8.72401 11.2172C8.92801 11.5629 9.6336 12.7129 10.6704 13.6359C12.0096 14.8291 13.0956 15.21 13.4844 15.3721C13.7736 15.4921 14.1192 15.4641 14.3304 15.2385C14.598 14.9492 14.9304 14.4692 15.2688 13.9963C15.5076 13.6578 15.8112 13.6155 16.1292 13.7355C16.344 13.81 19.074 15.0778 19.1892 15.2807C19.2744 15.4283 19.2744 16.1267 18.9852 16.9453ZM12.0024 0H11.9964C5.38079 0 0 5.38242 0 12C0 14.624 0.846008 17.0584 2.28481 19.033L0.789606 23.492L5.40121 22.0184C7.29841 23.2739 9.5628 24 12.0024 24C18.618 24 24 18.6176 24 12C24 5.38242 18.618 0 12.0024 0Z"></path>
</symbol><symbol id="sprite:yt" viewBox="0 0 24 24">
<path d="M23.498 6.18599C23.222 5.14699 22.409 4.32799 21.376 4.04999C19.505 3.54599 12 3.54599 12 3.54599C12 3.54599 4.495 3.54599 2.623 4.04999C1.591 4.32799 0.778 5.14599 0.502 6.18599C0 8.06999 0 12 0 12C0 12 0 15.93 0.502 17.814C0.778 18.853 1.591 19.672 2.624 19.95C4.495 20.454 12 20.454 12 20.454C12 20.454 19.505 20.454 21.377 19.95C22.409 19.672 23.222 18.854 23.499 17.814C24 15.93 24 12 24 12C24 12 24 8.06999 23.498 6.18599ZM9.546 15.569V8.43099L15.818 12L9.546 15.569Z"></path>
</symbol></svg>