<svg id="sprite" xmlns="http://www.w3.org/2000/svg"><symbol id="sprite:arrow-down" viewBox="0 0 20 21">
<path d="M16.5999 7.95834L11.1666 13.3917C10.5249 14.0333 9.4749 14.0333 8.83324 13.3917L3.3999 7.95834" stroke-width="1.25" stroke-miterlimit="10" stroke-linecap="round" stroke-linejoin="round"></path>
</symbol><symbol id="sprite:attention-circle" viewBox="0 0 18 18">
<path d="M8.99984 0.666748C4.40817 0.666748 0.666504 4.40841 0.666504 9.00008C0.666504 13.5917 4.40817 17.3334 8.99984 17.3334C13.5915 17.3334 17.3332 13.5917 17.3332 9.00008C17.3332 4.40841 13.5915 0.666748 8.99984 0.666748ZM8.37484 5.66675C8.37484 5.32508 8.65817 5.04175 8.99984 5.04175C9.3415 5.04175 9.62484 5.32508 9.62484 5.66675V9.83341C9.62484 10.1751 9.3415 10.4584 8.99984 10.4584C8.65817 10.4584 8.37484 10.1751 8.37484 9.83341V5.66675ZM9.7665 12.6501C9.72484 12.7584 9.6665 12.8417 9.5915 12.9251C9.50817 13.0001 9.4165 13.0584 9.3165 13.1001C9.2165 13.1417 9.10817 13.1667 8.99984 13.1667C8.8915 13.1667 8.78317 13.1417 8.68317 13.1001C8.58317 13.0584 8.4915 13.0001 8.40817 12.9251C8.33317 12.8417 8.27484 12.7584 8.23317 12.6501C8.1915 12.5501 8.1665 12.4417 8.1665 12.3334C8.1665 12.2251 8.1915 12.1167 8.23317 12.0167C8.27484 11.9167 8.33317 11.8251 8.40817 11.7417C8.4915 11.6667 8.58317 11.6084 8.68317 11.5667C8.88317 11.4834 9.1165 11.4834 9.3165 11.5667C9.4165 11.6084 9.50817 11.6667 9.5915 11.7417C9.6665 11.8251 9.72484 11.9167 9.7665 12.0167C9.80817 12.1167 9.83317 12.2251 9.83317 12.3334C9.83317 12.4417 9.80817 12.5501 9.7665 12.6501Z"></path>
</symbol><symbol id="sprite:attention-fill" viewBox="0 0 22 22">
<circle cx="11" cy="11" r="10" fill="#307C32" stroke="#307C32" stroke-width="1.875"></circle>
<path d="M10.992 14H11.001" stroke="white" stroke-width="2.5" stroke-linecap="round" stroke-linejoin="round"></path>
<path d="M11 11L11 7" stroke="white" stroke-width="1.875" stroke-linecap="round" stroke-linejoin="round"></path>
</symbol><symbol id="sprite:attention" viewBox="0 0 26 26">
<circle cx="13" cy="13" r="12" stroke-width="1.875"></circle>
<path d="M12.9902 16.6H13.001" stroke-width="2.5" stroke-linecap="round" stroke-linejoin="round"></path>
<path d="M13 13L13 8.2" stroke-width="1.875" stroke-linecap="round" stroke-linejoin="round"></path>
</symbol><symbol id="sprite:badge-check" viewBox="0 0 24 24">
<g clip-path="url(#clip0_711_2935)">
<path d="M12.0003 24C10.3833 24 8.86427 23.292 7.82427 22.08C6.23727 22.204 4.65827 21.629 3.51427 20.485C2.37027 19.34 1.79727 17.766 1.91927 16.175C0.707268 15.136 -0.000732422 13.617 -0.000732422 12C-0.000732422 10.383 0.707268 8.864 1.91927 7.825C1.79727 6.234 2.37027 4.659 3.51427 3.515C4.65827 2.372 6.23727 1.803 7.82427 1.92C8.86427 0.708 10.3833 0 12.0003 0C13.6173 0 15.1363 0.708 16.1763 1.92C17.7633 1.801 19.3433 2.372 20.4863 3.515C21.6303 4.66 22.2033 6.234 22.0813 7.825C23.2933 8.864 24.0013 10.383 24.0013 12C24.0013 13.617 23.2933 15.136 22.0813 16.175C22.2033 17.766 21.6303 19.341 20.4863 20.485C19.3433 21.629 17.7643 22.204 16.1763 22.08C15.1363 23.292 13.6173 24 12.0003 24ZM8.72627 19.905L9.09627 20.454C9.74927 21.422 10.8353 22 12.0003 22C13.1653 22 14.2513 21.422 14.9043 20.454L15.2743 19.905L15.9233 20.031C17.0713 20.254 18.2463 19.895 19.0703 19.071C19.8943 18.246 20.2533 17.07 20.0303 15.925L19.9033 15.275L20.4533 14.905C21.4213 14.252 21.9993 13.166 21.9993 12.001C21.9993 10.836 21.4213 9.75 20.4533 9.097L19.9033 8.727L20.0303 8.077C20.2533 6.932 19.8943 5.755 19.0703 4.931C18.2463 4.107 17.0703 3.749 15.9233 3.971L15.2743 4.097L14.9043 3.548C14.2513 2.58 13.1653 2.002 12.0003 2.002C10.8353 2.002 9.74927 2.58 9.09627 3.548L8.72627 4.097L8.07727 3.971C6.93027 3.751 5.75427 4.107 4.93027 4.931C4.10627 5.756 3.74727 6.932 3.97027 8.077L4.09727 8.727L3.54727 9.097C2.57927 9.75 2.00127 10.836 2.00127 12.001C2.00127 13.166 2.57927 14.252 3.54727 14.905L4.09727 15.275L3.97027 15.925C3.74727 17.07 4.10627 18.247 4.93027 19.071C5.75427 19.894 6.92827 20.253 8.07727 20.031L8.72627 19.905ZM11.9103 15.42L17.7033 9.713L16.2993 8.288L10.4903 13.989L7.69727 11.282L6.30427 12.719L9.08627 15.415C9.47727 15.806 9.98927 16 10.5023 16C11.0153 16 11.5243 15.807 11.9103 15.42Z"></path>
</g>
<defs>
<clipPath id="clip0_711_2935">
<rect width="24" height="24"></rect>
</clipPath>
</defs>
</symbol><symbol id="sprite:bolt" viewBox="0 0 24 24">
<path d="M19.4492 8.61115C19.2727 8.37276 18.9929 8.23236 18.6962 8.23236H14.7807L15.8173 3.59921C15.8953 3.25057 15.7704 2.88779 15.4943 2.66165C15.4154 2.59757 13.5479 1.09088 11.3066 1.09088C9.01458 1.09088 7.15639 2.59946 7.07846 2.66353C6.92165 2.79168 6.81179 2.96789 6.76297 3.16482L4.39116 12.7571C4.32168 13.0379 4.38553 13.3357 4.56299 13.5647C4.74046 13.7927 5.01369 13.9265 5.30289 13.9265H9.08031L8.26811 20.7683C8.23056 21.0831 8.35168 21.3997 8.59675 21.6004C8.97045 21.9066 9.38172 21.8086 9.46998 21.7822C16.4906 19.6763 19.4736 9.85966 19.5976 9.44318C19.6821 9.15767 19.6257 8.84955 19.4492 8.61115Z"></path>
</symbol><symbol id="sprite:border" viewBox="0 0 467 467">
<path fill-rule="evenodd" clip-rule="evenodd" d="M238.101 466.956C236.571 466.985 235.037 467 233.5 467C231.963 467 230.429 466.985 228.899 466.956L228.918 465.956C230.442 465.985 231.969 466 233.5 466C235.031 466 236.558 465.985 238.082 465.956L238.101 466.956ZM219.744 466.602L219.802 465.603C216.752 465.426 213.718 465.19 210.701 464.896L210.604 465.892C213.634 466.187 216.681 466.424 219.744 466.602ZM201.49 464.824L201.625 463.833C198.6 463.418 195.592 462.945 192.605 462.415L192.43 463.4C195.431 463.932 198.451 464.407 201.49 464.824ZM183.438 461.621L183.651 460.644C180.671 459.993 177.713 459.285 174.777 458.521L174.525 459.488C177.474 460.256 180.445 460.967 183.438 461.621ZM165.696 457.003L165.986 456.046C163.065 455.161 160.169 454.221 157.299 453.225L156.971 454.17C159.854 455.17 162.763 456.115 165.696 457.003ZM148.369 450.995L148.733 450.064C145.895 448.952 143.084 447.786 140.301 446.567L139.9 447.483C142.695 448.707 145.518 449.879 148.369 450.995ZM131.577 443.64L132.014 442.741C129.273 441.409 126.561 440.024 123.881 438.589L123.409 439.47C126.101 440.912 128.824 442.302 131.577 443.64ZM115.411 434.982L115.918 434.119C113.291 432.576 110.697 430.983 108.137 429.341L107.597 430.183C110.168 431.832 112.773 433.432 115.411 434.982ZM99.9778 425.082L100.55 424.262C98.0534 422.518 95.5923 420.727 93.1684 418.89L92.5642 419.686C94.9986 421.532 97.4702 423.331 99.9778 425.082ZM85.3668 414.005L86.0017 413.232C83.649 411.299 81.3349 409.321 79.0608 407.299L78.3963 408.046C80.6801 410.077 83.0041 412.064 85.3668 414.005ZM71.6641 401.82L72.3573 401.099C70.1634 398.989 68.0109 396.837 65.901 394.643L65.1802 395.336C67.2991 397.539 69.4609 399.701 71.6641 401.82ZM58.9541 388.604L59.7014 387.939C57.6791 385.665 55.7008 383.351 53.7678 380.998L52.9951 381.633C54.9364 383.996 56.9232 386.32 58.9541 388.604ZM47.3135 374.436L48.1104 373.832C46.2727 371.408 44.4815 368.947 42.7381 366.45L41.9181 367.022C43.6691 369.53 45.468 372.001 47.3135 374.436ZM36.8171 359.403L37.6588 358.863C36.0168 356.303 34.4237 353.709 32.8807 351.082L32.0184 351.589C33.5681 354.227 35.1681 356.832 36.8171 359.403ZM27.5299 343.591L28.4114 343.118C26.9759 340.438 25.5915 337.727 24.2593 334.986L23.3599 335.423C24.6978 338.176 26.0882 340.899 27.5299 343.591ZM19.5167 327.1L20.4327 326.699C19.2138 323.916 18.0477 321.105 16.9359 318.266L16.0048 318.631C17.1214 321.482 18.2925 324.305 19.5167 327.1ZM12.8298 310.029L13.7746 309.701C12.7793 306.831 11.8387 303.935 10.9539 301.014L9.99687 301.304C10.8855 304.237 11.8302 307.146 12.8298 310.029ZM7.5115 292.475L8.47927 292.223C7.71525 289.287 7.00716 286.329 6.35622 283.349L5.37926 283.562C6.03302 286.555 6.74416 289.526 7.5115 292.475ZM3.60009 274.57L4.58472 274.395C4.05462 271.408 3.58157 268.4 3.16674 265.375L2.17601 265.51C2.59262 268.549 3.06771 271.569 3.60009 274.57ZM1.10826 256.396L2.10356 256.299C1.80994 253.282 1.57398 250.248 1.3968 247.198L0.39848 247.256C0.576414 250.319 0.813381 253.366 1.10826 256.396ZM0.0444267 238.101L1.04424 238.082C1.01479 236.558 1 235.031 1 233.5C1 231.969 1.01479 230.442 1.04424 228.918L0.0444288 228.899C0.0148548 230.429 0 231.963 0 233.5C0 235.037 0.0148541 236.571 0.0444267 238.101ZM0.398486 219.744L1.3968 219.802C1.57398 216.752 1.80994 213.718 2.10357 210.701L1.10827 210.604C0.813388 213.634 0.57642 216.681 0.398486 219.744ZM2.17602 201.49L3.16675 201.625C3.58158 198.6 4.05463 195.592 4.58473 192.605L3.60011 192.43C3.06772 195.431 2.59264 198.451 2.17602 201.49ZM5.37928 183.438L6.35624 183.651C7.00718 180.671 7.71526 177.713 8.47929 174.777L7.51152 174.525C6.74419 177.474 6.03303 180.445 5.37928 183.438ZM9.99689 165.696L10.9539 165.986C11.8387 163.065 12.7793 160.169 13.7746 157.299L12.8298 156.971C11.8302 159.854 10.8855 162.763 9.99689 165.696ZM16.0048 148.369L16.9359 148.733C18.0478 145.895 19.2138 143.084 20.4327 140.301L19.5167 139.9C18.2925 142.695 17.1215 145.518 16.0048 148.369ZM23.3599 131.577L24.2593 132.014C25.5915 129.273 26.976 126.561 28.4114 123.881L27.5299 123.409C26.0883 126.101 24.6978 128.824 23.3599 131.577ZM32.0185 115.411L32.8807 115.918C34.4237 113.291 36.0169 110.697 37.6588 108.137L36.8171 107.597C35.1681 110.168 33.5681 112.773 32.0185 115.411ZM41.9182 99.9778L42.7381 100.55C44.4816 98.0534 46.2728 95.5923 48.1105 93.1684L47.3136 92.5642C45.468 94.9986 43.6691 97.4702 41.9182 99.9778ZM52.9952 85.3669L53.7678 86.0017C55.7009 83.649 57.6792 81.3349 59.7014 79.0608L58.9542 78.3963C56.9232 80.6801 54.9365 83.0041 52.9952 85.3669ZM65.1803 71.6641L65.901 72.3573C68.0109 70.1634 70.1635 68.0109 72.3574 65.901L71.6642 65.1802C69.4609 67.2991 67.2992 69.4609 65.1803 71.6641ZM78.3963 58.9541L79.0609 59.7014C81.335 57.6791 83.649 55.7008 86.0017 53.7678L85.3669 52.9951C83.0042 54.9364 80.6802 56.9232 78.3963 58.9541ZM92.5643 47.3135L93.1685 48.1104C95.5924 46.2727 98.0535 44.4815 100.55 42.7381L99.9779 41.9182C97.4702 43.6691 94.9986 45.468 92.5643 47.3135ZM107.597 36.8171L108.137 37.6588C110.697 36.0168 113.291 34.4237 115.918 32.8807L115.411 32.0184C112.773 33.5681 110.168 35.1681 107.597 36.8171ZM123.409 27.5299L123.882 28.4114C126.562 26.9759 129.273 25.5915 132.014 24.2593L131.577 23.3599C128.824 24.6978 126.101 26.0882 123.409 27.5299ZM139.9 19.5167L140.301 20.4327C143.084 19.2138 145.895 18.0477 148.734 16.9359L148.369 16.0048C145.518 17.1214 142.695 18.2925 139.9 19.5167ZM156.971 12.8298L157.299 13.7746C160.169 12.7793 163.065 11.8387 165.986 10.9539L165.696 9.99687C162.763 10.8855 159.854 11.8302 156.971 12.8298ZM174.525 7.5115L174.777 8.47927C177.713 7.71525 180.671 7.00716 183.651 6.35622L183.438 5.37926C180.445 6.03302 177.474 6.74417 174.525 7.5115ZM192.43 3.6001L192.605 4.58472C195.592 4.05462 198.6 3.58157 201.625 3.16674L201.49 2.17601C198.451 2.59262 195.431 3.06771 192.43 3.6001ZM210.604 1.10826L210.701 2.10356C213.718 1.80994 216.752 1.57398 219.802 1.3968L219.744 0.398481C216.681 0.576414 213.634 0.813381 210.604 1.10826ZM228.899 0.0444267C230.429 0.0148541 231.963 0 233.5 0C235.037 0 236.571 0.0148548 238.101 0.0444288L238.082 1.04424C236.558 1.01479 235.031 1 233.5 1C231.969 1 230.442 1.01479 228.918 1.04424L228.899 0.0444267ZM247.256 0.398486L247.198 1.3968C250.248 1.57398 253.282 1.80994 256.299 2.10357L256.396 1.10827C253.366 0.813388 250.319 0.57642 247.256 0.398486ZM265.51 2.17602L265.375 3.16675C268.4 3.58158 271.408 4.05463 274.395 4.58473L274.57 3.60011C271.569 3.06772 268.549 2.59264 265.51 2.17602ZM283.562 5.37928L283.349 6.35624C286.329 7.00718 289.287 7.71526 292.223 8.47929L292.475 7.51152C289.526 6.74419 286.555 6.03303 283.562 5.37928ZM301.304 9.99689L301.014 10.9539C303.935 11.8387 306.831 12.7793 309.701 13.7746L310.029 12.8298C307.146 11.8302 304.237 10.8855 301.304 9.99689ZM318.631 16.0048L318.267 16.9359C321.105 18.0478 323.916 19.2138 326.699 20.4327L327.1 19.5167C324.305 18.2925 321.482 17.1215 318.631 16.0048ZM335.423 23.3599L334.986 24.2593C337.727 25.5915 340.439 26.976 343.119 28.4114L343.591 27.5299C340.899 26.0882 338.176 24.6978 335.423 23.3599ZM351.589 32.0185L351.082 32.8807C353.709 34.4237 356.303 36.0169 358.863 37.6588L359.403 36.8171C356.832 35.1681 354.227 33.5681 351.589 32.0185ZM367.022 41.9182L366.45 42.7381C368.947 44.4816 371.408 46.2728 373.832 48.1105L374.436 47.3136C372.001 45.468 369.53 43.6691 367.022 41.9182ZM381.633 52.9952L380.998 53.7678C383.351 55.7009 385.665 57.6792 387.939 59.7014L388.604 58.9542C386.32 56.9232 383.996 54.9365 381.633 52.9952ZM395.336 65.1803L394.643 65.901C396.837 68.0109 398.989 70.1635 401.099 72.3574L401.82 71.6642C399.701 69.4609 397.539 67.2992 395.336 65.1803ZM408.046 78.3963L407.299 79.0609C409.321 81.335 411.299 83.649 413.232 86.0017L414.005 85.3669C412.064 83.0042 410.077 80.6802 408.046 78.3963ZM419.686 92.5643L418.89 93.1685C420.727 95.5924 422.518 98.0535 424.262 100.55L425.082 99.9779C423.331 97.4702 421.532 94.9986 419.686 92.5643ZM430.183 107.597L429.341 108.137C430.983 110.697 432.576 113.291 434.119 115.918L434.982 115.411C433.432 112.773 431.832 110.168 430.183 107.597ZM439.47 123.409L438.589 123.882C440.024 126.562 441.409 129.273 442.741 132.014L443.64 131.577C442.302 128.824 440.912 126.101 439.47 123.409ZM447.483 139.9L446.567 140.301C447.786 143.084 448.952 145.895 450.064 148.734L450.995 148.369C449.879 145.518 448.707 142.695 447.483 139.9ZM454.17 156.971L453.225 157.299C454.221 160.169 455.161 163.065 456.046 165.986L457.003 165.696C456.115 162.763 455.17 159.854 454.17 156.971ZM459.488 174.525L458.521 174.777C459.285 177.713 459.993 180.671 460.644 183.651L461.621 183.438C460.967 180.445 460.256 177.474 459.488 174.525ZM463.4 192.43L462.415 192.605C462.945 195.592 463.418 198.6 463.833 201.625L464.824 201.49C464.407 198.451 463.932 195.431 463.4 192.43ZM465.892 210.604L464.896 210.701C465.19 213.718 465.426 216.752 465.603 219.802L466.602 219.744C466.424 216.681 466.187 213.634 465.892 210.604ZM466.956 228.899L465.956 228.918C465.985 230.442 466 231.969 466 233.5C466 235.031 465.985 236.558 465.956 238.082L466.956 238.101C466.985 236.571 467 235.037 467 233.5C467 231.963 466.985 230.429 466.956 228.899ZM466.602 247.256L465.603 247.198C465.426 250.248 465.19 253.282 464.896 256.299L465.892 256.396C466.187 253.366 466.424 250.319 466.602 247.256ZM464.824 265.51L463.833 265.375C463.418 268.4 462.945 271.408 462.415 274.395L463.4 274.57C463.932 271.569 464.407 268.549 464.824 265.51ZM461.621 283.562L460.644 283.349C459.993 286.329 459.285 289.287 458.521 292.223L459.488 292.475C460.256 289.526 460.967 286.555 461.621 283.562ZM457.003 301.304L456.046 301.014C455.161 303.935 454.221 306.831 453.225 309.701L454.17 310.029C455.17 307.146 456.115 304.237 457.003 301.304ZM450.995 318.631L450.064 318.267C448.952 321.105 447.786 323.916 446.567 326.699L447.483 327.1C448.707 324.305 449.879 321.482 450.995 318.631ZM443.64 335.423L442.741 334.986C441.409 337.727 440.024 340.439 438.589 343.119L439.47 343.591C440.912 340.899 442.302 338.176 443.64 335.423ZM434.982 351.589L434.119 351.082C432.576 353.709 430.983 356.303 429.341 358.863L430.183 359.403C431.832 356.832 433.432 354.227 434.982 351.589ZM425.082 367.022L424.262 366.45C422.518 368.947 420.727 371.408 418.89 373.832L419.686 374.436C421.532 372.001 423.331 369.53 425.082 367.022ZM414.005 381.633L413.232 380.998C411.299 383.351 409.321 385.665 407.299 387.939L408.046 388.604C410.077 386.32 412.064 383.996 414.005 381.633ZM401.82 395.336L401.099 394.643C398.989 396.837 396.837 398.989 394.643 401.099L395.336 401.82C397.539 399.701 399.701 397.539 401.82 395.336ZM388.604 408.046L387.939 407.299C385.665 409.321 383.351 411.299 380.998 413.232L381.633 414.005C383.996 412.064 386.32 410.077 388.604 408.046ZM374.436 419.686L373.832 418.89C371.408 420.727 368.947 422.518 366.45 424.262L367.022 425.082C369.53 423.331 372.001 421.532 374.436 419.686ZM359.403 430.183L358.863 429.341C356.303 430.983 353.709 432.576 351.082 434.119L351.589 434.982C354.227 433.432 356.832 431.832 359.403 430.183ZM343.591 439.47L343.118 438.589C340.438 440.024 337.727 441.409 334.986 442.741L335.423 443.64C338.176 442.302 340.899 440.912 343.591 439.47ZM327.1 447.483L326.699 446.567C323.916 447.786 321.105 448.952 318.266 450.064L318.631 450.995C321.482 449.879 324.305 448.707 327.1 447.483ZM310.029 454.17L309.701 453.225C306.831 454.221 303.935 455.161 301.014 456.046L301.304 457.003C304.237 456.115 307.146 455.17 310.029 454.17ZM292.475 459.488L292.223 458.521C289.287 459.285 286.329 459.993 283.349 460.644L283.562 461.621C286.555 460.967 289.526 460.256 292.475 459.488ZM274.57 463.4L274.395 462.415C271.408 462.945 268.4 463.418 265.375 463.833L265.51 464.824C268.549 464.407 271.569 463.932 274.57 463.4ZM256.396 465.892L256.299 464.896C253.282 465.19 250.248 465.426 247.198 465.603L247.256 466.602C250.319 466.424 253.366 466.187 256.396 465.892Z"></path>
<path fill-rule="evenodd" clip-rule="evenodd" d="M334.186 23.9325C292.023 3.67555 244.73 -3.39253 198.487 3.65174C152.244 10.696 109.201 31.5251 74.9817 63.4173L74.2999 62.6858C108.666 30.6564 151.894 9.73773 198.336 2.66315C244.778 -4.41143 292.274 2.68706 334.619 23.0311C376.963 43.3752 412.186 76.0187 435.686 116.696C459.186 157.374 469.869 204.194 466.34 251.039L465.343 250.964C468.857 204.32 458.219 157.7 434.82 117.197C411.421 76.6931 376.349 44.1894 334.186 23.9325Z"></path>
</symbol><symbol id="sprite:build" viewBox="0 0 24 24">
<g clip-path="url(#clip0_1092_2487)">
<path d="M19.5 0H15C13.897 0 13 0.897 13 2V6C13 7.103 13.897 8 15 8H22C23.103 8 24 7.103 24 6V4.5C24 2.019 21.981 0 19.5 0ZM15 6V2H19.5C20.879 2 22 3.122 22 4.5V6H15ZM22 10H8V6C8 4.897 7.103 4 6 4H4.5C2.019 4 0 6.019 0 8.5V19.5C0 21.981 2.019 24 4.5 24H19.5C21.981 24 24 21.981 24 19.5V12C24 10.897 23.103 10 22 10ZM22 16H13V12H22V16ZM16 18V22H8V18H16ZM2 8.5C2 7.122 3.121 6 4.5 6H6V10H2V8.5ZM11 12V16H2V12H11ZM2 19.5V18H6V22H4.5C3.121 22 2 20.878 2 19.5ZM19.5 22H18V18H22V19.5C22 20.878 20.879 22 19.5 22Z"></path>
</g>
<defs>
<clipPath id="clip0_1092_2487">
<rect width="24" height="24"></rect>
</clipPath>
</defs>
</symbol><symbol id="sprite:calculator" viewBox="0 0 23 30">
<path d="M0 27.645C0 28.83 0.959999 29.79 2.145 29.79H20.685C21.87 29.79 22.83 28.83 22.83 27.645V8.35201H0V27.645ZM16.23 11.127C16.23 10.872 16.437 10.665 16.692 10.665H19.494C19.749 10.665 19.956 10.872 19.956 11.127V13.929C19.956 14.184 19.749 14.391 19.494 14.391H16.692C16.437 14.391 16.23 14.184 16.23 13.929V11.127ZM16.23 17.229C16.23 16.974 16.437 16.767 16.692 16.767H19.494C19.749 16.767 19.956 16.974 19.956 17.229V20.031C19.956 20.286 19.749 20.493 19.494 20.493H16.692C16.437 20.493 16.23 20.286 16.23 20.031V17.229ZM9.552 11.127C9.552 10.872 9.759 10.665 10.014 10.665H12.816C13.071 10.665 13.278 10.872 13.278 11.127V13.929C13.278 14.184 13.071 14.391 12.816 14.391H10.014C9.759 14.391 9.552 14.184 9.552 13.929V11.127ZM9.552 17.229C9.552 16.974 9.759 16.767 10.014 16.767H12.816C13.071 16.767 13.278 16.974 13.278 17.229V20.031C13.278 20.286 13.071 20.493 12.816 20.493H10.014C9.759 20.493 9.552 20.286 9.552 20.031V17.229ZM9.552 23.268C9.552 23.013 9.759 22.806 10.014 22.806H19.494C19.749 22.806 19.956 23.013 19.956 23.268V26.07C19.956 26.325 19.749 26.532 19.494 26.532H10.014C9.759 26.532 9.552 26.325 9.552 26.07V23.268ZM2.874 11.124C2.874 10.869 3.081 10.662 3.336 10.662H6.138C6.393 10.662 6.6 10.869 6.6 11.124V13.926C6.6 14.181 6.393 14.388 6.138 14.388H3.336C3.081 14.388 2.874 14.181 2.874 13.926V11.124ZM2.874 17.226C2.874 16.971 3.081 16.764 3.336 16.764H6.138C6.393 16.764 6.6 16.971 6.6 17.226V20.028C6.6 20.283 6.393 20.49 6.138 20.49H3.336C3.081 20.49 2.874 20.283 2.874 20.028V17.226ZM2.874 23.265C2.874 23.01 3.081 22.803 3.336 22.803H6.138C6.393 22.803 6.6 23.01 6.6 23.265V26.067C6.6 26.322 6.393 26.529 6.138 26.529H3.336C3.081 26.529 2.874 26.322 2.874 26.067V23.265Z"></path>
<path d="M20.685 0H2.145C0.959999 0 0 0.96 0 2.145V8.355H22.83V2.145C22.83 0.96 21.87 0 20.685 0ZM19.956 5.577C19.956 5.832 19.749 6.039 19.494 6.039H3.336C3.081 6.039 2.874 5.832 2.874 5.577V2.775C2.874 2.52 3.081 2.313 3.336 2.313H19.494C19.749 2.313 19.956 2.52 19.956 2.775V5.577Z" fill-opacity="0.7"></path>
</symbol><symbol id="sprite:calendar" viewBox="0 0 24 24">
<g clip-path="url(#clip0_709_2785)">
<path d="M19 2H18V1C18 0.734784 17.8946 0.48043 17.7071 0.292893C17.5196 0.105357 17.2652 0 17 0C16.7348 0 16.4804 0.105357 16.2929 0.292893C16.1054 0.48043 16 0.734784 16 1V2H8V1C8 0.734784 7.89464 0.48043 7.70711 0.292893C7.51957 0.105357 7.26522 0 7 0C6.73478 0 6.48043 0.105357 6.29289 0.292893C6.10536 0.48043 6 0.734784 6 1V2H5C3.67441 2.00159 2.40356 2.52888 1.46622 3.46622C0.528882 4.40356 0.00158786 5.67441 0 7L0 19C0.00158786 20.3256 0.528882 21.5964 1.46622 22.5338C2.40356 23.4711 3.67441 23.9984 5 24H19C20.3256 23.9984 21.5964 23.4711 22.5338 22.5338C23.4711 21.5964 23.9984 20.3256 24 19V7C23.9984 5.67441 23.4711 4.40356 22.5338 3.46622C21.5964 2.52888 20.3256 2.00159 19 2ZM2 7C2 6.20435 2.31607 5.44129 2.87868 4.87868C3.44129 4.31607 4.20435 4 5 4H19C19.7956 4 20.5587 4.31607 21.1213 4.87868C21.6839 5.44129 22 6.20435 22 7V8H2V7ZM19 22H5C4.20435 22 3.44129 21.6839 2.87868 21.1213C2.31607 20.5587 2 19.7956 2 19V10H22V19C22 19.7956 21.6839 20.5587 21.1213 21.1213C20.5587 21.6839 19.7956 22 19 22Z"></path>
<path d="M12 16.5C12.8284 16.5 13.5 15.8284 13.5 15C13.5 14.1716 12.8284 13.5 12 13.5C11.1716 13.5 10.5 14.1716 10.5 15C10.5 15.8284 11.1716 16.5 12 16.5Z"></path>
<path d="M7 16.5C7.82843 16.5 8.5 15.8284 8.5 15C8.5 14.1716 7.82843 13.5 7 13.5C6.17157 13.5 5.5 14.1716 5.5 15C5.5 15.8284 6.17157 16.5 7 16.5Z"></path>
<path d="M17 16.5C17.8284 16.5 18.5 15.8284 18.5 15C18.5 14.1716 17.8284 13.5 17 13.5C16.1716 13.5 15.5 14.1716 15.5 15C15.5 15.8284 16.1716 16.5 17 16.5Z"></path>
</g>
<defs>
<clipPath id="clip0_709_2785">
<rect width="24" height="24"></rect>
</clipPath>
</defs>
</symbol><symbol id="sprite:case" viewBox="0 0 24 24">
<g clip-path="url(#clip0_416_999)">
<path d="M19 4H17.899C17.434 1.721 15.414 0 13 0H11C8.586 0 6.565 1.721 6.101 4H5C2.243 4 0 6.243 0 9V19C0 21.757 2.243 24 5 24H19C21.757 24 24 21.757 24 19V9C24 6.243 21.757 4 19 4ZM11 2H13C14.304 2 15.415 2.836 15.828 4H8.172C8.585 2.836 9.696 2 11 2ZM5 6H19C20.654 6 22 7.346 22 9V10H19V9C19 8.448 18.553 8 18 8C17.447 8 17 8.448 17 9V10H7V9C7 8.448 6.553 8 6 8C5.447 8 5 8.448 5 9V10H2V9C2 7.346 3.346 6 5 6ZM19 22H5C3.346 22 2 20.654 2 19V12H5V13C5 13.552 5.447 14 6 14C6.553 14 7 13.552 7 13V12H17V13C17 13.552 17.447 14 18 14C18.553 14 19 13.552 19 13V12H22V19C22 20.654 20.654 22 19 22Z"></path>
</g>
<defs>
<clipPath id="clip0_416_999">
<rect width="24" height="24"></rect>
</clipPath>
</defs>
</symbol><symbol id="sprite:catalog" viewBox="0 0 30 30">
<g clip-path="url(#clip0_1105_2147)">
<path d="M27.8839 1.22998C26.5389 0.156228 24.8051 -0.242522 23.1351 0.139978L13.5064 2.24498L10.2664 0.646228C8.53512 -0.208772 6.46512 -0.208772 4.73387 0.646228L2.78512 1.60748C1.06762 2.45623 0.000117186 4.17373 0.000117186 6.08748L-0.0361328 26.7175C-0.0361328 28.5675 0.868867 29.3562 1.40762 29.6625C1.69262 29.8225 2.13887 30 2.73387 30C3.30512 30 4.01262 29.8362 4.84387 29.3387L7.58012 27.6337L11.4501 29.48C12.9001 30.0062 14.4701 30.1362 15.9839 29.8612L24.8676 28.285C27.8414 27.745 29.9989 25.1587 29.9989 22.1362V5.62748C29.9989 3.90623 29.2289 2.30373 27.8839 1.22998ZM3.53887 27.2062C2.98387 27.5412 2.68637 27.5162 2.63887 27.4875C2.61137 27.4712 2.46262 27.2712 2.46262 26.7212L2.49887 6.09123C2.49887 5.13248 3.03262 4.27373 3.89137 3.84873L5.83887 2.88748C5.97262 2.82123 6.11012 2.76373 6.24887 2.71498V25.5162L3.53762 27.2062H3.53887ZM8.75012 25.4225V2.71498C8.89012 2.76373 9.02637 2.82123 9.16012 2.88748L12.5001 4.53623V27.2037C12.4714 27.1937 8.75012 25.4225 8.75012 25.4225ZM27.5001 22.1362C27.5001 23.95 26.2051 25.5012 24.4264 25.825C24.4264 25.825 15.1814 27.4562 15.0001 27.4737V4.47623L23.6789 2.57873C24.6114 2.36748 25.5764 2.58748 26.3226 3.18373C27.0714 3.77998 27.4989 4.66998 27.4989 5.62623V22.1337L27.5001 22.1362ZM25.0001 6.55123C25.1476 7.22623 24.7201 7.89248 24.0464 8.03873C24.0464 8.03873 18.8364 9.16623 18.7489 9.16623C18.1739 9.16623 17.6564 8.76748 17.5289 8.18373C17.3814 7.50873 17.8089 6.84248 18.4826 6.69623L23.5114 5.59748C24.1939 5.44873 24.8539 5.87873 25.0001 6.55123ZM25.0001 11.5512C25.1476 12.2262 24.7201 12.8925 24.0464 13.0387C24.0464 13.0387 18.8364 14.1662 18.7489 14.1662C18.1739 14.1662 17.6564 13.7675 17.5289 13.1837C17.3814 12.5087 17.8089 11.8425 18.4826 11.6962L23.5114 10.5975C24.1939 10.4475 24.8539 10.8787 25.0001 11.5512ZM25.0001 16.5512C25.1476 17.2262 24.7201 17.8925 24.0464 18.0387C24.0464 18.0387 18.8364 19.1662 18.7489 19.1662C18.1739 19.1662 17.6564 18.7675 17.5289 18.1837C17.3814 17.5087 17.8089 16.8425 18.4826 16.6962L23.5114 15.5975C24.1939 15.4512 24.8539 15.8787 25.0001 16.5512ZM22.4851 22.1C22.6326 22.775 22.2051 23.4412 21.5314 23.5875C21.5314 23.5875 18.8364 24.1662 18.7476 24.1662C18.1726 24.1662 17.6551 23.7675 17.5276 23.1837C17.3801 22.5087 17.8076 21.8425 18.4814 21.6962L20.9964 21.1475C21.6751 20.9987 22.3376 21.4287 22.4839 22.1012L22.4851 22.1Z"></path>
</g>
<defs>
<clipPath id="clip0_1105_2147">
<rect width="30" height="30"></rect>
</clipPath>
</defs>
</symbol><symbol id="sprite:check-circle" viewBox="0 0 18 17">
<path d="M8.99984 0.166748C4.40817 0.166748 0.666504 3.90841 0.666504 8.50008C0.666504 13.0917 4.40817 16.8334 8.99984 16.8334C13.5915 16.8334 17.3332 13.0917 17.3332 8.50008C17.3332 3.90841 13.5915 0.166748 8.99984 0.166748ZM12.9832 6.58341L8.25817 11.3084C8.1415 11.4251 7.98317 11.4917 7.8165 11.4917C7.64984 11.4917 7.4915 11.4251 7.37484 11.3084L5.0165 8.95008C4.77484 8.70841 4.77484 8.30841 5.0165 8.06675C5.25817 7.82508 5.65817 7.82508 5.89984 8.06675L7.8165 9.98341L12.0998 5.70008C12.3415 5.45841 12.7415 5.45841 12.9832 5.70008C13.2248 5.94175 13.2248 6.33341 12.9832 6.58341Z"></path>
</symbol><symbol id="sprite:check" viewBox="0 0 24 24">
<path d="M7.79996 21.425C7.46562 21.4251 7.13452 21.3593 6.82565 21.2313C6.51678 21.1033 6.23619 20.9156 5.99996 20.679L0.438965 15.121L2.56097 13L7.79996 18.239L21.439 4.60001L23.561 6.72101L9.59997 20.679C9.36374 20.9156 9.08315 21.1033 8.77428 21.2313C8.46541 21.3593 8.13431 21.4251 7.79996 21.425Z"></path>
</symbol><symbol id="sprite:checkmark-circle" viewBox="0 0 80 80">
<path d="M39.9993 75.8334C20.2091 75.8334 4.16602 59.7904 4.16602 40.0001C4.16602 20.2099 20.2091 4.16675 39.9993 4.16675C59.7897 4.16675 75.8327 20.2099 75.8327 40.0001C75.8327 59.7904 59.7897 75.8334 39.9993 75.8334Z" fill="#307C32"></path>
<path fill-rule="evenodd" clip-rule="evenodd" d="M55.7913 32.2525C57.035 30.8955 56.9433 28.7869 55.5863 27.5429C54.2293 26.299 52.1207 26.3906 50.8767 27.7477L34.896 45.1814L29.0244 39.3098C27.7226 38.0081 25.6121 38.0081 24.3103 39.3098C23.0086 40.6114 23.0086 42.7221 24.3103 44.0238L32.6436 52.3571C33.2865 53.0001 34.164 53.3524 35.073 53.3328C35.982 53.3128 36.8433 52.9228 37.458 52.2524L55.7913 32.2525Z" fill="white"></path>
</symbol><symbol id="sprite:circle-user" viewBox="0 0 14 14">
<path d="M9.33333 13.5998C8.603 13.8588 7.81783 14 7 14C6.18217 14 5.397 13.8588 4.66667 13.5998V12.25C4.66667 10.9632 5.71317 9.91667 7 9.91667C8.28683 9.91667 9.33333 10.9632 9.33333 12.25V13.5998ZM7 4.08333C6.35658 4.08333 5.83333 4.60658 5.83333 5.25C5.83333 5.89342 6.35658 6.41667 7 6.41667C7.64342 6.41667 8.16667 5.89342 8.16667 5.25C8.16667 4.60658 7.64342 4.08333 7 4.08333ZM14 7C14 9.58592 12.5907 11.8481 10.5 13.0602V12.25C10.5 10.3197 8.93025 8.75 7 8.75C5.06975 8.75 3.5 10.3197 3.5 12.25V13.0602C1.40933 11.8481 0 9.58592 0 7C0 3.14008 3.14008 0 7 0C10.8599 0 14 3.14008 14 7ZM9.33333 5.25C9.33333 3.96317 8.28683 2.91667 7 2.91667C5.71317 2.91667 4.66667 3.96317 4.66667 5.25C4.66667 6.53683 5.71317 7.58333 7 7.58333C8.28683 7.58333 9.33333 6.53683 9.33333 5.25Z"></path>
</symbol><symbol id="sprite:circle" viewBox="0 0 16 16">
<circle cx="8" cy="8" r="5"></circle>
</symbol><symbol id="sprite:clock" viewBox="0 0 16 17">
<g clip-path="url(#clip0_1222_5477)">
<path d="M8 16.5C3.58867 16.5 0 12.9113 0 8.5C0 4.08867 3.58867 0.5 8 0.5C12.4113 0.5 16 4.08867 16 8.5C16 12.9113 12.4113 16.5 8 16.5ZM8 1.83333C4.324 1.83333 1.33333 4.824 1.33333 8.5C1.33333 12.176 4.324 15.1667 8 15.1667C11.676 15.1667 14.6667 12.176 14.6667 8.5C14.6667 4.824 11.676 1.83333 8 1.83333ZM11.3333 8.5C11.3333 8.13133 11.0353 7.83333 10.6667 7.83333H8.66667V4.5C8.66667 4.13133 8.368 3.83333 8 3.83333C7.632 3.83333 7.33333 4.13133 7.33333 4.5V8.5C7.33333 8.86867 7.632 9.16667 8 9.16667H10.6667C11.0353 9.16667 11.3333 8.86867 11.3333 8.5Z"></path>
</g>
<defs>
<clipPath id="clip0_1222_5477">
<rect width="16" height="16" transform="translate(0 0.5)"></rect>
</clipPath>
</defs>
</symbol><symbol id="sprite:cube" viewBox="0 0 30 30">
<path d="M25.605 6.05004L17.48 1.40629C15.9488 0.532539 14.0487 0.532539 12.52 1.40629L4.395 6.05004C2.84125 6.93754 1.875 8.60129 1.875 10.3913V19.61C1.875 21.4 2.84 23.0638 4.395 23.9513L12.52 28.595C13.285 29.0325 14.1425 29.25 15 29.25C15.8575 29.25 16.715 29.0313 17.48 28.595L25.605 23.9513C27.1587 23.0625 28.125 21.4 28.125 19.61V10.3913C28.125 8.60129 27.16 6.93879 25.605 6.05004ZM13.7587 3.57629C14.525 3.14004 15.4763 3.14004 16.2388 3.57629L24.3538 8.21379L21.1588 10.04C20.985 9.89254 20.8162 9.73879 20.6162 9.62379L16.865 7.47004C15.7125 6.80879 14.285 6.80879 13.1313 7.47004L9.38125 9.62379C9.18 9.73879 9.01125 9.89254 8.8375 10.04L5.6425 8.21379L13.7575 3.57629H13.7587ZM9.99875 13.5825L13.7487 15.725V20.005L10.6287 18.2225C10.24 18 9.99875 17.5838 9.99875 17.1375V13.5825ZM14.9987 13.5613L11.2638 11.4263L14.3763 9.63879C14.5675 9.52879 14.7837 9.47379 14.9987 9.47379C15.2137 9.47379 15.4288 9.52879 15.6213 9.63879L18.735 11.4263L15 13.5613H14.9987ZM16.2487 15.7263L19.9987 13.5838V17.1388C19.9987 17.585 19.7575 18.0013 19.3687 18.2238L16.2487 20.0063V15.7263ZM5.63375 21.7813C4.85625 21.3375 4.37375 20.505 4.37375 19.6113V10.3925C4.37375 10.385 4.37625 10.3788 4.37625 10.3725L7.58875 12.2075C7.5475 12.4288 7.49875 12.6488 7.49875 12.8788V17.14C7.49875 18.4813 8.2225 19.7288 9.38875 20.395L13.1388 22.5375C13.3325 22.6488 13.5425 22.7138 13.75 22.7863V26.4188L5.63375 21.7813ZM25.6238 19.6113C25.6238 20.5063 25.1412 21.3375 24.3637 21.7813L16.2487 26.42V22.7863C16.455 22.7125 16.665 22.6475 16.8588 22.5375L20.61 20.395C21.775 19.7288 22.4988 18.4813 22.4988 17.14V12.8788C22.4988 12.65 22.45 12.43 22.4088 12.2075L25.6213 10.3725C25.6213 10.38 25.6238 10.3863 25.6238 10.3925V19.6113Z"></path>
</symbol><symbol id="sprite:envelope" viewBox="0 0 14 14">
<g clip-path="url(#clip0_1309_2087)">
<path d="M13.9732 3.23285L9.06267 8.14335C8.51513 8.6895 7.77335 8.9962 7 8.9962C6.22665 8.9962 5.48487 8.6895 4.93733 8.14335L0.0268333 3.23285C0.0186667 3.32502 0 3.40843 0 3.50002V10.5C0.00092625 11.2733 0.308514 12.0146 0.855295 12.5614C1.40208 13.1082 2.1434 13.4158 2.91667 13.4167H11.0833C11.8566 13.4158 12.5979 13.1082 13.1447 12.5614C13.6915 12.0146 13.9991 11.2733 14 10.5V3.50002C14 3.40843 13.9813 3.32502 13.9732 3.23285Z"></path>
<path d="M8.23792 7.31848L13.5661 1.98973C13.308 1.56175 12.9439 1.2075 12.5091 0.961156C12.0742 0.71481 11.5832 0.584678 11.0834 0.583313H2.91675C2.41696 0.584678 1.92596 0.71481 1.4911 0.961156C1.05624 1.2075 0.692195 1.56175 0.434082 1.98973L5.76225 7.31848C6.091 7.64591 6.53609 7.82975 7.00008 7.82975C7.46407 7.82975 7.90917 7.64591 8.23792 7.31848Z"></path>
</g>
<defs>
<clipPath id="clip0_1309_2087">
<rect width="14" height="14"></rect>
</clipPath>
</defs>
</symbol><symbol id="sprite:fence-1" viewBox="0 0 48 48">
<path d="M38.6171 17.348H9.38278C9.08414 17.348 8.84204 17.5901 8.84204 17.8887V20.9413C8.84204 21.24 9.08414 21.4821 9.38278 21.4821H38.6171C38.9157 21.4821 39.1578 21.24 39.1578 20.9413V17.8887C39.1578 17.5901 38.9157 17.348 38.6171 17.348Z" fill-opacity="0.4"></path>
<path d="M38.6171 25.6184H9.38278C9.08414 25.6184 8.84204 25.8605 8.84204 26.1592V29.2118C8.84204 29.5104 9.08414 29.7525 9.38278 29.7525H38.6171C38.9157 29.7525 39.1578 29.5104 39.1578 29.2118V26.1592C39.1578 25.8605 38.9157 25.6184 38.6171 25.6184Z" fill-opacity="0.4"></path>
<path d="M15.2569 34.4689H13.2049C12.373 34.4689 11.6982 33.7942 11.6982 32.9623V16.0424C11.6982 15.7212 11.8022 15.4069 11.994 15.1458L13.6255 12.9366C13.9259 12.5299 14.5359 12.5299 14.8387 12.9366L16.4701 15.1458C16.6619 15.4046 16.7659 15.7189 16.7659 16.0424V32.9623C16.7659 33.7942 16.0911 34.4689 15.2592 34.4689H15.2569Z"></path>
<path d="M25.0272 34.4689H22.9752C22.1433 34.4689 21.4685 33.7942 21.4685 32.9623V16.0424C21.4685 15.7212 21.5725 15.4069 21.7643 15.1458L23.3957 12.9366C23.6961 12.5299 24.3062 12.5299 24.6089 12.9366L26.2404 15.1458C26.4322 15.4046 26.5362 15.7189 26.5362 16.0424V32.9623C26.5362 33.7942 25.8614 34.4689 25.0295 34.4689H25.0272Z"></path>
<path d="M34.7972 34.4689H32.7452C31.9133 34.4689 31.2385 33.7942 31.2385 32.9623V16.0424C31.2385 15.7212 31.3425 15.4069 31.5343 15.1458L33.1658 12.9366C33.4662 12.5299 34.0762 12.5299 34.3789 12.9366L36.0104 15.1458C36.2022 15.4046 36.3062 15.7189 36.3062 16.0424V32.9623C36.3062 33.7942 35.6314 34.4689 34.7995 34.4689H34.7972Z"></path>
</symbol><symbol id="sprite:fence-2" viewBox="0 0 48 48">
<g clip-path="url(#clip0_416_881)">
<path d="M7.82353 19.3133C9.04345 19.3133 10.0367 20.304 10.0367 21.5265V33.9014C10.0367 34.1535 9.83041 34.3598 9.57828 34.3598H6.06878C5.81664 34.3598 5.61035 34.1535 5.61035 33.9014V21.5265C5.61035 20.3065 6.60106 19.3133 7.82353 19.3133Z"></path>
<path d="M39.7452 19.3133C40.9651 19.3133 41.9583 20.304 41.9583 21.5265V33.9014C41.9583 34.1535 41.752 34.3598 41.4999 34.3598H37.9904C37.7383 34.3598 37.532 34.1535 37.532 33.9014V21.5265C37.532 20.3065 38.5227 19.3133 39.7452 19.3133Z"></path>
<path d="M23.7843 12.3809C17.7152 12.3809 12.7974 17.3013 12.7974 23.3678V33.9141C12.7974 34.1586 12.996 34.3573 13.2405 34.3573H34.3306C34.5751 34.3573 34.7738 34.1586 34.7738 33.9141V23.3678C34.7738 17.2987 29.8533 12.3809 23.7868 12.3809H23.7843ZM22.6408 31.6449H15.935V23.7906C15.935 19.8506 18.8511 16.5805 22.6408 16.0228V31.6449ZM31.6386 31.6449H24.994V16.033C28.7531 16.6162 31.6386 19.8736 31.6386 23.7906V31.6449Z"></path>
<path d="M15.9324 23.7905V31.6449H22.6381V16.0228C18.8485 16.578 15.9324 19.8506 15.9324 23.7905Z" fill-opacity="0.4"></path>
<path d="M24.9915 16.033V31.6449H31.6361V23.7906C31.6361 19.8736 28.748 16.6137 24.9915 16.033Z" fill-opacity="0.4"></path>
</g>
<defs>
<clipPath id="clip0_416_881">
<rect width="48" height="48"></rect>
</clipPath>
</defs>
</symbol><symbol id="sprite:fence-3" viewBox="0 0 48 48">
<path d="M21.4536 21.5645H17.6965V24.8679H21.4536V21.5645Z" fill-opacity="0.4"></path>
<path d="M13.6923 21.5645H11.8005C11.5629 21.5645 11.3684 21.7566 11.3684 21.9966V24.4357C11.3684 24.6734 11.5605 24.8679 11.8005 24.8679H13.6491V22.46C13.6491 22.1575 13.6659 21.8598 13.6923 21.5669V21.5645Z" fill-opacity="0.4"></path>
<path d="M33.3035 24.8654H35.152C35.3897 24.8654 35.5841 24.6734 35.5841 24.4333V21.9942C35.5841 21.7566 35.3921 21.5621 35.152 21.5621H33.2603C33.2867 21.8574 33.3035 22.1551 33.3035 22.4552V24.863V24.8654Z" fill-opacity="0.4"></path>
<path d="M29.2583 21.5645H25.5012V24.8679H29.2583V21.5645Z" fill-opacity="0.4"></path>
<path d="M11.8005 28.1689C11.5629 28.1689 11.3684 28.3609 11.3684 28.601V31.0401C11.3684 31.2778 11.5605 31.4722 11.8005 31.4722H13.6491V28.1689H11.8005Z" fill-opacity="0.4"></path>
<path d="M21.4536 28.1689H17.6965V31.4722H21.4536V28.1689Z" fill-opacity="0.4"></path>
<path d="M29.2583 28.1689H25.5012V31.4722H29.2583V28.1689Z" fill-opacity="0.4"></path>
<path d="M35.1544 31.4698C35.3921 31.4698 35.5866 31.2778 35.5866 31.0377V28.5986C35.5866 28.3609 35.3945 28.1665 35.1544 28.1665H33.3059V31.4698H35.1544Z" fill-opacity="0.4"></path>
<path d="M17.6967 24.8655V16.5783C17.6967 16.5087 17.6751 16.439 17.6319 16.3814L17.0197 15.5556C16.8997 15.3923 16.6596 15.3755 16.5156 15.5196C14.9407 17.0992 13.9036 19.2118 13.6924 21.5621C13.666 21.8574 13.6492 22.1551 13.6492 22.4552V33.9184C13.6492 34.1321 13.822 34.305 14.0357 34.305H17.3054C17.5191 34.305 17.6919 34.1321 17.6919 33.9184V24.8631L17.6967 24.8655Z"></path>
<path d="M25.5013 24.8655V13.1453C25.5013 12.9677 25.3764 12.814 25.2036 12.7828C24.6442 12.682 24.068 12.6316 23.4799 12.6316C22.8917 12.6316 22.3155 12.6844 21.7562 12.7828C21.5833 12.814 21.4585 12.9677 21.4585 13.1453V33.9209C21.4585 34.1345 21.6313 34.3074 21.845 34.3074H25.1147C25.3284 34.3074 25.5013 34.1345 25.5013 33.9209V24.8655Z"></path>
<path d="M33.3035 22.4575C33.3035 22.1551 33.2867 21.8574 33.2602 21.5645C33.0466 19.207 32.0047 17.092 30.425 15.51H30.4226C30.2858 15.3707 30.0577 15.3899 29.9425 15.546L29.3207 16.3862C29.2799 16.4414 29.2583 16.5086 29.2583 16.5759V33.9208C29.2583 34.1345 29.4312 34.3073 29.6448 34.3073H32.9145C33.1282 34.3073 33.3011 34.1345 33.3011 33.9208V22.4575H33.3035Z"></path>
</symbol><symbol id="sprite:fence-4" viewBox="0 0 48 48">
<g clip-path="url(#clip0_416_892)">
<path d="M17.6621 16.7167C16.2296 17.0899 15.0801 17.5273 14.2502 17.8962V32.0131H17.6621V16.7167Z"></path>
<path d="M31.2451 32.0132H34.6569V18.0035C33.8592 17.6368 32.7055 17.1779 31.2451 16.7812V32.0132Z"></path>
<path d="M24.3315 15.8762C27.07 15.8762 29.4032 16.2793 31.2452 16.7811C32.7078 17.1778 33.8593 17.6367 34.6571 18.0035C34.9337 18.13 35.1696 18.2479 35.3604 18.3466C35.7057 18.5267 36.1303 18.413 36.3426 18.0871L37.2926 16.6353C37.5349 16.2643 37.4105 15.7625 37.0203 15.5523C35.354 14.656 30.8657 12.6316 24.3315 12.6316C17.7974 12.6316 13.3069 14.6581 11.6428 15.5523C11.2525 15.7625 11.126 16.2622 11.3683 16.6353L12.3161 18.0892C12.5284 18.4152 12.9552 18.5288 13.3004 18.3509C13.5449 18.2243 13.8644 18.0678 14.2504 17.8962C15.0803 17.5295 16.2319 17.0921 17.6623 16.7168C19.4657 16.2471 21.7131 15.8762 24.3315 15.8762Z"></path>
<path d="M39.4391 32.0131H9.22375C9.0136 32.0131 8.84204 32.1847 8.84204 32.3948V33.4456C8.84204 33.6558 9.0136 33.8273 9.22375 33.8273H39.4391C39.6493 33.8273 39.8208 33.6558 39.8208 33.4456V32.3948C39.8208 32.1847 39.6493 32.0131 39.4391 32.0131Z" fill-opacity="0.4"></path>
</g>
<defs>
<clipPath id="clip0_416_892">
<rect width="48" height="48"></rect>
</clipPath>
</defs>
</symbol><symbol id="sprite:fence-5" viewBox="0 0 48 48">
<path d="M22.439 32.6025L17.215 34.1118C17.0615 34.1548 17.0615 34.2817 17.215 34.3248L22.5496 36.1391C22.4779 36.0163 22.439 35.879 22.439 35.7377V32.6025Z" fill-opacity="0.4"></path>
<path d="M31.3203 32.5227L26.1045 30.7739V34.2388L31.3203 32.7337C31.4739 32.6907 31.4739 32.5637 31.3203 32.5207V32.5227Z" fill-opacity="0.4"></path>
<path d="M26.6902 10.1053H21.8553C21.3822 10.1053 20.9993 10.3203 20.9993 10.5844V11.8316C20.9993 12.0589 21.329 12.2432 21.7365 12.2432H22.0478C22.2648 12.2432 22.4409 12.4193 22.4409 12.6364V35.7439C22.4409 35.8852 22.486 36.0183 22.5536 36.1412C22.5618 36.1535 22.5679 36.1678 22.5761 36.1801L24.0608 39.3727C24.1611 39.5242 24.3823 39.5242 24.4847 39.3727L25.9693 36.1801C26.0574 36.047 26.1045 35.8934 26.1045 35.7337V12.6384C26.1045 12.4213 26.2806 12.2452 26.4977 12.2452H26.8089C27.2164 12.2452 27.5461 12.0609 27.5461 11.8336V10.5865C27.5461 10.3223 27.1632 10.1073 26.6902 10.1073V10.1053Z"></path>
<path d="M18.8439 21.8352H7.99047C7.76314 21.8352 7.57886 22.0195 7.57886 22.2468V25.0892C7.57886 25.3165 7.76314 25.5008 7.99047 25.5008H18.8439C19.0712 25.5008 19.2555 25.3165 19.2555 25.0892V22.2468C19.2555 22.0195 19.0712 21.8352 18.8439 21.8352Z" fill-opacity="0.4"></path>
<path d="M40.5453 21.8352H29.6919C29.4646 21.8352 29.2803 22.0195 29.2803 22.2468V25.0892C29.2803 25.3165 29.4646 25.5008 29.6919 25.5008H40.5453C40.7726 25.5008 40.9569 25.3165 40.9569 25.0892V22.2468C40.9569 22.0195 40.7726 21.8352 40.5453 21.8352Z" fill-opacity="0.4"></path>
</symbol><symbol id="sprite:folder" viewBox="0 0 30 30">
<g clip-path="url(#clip0_1106_2172)">
<path d="M23.75 3.75H15.59C15.3967 3.75128 15.2056 3.70853 15.0312 3.625L11.0863 1.645C10.5655 1.38568 9.99175 1.25048 9.41 1.25H6.25C4.59301 1.25198 3.00445 1.9111 1.83277 3.08277C0.661102 4.25445 0.00198482 5.84301 0 7.5L0 22.5C0.00198482 24.157 0.661102 25.7456 1.83277 26.9172C3.00445 28.0889 4.59301 28.748 6.25 28.75H23.75C25.407 28.748 26.9956 28.0889 28.1672 26.9172C29.3389 25.7456 29.998 24.157 30 22.5V10C29.998 8.34301 29.3389 6.75445 28.1672 5.58278C26.9956 4.4111 25.407 3.75198 23.75 3.75ZM6.25 3.75H9.41C9.60332 3.74872 9.7944 3.79147 9.96875 3.875L13.9137 5.84875C14.434 6.11023 15.0078 6.24758 15.59 6.25H23.75C24.4975 6.25122 25.2277 6.47584 25.8466 6.89502C26.4656 7.31419 26.9452 7.9088 27.2237 8.6025L2.5 8.7425V7.5C2.5 6.50544 2.89509 5.55161 3.59835 4.84835C4.30161 4.14509 5.25544 3.75 6.25 3.75ZM23.75 26.25H6.25C5.25544 26.25 4.30161 25.8549 3.59835 25.1517C2.89509 24.4484 2.5 23.4946 2.5 22.5V11.2425L27.5 11.1012V22.5C27.5 23.4946 27.1049 24.4484 26.4017 25.1517C25.6984 25.8549 24.7446 26.25 23.75 26.25Z"></path>
</g>
<defs>
<clipPath id="clip0_1106_2172">
<rect width="30" height="30"></rect>
</clipPath>
</defs>
</symbol><symbol id="sprite:gem" viewBox="0 0 23 23">
<g clip-path="url(#clip0_1084_1589)">
<path d="M15.894 9.21531L14.5763 5.74997H16.8973C17.7799 5.7521 18.6496 5.96131 19.4365 6.36077C20.2235 6.76024 20.9057 7.33882 21.4283 8.04997L22.1825 9.08018C22.504 9.51867 22.7382 10.0148 22.8726 10.5416H16.2457C16.1776 10.0879 16.0597 9.64312 15.894 9.21531ZM11.5 3.83331C11.7542 3.83331 11.9979 3.73234 12.1777 3.55262C12.3574 3.37289 12.4583 3.12914 12.4583 2.87497V0.958306C12.4583 0.704141 12.3574 0.460385 12.1777 0.280663C11.9979 0.10094 11.7542 -2.68641e-05 11.5 -2.68641e-05C11.2458 -2.68641e-05 11.0021 0.10094 10.8224 0.280663C10.6426 0.460385 10.5417 0.704141 10.5417 0.958306V2.87497C10.5417 3.12914 10.6426 3.37289 10.8224 3.55262C11.0021 3.73234 11.2458 3.83331 11.5 3.83331ZM14.1086 9.91201L12.5264 5.74997H10.4823L8.87418 10.0165C8.81249 10.1883 8.76128 10.3636 8.72084 10.5416H14.2993C14.2514 10.3273 14.1877 10.1169 14.1086 9.91201ZM15.8633 3.73747C15.9764 3.79436 16.0997 3.82826 16.2261 3.83721C16.3524 3.84616 16.4792 3.82998 16.5993 3.78962C16.7193 3.74925 16.8302 3.68549 16.9254 3.60202C17.0206 3.51856 17.0984 3.41705 17.1542 3.30335L18.1125 1.38668C18.2261 1.1592 18.2447 0.895909 18.1642 0.654722C18.0837 0.413535 17.9107 0.21421 17.6832 0.100598C17.4557 -0.013014 17.1924 -0.0316074 16.9512 0.0489082C16.71 0.129424 16.5107 0.302453 16.3971 0.529931L15.4388 2.4466C15.3815 2.55917 15.3471 2.68194 15.3375 2.80785C15.3279 2.93376 15.3432 3.06033 15.3827 3.18029C15.4221 3.30025 15.4849 3.41123 15.5674 3.50685C15.6499 3.60247 15.7504 3.68085 15.8633 3.73747ZM11.4885 18.1L14.1584 13.0659C14.2262 12.8674 14.2797 12.6644 14.3185 12.4583H8.62501C8.6681 12.7051 8.73222 12.9479 8.81668 13.1838L11.4885 18.1ZM7.09168 9.3236L8.43334 5.74997H6.11705C5.25266 5.75223 4.40032 5.95291 3.62572 6.33656C2.85112 6.7202 2.17495 7.27656 1.6493 7.96276L0.862509 8.99202C0.515845 9.45291 0.268205 9.98049 0.135133 10.5416H6.74763C6.8213 10.1251 6.93656 9.71709 7.09168 9.3236ZM16.262 12.4583C16.2016 12.9163 16.091 13.3662 15.9323 13.8C15.9179 13.8383 12.3328 20.5792 12.3299 20.5802C12.2519 20.7318 12.1337 20.8592 11.9883 20.9483C11.8429 21.0375 11.6758 21.085 11.5052 21.0858C11.3346 21.0866 11.1671 21.0406 11.0209 20.9528C10.8747 20.865 10.7553 20.7388 10.6758 20.5878C10.6758 20.5878 7.05909 13.9638 7.04376 13.9226C6.8721 13.4499 6.75756 12.9583 6.70259 12.4583H0.115967C0.2932 13.3158 0.73897 14.0946 1.38863 14.6816L9.04572 22.0675C9.71825 22.6673 10.5884 22.9979 11.4895 22.9961C12.4097 22.9943 13.2969 22.6531 13.9811 22.0378L21.5865 14.7228C22.2529 14.1269 22.7113 13.3334 22.8946 12.4583H16.262ZM5.85063 3.30335C5.96425 3.53146 6.16382 3.7051 6.40546 3.78607C6.6471 3.86703 6.911 3.84869 7.13911 3.73508C7.36723 3.62147 7.54087 3.42189 7.62183 3.18025C7.7028 2.93862 7.68445 2.67471 7.57084 2.4466L6.61251 0.529931C6.55625 0.417296 6.47836 0.316843 6.38329 0.234309C6.28821 0.151775 6.17781 0.0887755 6.05839 0.0489082C5.8172 -0.0316074 5.5539 -0.013014 5.32643 0.100598C5.09895 0.21421 4.92592 0.413535 4.8454 0.654722C4.76489 0.895909 4.78348 1.1592 4.89709 1.38668L5.85063 3.30335Z"></path>
</g>
<defs>
<clipPath id="clip0_1084_1589">
<rect width="23" height="23"></rect>
</clipPath>
</defs>
</symbol><symbol id="sprite:info" viewBox="0 0 13 13">
<g clip-path="url(#clip0_3001_955)">
<path d="M6.5 13C5.21442 13 3.95772 12.6188 2.8888 11.9046C1.81988 11.1903 0.986756 10.1752 0.494786 8.98745C0.00281636 7.79973 -0.125905 6.49279 0.124899 5.23192C0.375703 3.97104 0.994768 2.81285 1.90381 1.90381C2.81285 0.994768 3.97104 0.375703 5.23192 0.124899C6.49279 -0.125905 7.79973 0.00281636 8.98745 0.494786C10.1752 0.986756 11.1903 1.81988 11.9046 2.8888C12.6188 3.95772 13 5.21442 13 6.5C12.9981 8.22334 12.3127 9.87556 11.0941 11.0941C9.87556 12.3127 8.22334 12.9981 6.5 13ZM6.5 1.08334C5.42869 1.08334 4.38143 1.40102 3.49066 1.99621C2.5999 2.5914 1.90563 3.43737 1.49566 4.42713C1.08568 5.4169 0.978413 6.50601 1.18742 7.55674C1.39642 8.60747 1.91231 9.57263 2.66984 10.3302C3.42738 11.0877 4.39253 11.6036 5.44326 11.8126C6.49399 12.0216 7.58311 11.9143 8.57287 11.5044C9.56264 11.0944 10.4086 10.4001 11.0038 9.50934C11.599 8.61858 11.9167 7.57132 11.9167 6.5C11.9151 5.0639 11.3439 3.68706 10.3284 2.67158C9.31294 1.6561 7.93611 1.08491 6.5 1.08334Z"></path>
<path d="M7.58341 10.2917H6.50008V6.49999H5.41675V5.41666H6.50008C6.7874 5.41666 7.06295 5.53079 7.26611 5.73396C7.46928 5.93712 7.58341 6.21267 7.58341 6.49999V10.2917Z"></path>
<path d="M6.5 4.33334C6.94873 4.33334 7.3125 3.96957 7.3125 3.52084C7.3125 3.07211 6.94873 2.70834 6.5 2.70834C6.05127 2.70834 5.6875 3.07211 5.6875 3.52084C5.6875 3.96957 6.05127 4.33334 6.5 4.33334Z"></path>
</g>
<defs>
<clipPath id="clip0_3001_955">
<rect width="13" height="13"></rect>
</clipPath>
</defs>
</symbol><symbol id="sprite:inst" viewBox="0 0 24 24">
<g clip-path="url(#clip0_416_992)">
<path d="M12 2.162C15.204 2.162 15.584 2.174 16.849 2.232C18.157 2.292 19.504 2.59 20.457 3.543C21.419 4.505 21.708 5.839 21.768 7.151C21.826 8.416 21.838 8.796 21.838 12C21.838 15.204 21.826 15.584 21.768 16.849C21.709 18.15 21.404 19.51 20.457 20.457C19.495 21.419 18.162 21.708 16.849 21.768C15.584 21.826 15.204 21.838 12 21.838C8.796 21.838 8.416 21.826 7.151 21.768C5.86 21.709 4.482 21.397 3.543 20.457C2.586 19.5 2.292 18.153 2.232 16.849C2.174 15.584 2.162 15.204 2.162 12C2.162 8.796 2.174 8.416 2.232 7.151C2.291 5.855 2.599 4.487 3.543 3.543C4.503 2.583 5.842 2.292 7.151 2.232C8.416 2.174 8.796 2.162 12 2.162ZM12 0C8.741 0 8.332 0.014 7.052 0.072C5.197 0.157 3.355 0.673 2.014 2.014C0.668 3.36 0.157 5.198 0.072 7.052C0.014 8.332 0 8.741 0 12C0 15.259 0.014 15.668 0.072 16.948C0.157 18.801 0.675 20.648 2.014 21.986C3.359 23.331 5.2 23.843 7.052 23.928C8.332 23.986 8.741 24 12 24C15.259 24 15.668 23.986 16.948 23.928C18.802 23.843 20.646 23.326 21.986 21.986C23.333 20.639 23.843 18.802 23.928 16.948C23.986 15.668 24 15.259 24 12C24 8.741 23.986 8.332 23.928 7.052C23.843 5.197 23.326 3.354 21.986 2.014C20.643 0.671 18.797 0.156 16.948 0.072C15.668 0.014 15.259 0 12 0Z"></path>
<path d="M11.9999 5.83801C8.59689 5.83801 5.83789 8.59701 5.83789 12C5.83789 15.403 8.59689 18.162 11.9999 18.162C15.4029 18.162 18.1619 15.403 18.1619 12C18.1619 8.59701 15.4029 5.83801 11.9999 5.83801ZM11.9999 16C9.79089 16 7.99989 14.209 7.99989 12C7.99989 9.79101 9.79089 8.00001 11.9999 8.00001C14.2089 8.00001 15.9999 9.79101 15.9999 12C15.9999 14.209 14.2089 16 11.9999 16Z"></path>
<path d="M18.4058 7.03399C19.2011 7.03399 19.8458 6.38928 19.8458 5.59399C19.8458 4.7987 19.2011 4.15399 18.4058 4.15399C17.6105 4.15399 16.9658 4.7987 16.9658 5.59399C16.9658 6.38928 17.6105 7.03399 18.4058 7.03399Z"></path>
</g>
<defs>
<clipPath id="clip0_416_992">
<rect width="24" height="24"></rect>
</clipPath>
</defs>
</symbol><symbol id="sprite:link" viewBox="0 0 20 20">
<g clip-path="url(#clip0_1084_1603)">
<path d="M6.57991 13.42C6.09157 12.9325 6.09157 12.14 6.57991 11.6525C7.06824 11.1642 7.85907 11.1642 8.34741 11.6525C9.45241 12.7575 11.3807 12.7584 12.4857 11.6525L16.6432 7.49503C17.7841 6.3542 17.7841 4.49753 16.6432 3.35669C15.5024 2.21586 13.6457 2.21586 12.5049 3.35669C12.0166 3.84503 11.2257 3.84503 10.7374 3.35669C10.2491 2.86919 10.2491 2.07669 10.7374 1.58919C12.8524 -0.526639 16.2957 -0.526639 18.4107 1.58919C20.5266 3.70503 20.5266 7.14669 18.4107 9.26253L14.2532 13.42C13.1949 14.4784 11.8057 15.0067 10.4166 15.0067C9.02741 15.0067 7.63741 14.4775 6.57991 13.42ZM5.42657 19.9975C6.81574 19.9975 8.20491 19.4684 9.26324 18.4109C9.75157 17.9234 9.75157 17.1309 9.26324 16.6434C8.77491 16.155 7.98407 16.155 7.49574 16.6434C6.35407 17.785 4.49741 17.7842 3.35741 16.6434C2.21657 15.5025 2.21657 13.6459 3.35741 12.505L7.49157 8.37086C8.63324 7.22919 10.4899 7.22919 11.6299 8.37086C12.1182 8.85919 12.9091 8.85919 13.3974 8.37086C13.8857 7.88336 13.8857 7.09086 13.3974 6.60336C11.2816 4.48753 7.83991 4.48753 5.72407 6.60336L1.58907 10.7375C-0.526761 12.8534 -0.526761 16.295 1.58907 18.4109C2.64741 19.4692 4.03741 19.9975 5.42657 19.9975Z"></path>
</g>
<defs>
<clipPath id="clip0_1084_1603">
<rect width="20" height="20"></rect>
</clipPath>
</defs>
</symbol><symbol id="sprite:loading" viewBox="0 0 25 24">
<circle opacity="0.4" cx="12.9412" cy="12" r="9" stroke-width="2"></circle>
<path d="M12.9412 21C7.9706 21 3.94116 16.9706 3.94116 12" stroke-width="2"></path>
</symbol><symbol id="sprite:logotype" viewBox="0 0 185 31">
<path d="M50.64 7.256V23H45.816V17.648C44.152 17.856 42.688 17.96 41.424 17.96C38.992 17.96 37.16 17.44 35.928 16.4C34.696 15.36 34.08 13.824 34.08 11.792V7.256H38.904V11.312C38.904 12.112 39.176 12.704 39.72 13.088C40.264 13.456 41.104 13.64 42.24 13.64C43.328 13.64 44.52 13.592 45.816 13.496V7.256H50.64ZM70.6039 22.28V23H65.8999L64.8679 20.408H57.9559L56.9239 23H52.2199V22.28L58.7479 7.256H64.0759L70.6039 22.28ZM63.2599 16.424L61.4119 11.84L59.5639 16.424H63.2599ZM80.3351 23.312C78.3671 23.312 76.6391 22.984 75.1511 22.328C73.6631 21.656 72.5111 20.712 71.6951 19.496C70.8791 18.264 70.4711 16.832 70.4711 15.2V15.08C70.4711 13.448 70.8791 12.024 71.6951 10.808C72.5111 9.576 73.6631 8.624 75.1511 7.952C76.6391 7.28 78.3671 6.944 80.3351 6.944C82.1911 6.944 83.8471 7.24 85.3031 7.832C86.7751 8.424 87.9191 9.256 88.7351 10.328C89.5671 11.384 89.9831 12.584 89.9831 13.928V14.096H85.0631V13.928C85.0631 13.16 84.6311 12.552 83.7671 12.104C82.9191 11.656 81.7671 11.432 80.3111 11.432C78.6471 11.432 77.4071 11.728 76.5911 12.32C75.7911 12.912 75.3911 13.816 75.3911 15.032V15.272C75.3911 16.488 75.7911 17.384 76.5911 17.96C77.3911 18.536 78.6391 18.824 80.3351 18.824C81.8391 18.824 82.9991 18.616 83.8151 18.2C84.6471 17.768 85.0631 17.16 85.0631 16.376V16.208H89.9831V16.376C89.9831 17.704 89.5671 18.896 88.7351 19.952C87.9191 21.008 86.7751 21.832 85.3031 22.424C83.8471 23.016 82.1911 23.312 80.3351 23.312ZM90.3366 11.576V7.256H106.201V11.576H100.681V23H95.8566V11.576H90.3366ZM116.379 23.312C114.443 23.312 112.739 22.984 111.267 22.328C109.795 21.656 108.651 20.704 107.835 19.472C107.035 18.24 106.635 16.816 106.635 15.2V15.08C106.635 13.464 107.035 12.04 107.835 10.808C108.651 9.576 109.795 8.624 111.267 7.952C112.739 7.28 114.443 6.944 116.379 6.944C118.347 6.944 120.067 7.28 121.539 7.952C123.011 8.624 124.147 9.576 124.947 10.808C125.747 12.024 126.147 13.448 126.147 15.08V15.2C126.147 16.832 125.747 18.264 124.947 19.496C124.147 20.712 123.011 21.656 121.539 22.328C120.067 22.984 118.347 23.312 116.379 23.312ZM116.379 18.824C118.043 18.824 119.267 18.536 120.051 17.96C120.835 17.368 121.227 16.472 121.227 15.272V15.032C121.227 12.632 119.611 11.432 116.379 11.432C114.795 11.432 113.595 11.736 112.779 12.344C111.963 12.952 111.555 13.848 111.555 15.032V15.272C111.555 16.472 111.955 17.368 112.755 17.96C113.555 18.536 114.763 18.824 116.379 18.824ZM145.466 7.976L139.37 14.816L145.01 22.28V23H139.562L135.338 17.288H133.274V23H128.45V7.256H133.274V12.968H135.074L139.802 7.256H145.466V7.976ZM155.379 23.312C153.443 23.312 151.739 22.984 150.267 22.328C148.795 21.656 147.651 20.704 146.835 19.472C146.035 18.24 145.635 16.816 145.635 15.2V15.08C145.635 13.464 146.035 12.04 146.835 10.808C147.651 9.576 148.795 8.624 150.267 7.952C151.739 7.28 153.443 6.944 155.379 6.944C157.347 6.944 159.067 7.28 160.539 7.952C162.011 8.624 163.147 9.576 163.947 10.808C164.747 12.024 165.147 13.448 165.147 15.08V15.2C165.147 16.832 164.747 18.264 163.947 19.496C163.147 20.712 162.011 21.656 160.539 22.328C159.067 22.984 157.347 23.312 155.379 23.312ZM155.379 18.824C157.043 18.824 158.267 18.536 159.051 17.96C159.835 17.368 160.227 16.472 160.227 15.272V15.032C160.227 12.632 158.611 11.432 155.379 11.432C153.795 11.432 152.595 11.736 151.779 12.344C150.963 12.952 150.555 13.848 150.555 15.032V15.272C150.555 16.472 150.955 17.368 151.755 17.96C152.555 18.536 153.763 18.824 155.379 18.824ZM183.106 23H178.282V11.576H173.002L172.882 16.208C172.818 18.432 172.298 20.12 171.322 21.272C170.346 22.424 168.93 23 167.074 23H165.586V18.68H166.162C166.978 18.68 167.562 18.464 167.914 18.032C168.282 17.584 168.474 16.848 168.49 15.824L168.682 7.256H183.106V23Z"></path>
<path d="M6.29268 1L10.4878 4.14634V2.57317H12.5854V5.19512L18.3537 9.91463V23H12.5854V13.061L6.29268 8.34146V18.3049H10.4878V23H0V13.061L6.29268 8.34146V1Z"></path>
</symbol><symbol id="sprite:loupe" viewBox="0 0 13 13">
<g clip-path="url(#clip0_454_2490)">
<path d="M12.8413 12.0754L9.60809 8.84217C10.4892 7.76458 10.9224 6.38955 10.8181 5.00152C10.7138 3.61348 10.08 2.31862 9.04778 1.38479C8.01556 0.450947 6.66391 -0.0504294 5.27239 -0.0156372C3.88088 0.0191551 2.55597 0.587454 1.57171 1.57171C0.587454 2.55597 0.0191551 3.88088 -0.0156372 5.27239C-0.0504294 6.66391 0.450947 8.01556 1.38479 9.04778C2.31862 10.08 3.61348 10.7138 5.00152 10.8181C6.38955 10.9224 7.76458 10.4892 8.84217 9.60809L12.0754 12.8413C12.1775 12.94 12.3144 12.9946 12.4564 12.9933C12.5984 12.9921 12.7343 12.9351 12.8347 12.8347C12.9351 12.7343 12.9921 12.5984 12.9933 12.4564C12.9946 12.3144 12.94 12.1775 12.8413 12.0754ZM5.41667 9.75C4.55962 9.75 3.72181 9.49586 3.0092 9.0197C2.29659 8.54355 1.74117 7.86678 1.41319 7.07496C1.08521 6.28315 0.999398 5.41186 1.1666 4.57128C1.3338 3.73069 1.74651 2.95857 2.35254 2.35254C2.95857 1.74651 3.73069 1.3338 4.57128 1.1666C5.41186 0.999398 6.28315 1.08521 7.07496 1.41319C7.86678 1.74117 8.54355 2.29659 9.0197 3.0092C9.49586 3.72181 9.75 4.55962 9.75 5.41667C9.74871 6.56555 9.29175 7.667 8.47937 8.47937C7.667 9.29175 6.56555 9.74871 5.41667 9.75Z"></path>
</g>
<defs>
<clipPath id="clip0_454_2490">
<rect width="13" height="13"></rect>
</clipPath>
</defs>
</symbol><symbol id="sprite:marker" viewBox="0 0 24 24">
<g clip-path="url(#clip0_416_827)">
<path d="M11.958 24.008L11.2609 23.4105C10.2999 22.6058 1.90894 15.3591 1.90894 10.0583C1.90894 4.50839 6.40804 0.00927734 11.958 0.00927734C17.5079 0.00927734 22.007 4.50839 22.007 10.0583C22.007 15.3592 13.616 22.6059 12.659 23.4145L11.958 24.008ZM11.958 2.18217C7.61015 2.18709 4.0868 5.71045 4.08187 10.0582C4.08187 13.3883 9.24431 18.7081 11.958 21.1429C14.6716 18.7071 19.834 13.3843 19.834 10.0582C19.8291 5.71045 16.3058 2.18714 11.958 2.18217Z"></path>
<path d="M11.958 14.0416C9.75802 14.0416 7.97461 12.2582 7.97461 10.0583C7.97461 7.85836 9.75802 6.07495 11.958 6.07495C14.1579 6.07495 15.9413 7.85836 15.9413 10.0583C15.9413 12.2582 14.1579 14.0416 11.958 14.0416ZM11.958 8.06658C10.858 8.06658 9.96628 8.95828 9.96628 10.0582C9.96628 11.1582 10.858 12.0499 11.958 12.0499C13.0579 12.0499 13.9496 11.1582 13.9496 10.0582C13.9496 8.95828 13.058 8.06658 11.958 8.06658Z"></path>
</g>
<defs>
<clipPath id="clip0_416_827">
<rect width="24" height="24"></rect>
</clipPath>
</defs>
</symbol><symbol id="sprite:phone-flip" viewBox="0 0 14 14">
<g clip-path="url(#clip0_1309_2085)">
<path d="M10.36 14C5.90335 14 1.90735e-05 8.09082 1.90735e-05 3.63999C1.90735e-05 2.66582 0.367519 1.75582 1.03835 1.08499L1.70919 0.501654C2.38585 -0.175013 3.52919 -0.175013 4.23502 0.53082C4.25252 0.54832 5.33169 1.95415 5.33169 1.95415C5.99669 2.65415 5.99669 3.75665 5.33169 4.45082L4.64919 5.30249C5.44252 7.16915 6.77252 8.49332 8.70335 9.34499L9.55502 8.66832C10.2492 7.99749 11.3575 7.99749 12.0517 8.66832C12.0517 8.66832 13.4575 9.74749 13.475 9.76499C14.1809 10.4708 14.1809 11.6142 13.475 12.32L12.9442 12.9325C12.25 13.6325 11.34 14 10.3659 14H10.36Z"></path>
</g>
<defs>
<clipPath id="clip0_1309_2085">
<rect width="14" height="14" transform="matrix(0 1 -1 0 14 0)"></rect>
</clipPath>
</defs>
</symbol><symbol id="sprite:phone" viewBox="0 0 17 17">
<g clip-path="url(#clip0_3002_2068)">
<path d="M9.2083 0.708335C9.2083 0.520474 9.28293 0.340306 9.41577 0.207468C9.54861 0.0746298 9.72878 2.03506e-06 9.91664 2.03506e-06C11.7946 0.00206442 13.5951 0.749004 14.923 2.07694C16.251 3.40488 16.9979 5.20535 17 7.08334C17 7.2712 16.9253 7.45136 16.7925 7.5842C16.6597 7.71704 16.4795 7.79167 16.2916 7.79167C16.1038 7.79167 15.9236 7.71704 15.7908 7.5842C15.6579 7.45136 15.5833 7.2712 15.5833 7.08334C15.5816 5.58096 14.9841 4.1406 13.9217 3.07826C12.8594 2.01592 11.419 1.41836 9.91664 1.41667C9.72878 1.41667 9.54861 1.34204 9.41577 1.2092C9.28293 1.07636 9.2083 0.896197 9.2083 0.708335ZM9.91664 4.25C10.6681 4.25 11.3888 4.54851 11.9201 5.07987C12.4515 5.61122 12.75 6.33189 12.75 7.08334C12.75 7.2712 12.8246 7.45136 12.9574 7.5842C13.0903 7.71704 13.2704 7.79167 13.4583 7.79167C13.6462 7.79167 13.8263 7.71704 13.9592 7.5842C14.092 7.45136 14.1666 7.2712 14.1666 7.08334C14.1655 5.95651 13.7174 4.87616 12.9206 4.07937C12.1238 3.28259 11.0435 2.83446 9.91664 2.83334C9.72878 2.83334 9.54861 2.90796 9.41577 3.0408C9.28293 3.17364 9.2083 3.35381 9.2083 3.54167C9.2083 3.72953 9.28293 3.9097 9.41577 4.04254C9.54861 4.17537 9.72878 4.25 9.91664 4.25ZM16.3575 11.8568C16.768 12.2684 16.9985 12.826 16.9985 13.4073C16.9985 13.9887 16.768 14.5463 16.3575 14.9579L15.7129 15.7009C9.91168 21.255 -4.20541 7.14142 1.26293 1.32175L2.07751 0.613419C2.4896 0.214398 3.04221 -0.0063382 3.6158 -0.00103579C4.18939 0.00426663 4.73783 0.235182 5.14247 0.641752C5.16443 0.66371 6.47697 2.36867 6.47697 2.36867C6.86643 2.77782 7.08324 3.32133 7.08231 3.8862C7.08139 4.45108 6.86281 4.99387 6.47201 5.40175L5.65176 6.43309C6.1057 7.53604 6.7731 8.53843 7.61562 9.38265C8.45815 10.2269 9.45919 10.8963 10.5612 11.3525L11.5989 10.5273C12.0069 10.1368 12.5496 9.91844 13.1143 9.91764C13.679 9.91685 14.2223 10.1337 14.6313 10.523C14.6313 10.523 16.3356 11.8348 16.3575 11.8568ZM15.3828 12.8867C15.3828 12.8867 13.6878 11.5827 13.6658 11.5607C13.5199 11.416 13.3227 11.3348 13.1172 11.3348C12.9117 11.3348 12.7146 11.416 12.5686 11.5607C12.5495 11.5805 11.1208 12.7188 11.1208 12.7188C11.0245 12.7955 10.9099 12.8457 10.7883 12.8646C10.6667 12.8835 10.5423 12.8703 10.4273 12.8265C8.99967 12.2949 7.70291 11.4628 6.6249 10.3863C5.54688 9.30992 4.7128 8.01439 4.17914 6.5875C4.13182 6.47095 4.11639 6.3439 4.13444 6.21941C4.15249 6.09492 4.20337 5.97748 4.28185 5.87917C4.28185 5.87917 5.42014 4.44975 5.43926 4.43134C5.58395 4.28541 5.66513 4.08823 5.66513 3.88273C5.66513 3.67723 5.58395 3.48005 5.43926 3.33413C5.4173 3.31288 4.11326 1.61642 4.11326 1.61642C3.96515 1.48361 3.77185 1.41249 3.57298 1.41762C3.37411 1.42276 3.18474 1.50377 3.04368 1.64404L2.22909 2.35238C-1.76732 7.15771 10.4663 18.7128 14.6773 14.7333L15.3226 13.9896C15.4739 13.8495 15.5647 13.6561 15.5759 13.4503C15.5872 13.2445 15.5179 13.0424 15.3828 12.8867Z"></path>
</g>
<defs>
<clipPath id="clip0_3002_2068">
<rect width="17" height="17"></rect>
</clipPath>
</defs>
</symbol><symbol id="sprite:play" viewBox="0 0 56 56">
<path d="M28.0011 0.292725C12.7222 0.292725 0.292725 12.7222 0.292725 28.0011C0.292725 43.2799 12.7222 55.7094 28.0011 55.7094C43.2799 55.7094 55.7094 43.2799 55.7094 28.0011C55.7094 12.7222 43.2799 0.292725 28.0011 0.292725ZM38.17 32.3259L26.1354 38.9158C25.3849 39.3384 24.5583 39.5485 23.7317 39.5485C22.8704 39.5485 22.0068 39.3199 21.2218 38.8627C19.6816 37.9622 18.765 36.3621 18.765 34.5795V21.4203C18.765 19.6378 19.6816 18.0376 21.2218 17.1371C22.7573 16.2389 24.6045 16.2227 26.1585 17.0978L38.1469 23.6624C39.754 24.5652 40.6984 26.1816 40.6984 27.9988C40.6984 29.816 39.754 31.4323 38.1677 32.3236L38.17 32.3259ZM36.0827 28.0011C36.0827 28.202 35.9487 28.2758 35.9303 28.2897L23.8956 34.882C23.8517 34.9051 23.7178 34.979 23.5562 34.8797C23.3853 34.7804 23.3853 34.6326 23.3853 34.5841V21.425C23.3853 21.3765 23.3853 21.2287 23.5562 21.1294C23.6185 21.0925 23.6763 21.0809 23.7271 21.0809C23.8102 21.0809 23.8771 21.1179 23.9187 21.1409L35.9072 27.7078C35.9511 27.7332 36.0827 27.8071 36.0827 28.008V28.0011Z"></path>
</symbol><symbol id="sprite:plus-small" viewBox="0 0 25 24">
<path d="M17.9412 11H13.9412V7C13.9412 6.73478 13.8358 6.48043 13.6483 6.29289C13.4607 6.10536 13.2064 6 12.9412 6C12.6759 6 12.4216 6.10536 12.2341 6.29289C12.0465 6.48043 11.9412 6.73478 11.9412 7V11H7.94116C7.67595 11 7.42159 11.1054 7.23406 11.2929C7.04652 11.4804 6.94116 11.7348 6.94116 12C6.94116 12.2652 7.04652 12.5196 7.23406 12.7071C7.42159 12.8946 7.67595 13 7.94116 13H11.9412V17C11.9412 17.2652 12.0465 17.5196 12.2341 17.7071C12.4216 17.8946 12.6759 18 12.9412 18C13.2064 18 13.4607 17.8946 13.6483 17.7071C13.8358 17.5196 13.9412 17.2652 13.9412 17V13H17.9412C18.2064 13 18.4607 12.8946 18.6483 12.7071C18.8358 12.5196 18.9412 12.2652 18.9412 12C18.9412 11.7348 18.8358 11.4804 18.6483 11.2929C18.4607 11.1054 18.2064 11 17.9412 11Z"></path>
</symbol><symbol id="sprite:plus" viewBox="0 0 24 24">
<g clip-path="url(#clip0_176_287)">
<path d="M23 11H13V1C13 0.734784 12.8946 0.48043 12.7071 0.292893C12.5196 0.105357 12.2652 0 12 0C11.7348 0 11.4804 0.105357 11.2929 0.292893C11.1054 0.48043 11 0.734784 11 1V11H1C0.734784 11 0.48043 11.1054 0.292893 11.2929C0.105357 11.4804 0 11.7348 0 12C0 12.2652 0.105357 12.5196 0.292893 12.7071C0.48043 12.8946 0.734784 13 1 13H11V23C11 23.2652 11.1054 23.5196 11.2929 23.7071C11.4804 23.8946 11.7348 24 12 24C12.2652 24 12.5196 23.8946 12.7071 23.7071C12.8946 23.5196 13 23.2652 13 23V13H23C23.2652 13 23.5196 12.8946 23.7071 12.7071C23.8946 12.5196 24 12.2652 24 12C24 11.7348 23.8946 11.4804 23.7071 11.2929C23.5196 11.1054 23.2652 11 23 11Z"></path>
</g>
<defs>
<clipPath id="clip0_176_287">
<rect width="24" height="24"></rect>
</clipPath>
</defs>
</symbol><symbol id="sprite:question" viewBox="0 0 20 20">
<g clip-path="url(#clip0_985_4433)">
<path d="M10 20C8.02219 20 6.08879 19.4135 4.4443 18.3147C2.79981 17.2159 1.51809 15.6541 0.761209 13.8268C0.00433286 11.9996 -0.193701 9.98891 0.192152 8.0491C0.578004 6.10929 1.53041 4.32746 2.92894 2.92894C4.32746 1.53041 6.10929 0.578004 8.0491 0.192152C9.98891 -0.193701 11.9996 0.00433286 13.8268 0.761209C15.6541 1.51809 17.2159 2.79981 18.3147 4.4443C19.4135 6.08879 20 8.02219 20 10C19.9971 12.6513 18.9427 15.1932 17.0679 17.0679C15.1932 18.9427 12.6513 19.9971 10 20ZM10 1.66667C8.35183 1.66667 6.74066 2.15541 5.37025 3.07109C3.99984 3.98677 2.93174 5.28826 2.30101 6.81098C1.67028 8.33369 1.50525 10.0092 1.82679 11.6258C2.14834 13.2423 2.94201 14.7271 4.10745 15.8926C5.27289 17.058 6.75774 17.8517 8.37425 18.1732C9.99076 18.4948 11.6663 18.3297 13.189 17.699C14.7118 17.0683 16.0132 16.0002 16.9289 14.6298C17.8446 13.2593 18.3333 11.6482 18.3333 10C18.3309 7.79061 17.4522 5.67241 15.8899 4.11013C14.3276 2.54785 12.2094 1.6691 10 1.66667Z"></path>
<path d="M10.8333 12.5001H9.16666V11.881C9.15435 11.293 9.29964 10.7124 9.58744 10.1995C9.87523 9.68665 10.2951 9.26015 10.8033 8.96429C11.1112 8.79471 11.3576 8.53212 11.5073 8.21407C11.657 7.89602 11.7022 7.53879 11.6367 7.19346C11.5717 6.86446 11.4102 6.56228 11.1727 6.32553C10.9352 6.08878 10.6325 5.92819 10.3033 5.86429C10.0631 5.81982 9.81603 5.82872 9.57961 5.89034C9.3432 5.95196 9.12322 6.06481 8.93526 6.22089C8.7473 6.37696 8.59595 6.57245 8.49194 6.79352C8.38792 7.01458 8.33377 7.25581 8.33333 7.50012H6.66666C6.66687 6.91221 6.82257 6.33481 7.11796 5.8265C7.41335 5.31818 7.83793 4.89704 8.34862 4.60578C8.85931 4.31452 9.43796 4.16351 10.0258 4.16807C10.6137 4.17263 11.19 4.33259 11.6961 4.63174C12.2022 4.93089 12.6202 5.35857 12.9077 5.8714C13.1951 6.38424 13.3419 6.96398 13.3329 7.55183C13.324 8.13967 13.1598 8.7147 12.8569 9.21859C12.554 9.72247 12.1233 10.1373 11.6083 10.421C11.3623 10.5748 11.1611 10.7907 11.0251 11.047C10.889 11.3033 10.8229 11.591 10.8333 11.881V12.5001Z"></path>
<path d="M10.8333 14.1667H9.16666V15.8334H10.8333V14.1667Z"></path>
</g>
<defs>
<clipPath id="clip0_985_4433">
<rect width="20" height="20"></rect>
</clipPath>
</defs>
</symbol><symbol id="sprite:region" viewBox="0 0 24 24">
<g clip-path="url(#clip0_1092_2499)">
<path d="M23 11.9998C22.447 11.9998 22 12.4468 22 12.9998V15.9998H15.914L10 10.0858V1.99978H11C11.552 1.99978 12 1.55278 12 0.999779C12 0.446779 11.552 -0.000220703 11 -0.000220703H5C2.243 -0.000220703 0 2.24278 0 4.99978V18.9998C0 21.7568 2.243 23.9998 5 23.9998H19C21.757 23.9998 24 21.7568 24 18.9998V12.9998C24 12.4468 23.553 11.9998 23 11.9998ZM5 1.99978H8V9.89978L2 13.0988V4.99978C2 3.34578 3.346 1.99978 5 1.99978ZM2 18.9998V15.3668L8.817 11.7308L14.179 17.0928L10.5 21.9988H5C3.346 21.9988 2 20.6538 2 18.9998ZM19 21.9998H13L16 17.9998H22V18.9998C22 20.6538 20.654 21.9998 19 21.9998ZM16.451 11.1888C17.015 11.7418 17.758 12.0178 18.5 12.0168C19.242 12.0168 19.984 11.7418 20.549 11.1888L22.389 9.38778C23.428 8.34978 24 6.96878 24 5.49878C24 4.02878 23.428 2.64778 22.389 1.60978C21.35 0.570779 19.969 -0.0012207 18.5 -0.0012207C17.031 -0.0012207 15.649 0.570779 14.611 1.60978C13.572 2.64778 13 4.02878 13 5.49878C13 6.96878 13.572 8.34978 14.619 9.39478L16.451 11.1878V11.1888ZM16.025 3.02478C16.686 2.36378 17.564 1.99978 18.5 1.99978C19.436 1.99978 20.313 2.36378 20.975 3.02478C21.637 3.68578 22 4.56478 22 5.49978C22 6.43478 21.636 7.31278 20.982 7.96678L19.15 9.75978C18.791 10.1098 18.209 10.1118 17.849 9.75978L16.025 7.97478C15.364 7.31378 15 6.43478 15 5.49978C15 4.56478 15.364 3.68678 16.025 3.02478ZM16.999 5.49378C16.999 4.66578 17.671 3.99378 18.499 3.99378C19.327 3.99378 19.999 4.66578 19.999 5.49378C19.999 6.32178 19.327 6.99378 18.499 6.99378C17.671 6.99378 16.999 6.32178 16.999 5.49378Z"></path>
</g>
<defs>
<clipPath id="clip0_1092_2499">
<rect width="24" height="24"></rect>
</clipPath>
</defs>
</symbol><symbol id="sprite:swatchbook" viewBox="0 0 30 30">
<g clip-path="url(#clip0_1106_2150)">
<path d="M25 16.25H23.4725L24.785 14.9375C25.73 13.9937 26.25 12.7375 26.25 11.4013C26.25 10.065 25.73 8.81 24.785 7.86625L22.1338 5.215C20.245 3.325 16.9513 3.32625 15.0625 5.215L13.75 6.5275V5C13.75 2.2425 11.5075 0 8.75 0H5C2.2425 0 0 2.2425 0 5V23.125C0 26.9163 3.08375 30 6.875 30H25C27.7575 30 30 27.7575 30 25V21.25C30 18.4925 27.7575 16.25 25 16.25ZM16.83 6.9825C17.7738 6.03875 19.42 6.0375 20.3662 6.9825L23.0175 9.63375C23.49 10.1062 23.75 10.7338 23.75 11.4013C23.75 12.0688 23.49 12.6975 23.0175 13.17L13.75 22.4375V10.0625L16.83 6.9825ZM2.5 10H11.25V15H2.5V10ZM5 2.5H8.75C10.1287 2.5 11.25 3.62125 11.25 5V7.5H2.5V5C2.5 3.62125 3.62125 2.5 5 2.5ZM2.5 23.125V17.5H11.25V23.125C11.25 25.5375 9.2875 27.5 6.875 27.5C4.4625 27.5 2.5 25.5375 2.5 23.125ZM27.5 25C27.5 26.3787 26.3787 27.5 25 27.5H12.2225L20.9725 18.75H25C26.3787 18.75 27.5 19.8713 27.5 21.25V25ZM6.875 25C5.84 25 5 24.16 5 23.125C5 22.09 5.84 21.25 6.875 21.25C7.91 21.25 8.75 22.09 8.75 23.125C8.75 24.16 7.91 25 6.875 25Z"></path>
</g>
<defs>
<clipPath id="clip0_1106_2150">
<rect width="30" height="30"></rect>
</clipPath>
</defs>
</symbol><symbol id="sprite:tail-arrow" viewBox="0 0 24 24">
<path fill-rule="evenodd" clip-rule="evenodd" d="M11.2929 4.29289C11.6834 3.90237 12.3166 3.90237 12.7071 4.29289L19.7071 11.2929C20.0976 11.6834 20.0976 12.3166 19.7071 12.7071L12.7071 19.7071C12.3166 20.0976 11.6834 20.0976 11.2929 19.7071C10.9024 19.3166 10.9024 18.6834 11.2929 18.2929L16.5858 13L5 13C4.44772 13 4 12.5523 4 12C4 11.4477 4.44772 11 5 11L16.5858 11L11.2929 5.70711C10.9024 5.31658 10.9024 4.68342 11.2929 4.29289Z"></path>
</symbol><symbol id="sprite:tailless-arrow" viewBox="0 0 25 24">
<path d="M14.2958 9.88079L9.7058 5.29079C9.51844 5.10454 9.26498 5 9.0008 5C8.73661 5 8.48316 5.10454 8.2958 5.29079C8.20207 5.38376 8.12768 5.49436 8.07691 5.61622C8.02614 5.73807 8 5.86878 8 6.00079C8 6.1328 8.02614 6.26351 8.07691 6.38537C8.12768 6.50723 8.20207 6.61783 8.2958 6.71079L12.8958 11.2908C12.9895 11.3838 13.0639 11.4944 13.1147 11.6162C13.1655 11.7381 13.1916 11.8688 13.1916 12.0008C13.1916 12.1328 13.1655 12.2635 13.1147 12.3854C13.0639 12.5072 12.9895 12.6178 12.8958 12.7108L8.2958 17.2908C8.10749 17.4778 8.00118 17.7319 8.00024 17.9973C7.9993 18.2626 8.10382 18.5175 8.2908 18.7058C8.47778 18.8941 8.7319 19.0004 8.99726 19.0013C9.26263 19.0023 9.5175 18.8978 9.7058 18.7108L14.2958 14.1208C14.8576 13.5583 15.1732 12.7958 15.1732 12.0008C15.1732 11.2058 14.8576 10.4433 14.2958 9.88079Z"></path>
</symbol><symbol id="sprite:tg" viewBox="0 0 24 24">
<g clip-path="url(#clip0_416_1005)">
<path fill-rule="evenodd" clip-rule="evenodd" d="M12 0C5.373 0 0 5.373 0 12C0 18.627 5.373 24 12 24C18.627 24 24 18.627 24 12C24 5.373 18.627 0 12 0ZM17.562 8.161C17.382 10.058 16.6 14.663 16.203 16.788C16.035 17.688 15.703 17.989 15.383 18.018C14.686 18.082 14.157 17.557 13.482 17.115C12.426 16.423 11.829 15.992 10.804 15.316C9.619 14.535 10.387 14.106 11.062 13.405C11.239 13.221 14.309 10.428 14.369 10.175C14.376 10.143 14.384 10.025 14.313 9.963C14.242 9.901 14.139 9.922 14.065 9.939C13.959 9.963 12.272 11.078 9.003 13.284C8.524 13.613 8.09 13.773 7.701 13.765C7.273 13.756 6.449 13.523 5.836 13.323C5.085 13.079 4.487 12.949 4.539 12.535C4.566 12.319 4.863 12.098 5.431 11.872C8.929 10.348 11.262 9.343 12.429 8.857C15.762 7.471 16.454 7.23 16.906 7.222C17.472 7.214 17.608 7.681 17.562 8.161Z"></path>
</g>
<defs>
<clipPath id="clip0_416_1005">
<rect width="24" height="24"></rect>
</clipPath>
</defs>
</symbol><symbol id="sprite:tools" viewBox="0 0 14 14">
<g clip-path="url(#clip0_236_67)">
<path d="M10.4881 7.59732C9.83537 6.94632 8.84721 6.82849 8.07312 7.24324L5.25446 4.42457V2.62441C5.25446 2.03349 4.93654 1.48341 4.42496 1.18824L2.68604 0.185489C2.14296 -0.128344 1.45404 -0.0367609 1.00954 0.406572L0.411624 1.00566C-0.0322927 1.44841 -0.122709 2.13791 0.190541 2.68099L1.19329 4.41991C1.48846 4.93207 2.03912 5.24999 2.62946 5.24999H4.42962L7.24479 8.06516C7.08262 8.36149 6.99629 8.69457 6.99629 9.04166C6.99629 9.58766 7.20921 10.0998 7.59596 10.486L10.5208 13.4027C10.9046 13.7853 11.4273 14 11.9675 14C12.542 14 13.1855 13.6961 13.553 13.2481C14.2098 12.4477 14.1223 11.221 13.354 10.4557L10.4881 7.59732ZM2.20362 3.83774L1.20087 2.09824C1.15071 2.01191 1.16529 1.90166 1.23646 1.83049L1.83437 1.23199C1.90554 1.16141 2.01579 1.14624 2.10271 1.19641L3.84104 2.19974C3.99271 2.28724 4.08721 2.45057 4.08721 2.62499V4.08332H2.62887C2.45387 4.08332 2.29112 3.98941 2.20362 3.83774ZM12.6511 12.5078C12.4901 12.7044 12.2626 12.8193 12.0112 12.8322C11.7656 12.8438 11.5206 12.7511 11.345 12.5767L8.42021 9.65999C8.25454 9.49491 8.16354 9.27557 8.16354 9.04166C8.16354 8.80774 8.25512 8.58899 8.42021 8.42332C8.59171 8.25241 8.81746 8.16666 9.04262 8.16666C9.26779 8.16666 9.49296 8.25241 9.66446 8.42332L12.531 11.2811C12.8786 11.6282 12.9311 12.1666 12.6511 12.5078ZM6.08862 9.97441C6.31612 10.2031 6.31554 10.5717 6.08746 10.7992L3.47587 13.4021C3.09204 13.7847 2.56996 13.9994 2.02921 13.9994C1.51529 13.9994 0.811207 13.6955 0.443707 13.2469C-0.212543 12.4472 -0.125626 11.2204 0.643207 10.4551L3.94954 7.15632C4.17704 6.92882 4.54687 6.92882 4.77437 7.15749C5.00187 7.38557 5.00129 7.75482 4.77321 7.98232L1.46629 11.2811C1.11862 11.6282 1.06496 12.1666 1.34496 12.5072C1.50654 12.7044 1.73404 12.8193 1.98546 12.8322C2.23396 12.8432 2.47604 12.7511 2.65162 12.5767L5.26379 9.97382C5.49187 9.74632 5.86054 9.74632 6.08921 9.97499L6.08862 9.97441ZM5.77129 2.70316C6.30796 1.33641 7.53529 0.326656 8.97437 0.0682391C9.47779 -0.0215942 9.98354 -0.0233442 10.4788 0.0647391C10.8673 0.133572 11.1805 0.407739 11.2966 0.778739C11.4302 1.20399 11.2966 1.67182 10.9396 2.02999L9.57754 3.33782C9.29462 3.62074 9.24854 4.07341 9.48129 4.35807C9.61546 4.52199 9.80387 4.61766 10.0127 4.62874C10.2163 4.63866 10.4175 4.56341 10.5651 4.41582L12.09 2.94524C12.3735 2.66174 12.7975 2.55616 13.1942 2.68274C13.5815 2.80466 13.8656 3.12724 13.9362 3.52332C14.0237 4.01799 14.0225 4.52491 13.9327 5.02891C13.7688 5.94591 13.291 6.79991 12.5875 7.43399C12.4761 7.53432 12.3361 7.58391 12.1973 7.58391C12.038 7.58391 11.8788 7.51916 11.7639 7.39141C11.548 7.15224 11.5673 6.78299 11.8065 6.56716C12.318 6.10632 12.6651 5.48682 12.7841 4.82416C12.8413 4.50449 12.8495 4.18541 12.8092 3.87216L11.383 5.24824C11.0125 5.61982 10.4905 5.82224 9.95496 5.79424C9.42063 5.76741 8.91896 5.51366 8.57829 5.09716C7.97046 4.35399 8.05096 3.21532 8.76146 2.50541L10.123 1.19757L10.1282 1.19232C9.81612 1.15266 9.49762 1.16082 9.18029 1.21799C8.13729 1.40466 7.24771 2.13791 6.85746 3.13074C6.74021 3.43057 6.40129 3.57816 6.10146 3.46032C5.80162 3.34249 5.65346 3.00416 5.77187 2.70432L5.77129 2.70316Z"></path>
</g>
<defs>
<clipPath id="clip0_236_67">
<rect width="14" height="14"></rect>
</clipPath>
</defs>
</symbol><symbol id="sprite:triangle" viewBox="0 0 25 24">
<g clip-path="url(#clip0_176_343)">
<path d="M17.3787 18H22.4874C23.3466 18 23.8057 16.9881 23.24 16.3415L14.0687 5.86009C13.6703 5.40476 12.962 5.40476 12.5636 5.86009L3.39235 16.3415C2.82659 16.9881 3.28577 18 4.14493 18H9.25366" stroke-width="2" stroke-linecap="round"></path>
</g>
<defs>
<clipPath id="clip0_176_343">
<rect width="24" height="24" transform="translate(0.941162)"></rect>
</clipPath>
</defs>
</symbol><symbol id="sprite:un" viewBox="0 0 24 24">
<path d="M24 16H23V12.552C23 8.091 20.172 4.125 16 2.531V1H8V2.531C3.828 4.125 1 8.091 1 12.552V16H0V18H1.477C2.472 19.341 5.755 23 12 23C18.245 23 21.528 19.341 22.523 18H24V16ZM21 12.552V16H16V4.707C19.009 6.164 21 9.186 21 12.552ZM14 3V16H10V3H14ZM3 12.552C3 9.186 4.99 6.165 8 4.707V16H3V12.552ZM12 21C8.061 21 5.522 19.313 4.142 18H19.842C18.453 19.312 15.911 21 12 21Z"></path>
</symbol><symbol id="sprite:vk" viewBox="0 0 24 24">
<g clip-path="url(#clip0_416_986)">
<path d="M22.316 1.684C20.632 0 17.921 0 12.5 0H11.5C6.079 0 3.368 0 1.684 1.684C0 3.368 0 6.079 0 11.5V12.5C0 17.921 0 20.631 1.684 22.316C3.368 24.001 6.079 24 11.5 24H12.5C17.921 24 20.631 24 22.316 22.316C24 20.632 24 17.921 24 12.5V11.5C24 6.079 24 3.368 22.316 1.684ZM19.503 17H17.753C17.086 17 16.89 16.468 15.703 15.281C14.664 14.28 14.219 14.15 13.96 14.15C13.607 14.15 13.502 14.25 13.502 14.75V16.319C13.502 16.749 13.365 17 12.252 17C10.398 17 8.36 15.874 6.913 13.798C4.743 10.757 4.15 8.458 4.15 7.995C4.15 7.735 4.25 7.5 4.75 7.5H6.501C6.948 7.5 7.116 7.696 7.284 8.18C8.14 10.673 9.584 12.852 10.177 12.852C10.399 12.852 10.501 12.749 10.501 12.185V9.608C10.436 8.422 9.805 8.324 9.805 7.902C9.805 7.707 9.972 7.5 10.25 7.5H13.001C13.372 7.5 13.501 7.698 13.501 8.143V11.61C13.501 11.98 13.662 12.11 13.773 12.11C13.996 12.11 14.181 11.98 14.589 11.572C15.85 10.163 16.74 7.994 16.74 7.994C16.852 7.734 17.056 7.499 17.502 7.499H19.252C19.781 7.499 19.893 7.771 19.781 8.142C19.558 9.162 17.426 12.165 17.426 12.165C17.24 12.462 17.166 12.61 17.426 12.944C17.612 13.204 18.223 13.723 18.631 14.205C19.383 15.051 19.95 15.764 20.108 16.256C20.254 16.75 20.003 17 19.503 17Z"></path>
</g>
<defs>
<clipPath id="clip0_416_986">
<rect width="24" height="24"></rect>
</clipPath>
</defs>
</symbol><symbol id="sprite:vk2" viewBox="0 0 27 27">
<path d="M13.4466 19.8226C7.5208 19.8226 4.14083 15.7601 4 9H6.96832C7.06582 13.9617 9.25411 16.0634 10.9874 16.4968V9H13.7825V13.2792C15.4942 13.095 17.2923 11.145 17.899 9H20.6941C20.2282 11.6434 18.2782 13.5934 16.8916 14.3951C18.2782 15.0451 20.4992 16.7459 21.3442 19.8226H18.2674C17.6066 17.7643 15.96 16.1717 13.7825 15.9551V19.8226H13.4466Z"></path>
</symbol><symbol id="sprite:wa" viewBox="0 0 24 24">
<path fill-rule="evenodd" clip-rule="evenodd" d="M18.9852 16.9453C18.696 17.764 17.5464 18.4412 16.6296 18.6393C16.002 18.7725 15.1836 18.8779 12.426 17.7352C9.3288 16.452 5.028 11.8812 5.028 8.83945C5.028 7.29099 5.9208 5.48789 7.482 5.48789C8.2332 5.48789 8.3988 5.50254 8.646 6.09551C8.9352 6.79412 9.64081 8.51535 9.72481 8.6918C10.0716 9.41561 9.37199 9.83934 8.86439 10.4695C8.70239 10.6592 8.51881 10.8643 8.72401 11.2172C8.92801 11.5629 9.6336 12.7129 10.6704 13.6359C12.0096 14.8291 13.0956 15.21 13.4844 15.3721C13.7736 15.4921 14.1192 15.4641 14.3304 15.2385C14.598 14.9492 14.9304 14.4692 15.2688 13.9963C15.5076 13.6578 15.8112 13.6155 16.1292 13.7355C16.344 13.81 19.074 15.0778 19.1892 15.2807C19.2744 15.4283 19.2744 16.1267 18.9852 16.9453ZM12.0024 0H11.9964C5.38079 0 0 5.38242 0 12C0 14.624 0.846008 17.0584 2.28481 19.033L0.789606 23.492L5.40121 22.0184C7.29841 23.2739 9.5628 24 12.0024 24C18.618 24 24 18.6176 24 12C24 5.38242 18.618 0 12.0024 0Z"></path>
</symbol><symbol id="sprite:yt" viewBox="0 0 24 24">
<path d="M23.498 6.18599C23.222 5.14699 22.409 4.32799 21.376 4.04999C19.505 3.54599 12 3.54599 12 3.54599C12 3.54599 4.495 3.54599 2.623 4.04999C1.591 4.32799 0.778 5.14599 0.502 6.18599C0 8.06999 0 12 0 12C0 12 0 15.93 0.502 17.814C0.778 18.853 1.591 19.672 2.624 19.95C4.495 20.454 12 20.454 12 20.454C12 20.454 19.505 20.454 21.377 19.95C22.409 19.672 23.222 18.854 23.499 17.814C24 15.93 24 12 24 12C24 12 24 8.06999 23.498 6.18599ZM9.546 15.569V8.43099L15.818 12L9.546 15.569Z"></path>
</symbol></svg>