<svg width="40" height="40" viewBox="0 0 40 40" fill="none" xmlns="http://www.w3.org/2000/svg">
<g clip-path="url(#clip0_238_120)">
<path d="M19.9999 0C15.5811 0.00485266 11.3447 1.76236 8.22017 4.88691C5.09561 8.01147 3.3381 12.2479 3.33325 16.6667C3.33325 25.47 17.3333 37.555 18.9233 38.905L19.9999 39.815L21.0766 38.905C22.6666 37.555 36.6666 25.47 36.6666 16.6667C36.6617 12.2479 34.9042 8.01147 31.7797 4.88691C28.6551 1.76236 24.4187 0.00485266 19.9999 0ZM19.9999 25C18.3517 25 16.7406 24.5113 15.3702 23.5956C13.9998 22.6799 12.9317 21.3784 12.3009 19.8557C11.6702 18.333 11.5052 16.6574 11.8267 15.0409C12.1483 13.4244 12.9419 11.9395 14.1074 10.7741C15.2728 9.60867 16.7577 8.815 18.3742 8.49346C19.9907 8.17191 21.6662 8.33694 23.1889 8.96767C24.7117 9.5984 26.0132 10.6665 26.9288 12.0369C27.8445 13.4073 28.3333 15.0185 28.3333 16.6667C28.3306 18.876 27.4518 20.9941 25.8896 22.5563C24.3273 24.1185 22.2092 24.9974 19.9999 25Z" fill="#307C32"/>
<path d="M25.925 10.5806C29.2799 13.8536 29.3454 19.2267 26.0714 22.5806C22.7422 25.991 17.2578 25.991 13.9286 22.5806C10.6546 19.2267 10.7201 13.8536 14.075 10.5806C17.3707 7.36525 22.6293 7.36525 25.925 10.5806Z" fill="#307C32" stroke="#307C32"/>
<path d="M17.6054 6.3999L20.8089 8.80256V7.60123H22.4107V9.60345L26.8156 13.2074V23.1999H22.4107V15.6101L17.6054 12.0061V19.6145H20.8089V23.1999H12.8V15.6101L17.6054 12.0061V6.3999Z" fill="white"/>
</g>
<defs>
<clipPath id="clip0_238_120">
<rect width="40" height="40" fill="white"/>
</clipPath>
</defs>
</svg>
